<?xml version="1.0" standalone="no"?>
<!DOCTYPE svg PUBLIC "-//W3C//DTD SVG 1.1//EN" "http://www.w3.org/Graphics/SVG/1.1/DTD/svg11.dtd" >
<svg xmlns="http://www.w3.org/2000/svg" xmlns:xlink="http://www.w3.org/1999/xlink" version="1.1">
<metadata>
Created by FontForge 20190801 at Wed Dec 11 18:39:51 2019
 By www-data
Copyright (c) 2019 by Florian Karsten. All rights reserved.
</metadata>
<defs>
<font id="FKGroteskRegular" horiz-adv-x="0" >
  <font-face 
    font-family="FKGroteskRegular"
    font-weight="400"
    font-stretch="normal"
    units-per-em="1000"
    panose-1="0 0 5 0 0 0 0 0 0 0"
    ascent="800"
    descent="-200"
    x-height="509"
    cap-height="720"
    bbox="-479 -262 1263 1113"
    underline-thickness="50"
    underline-position="-100"
    unicode-range="U+0020-FB02"
  />
<missing-glyph horiz-adv-x="683" 
d="M591 720l10 -10v-700l-10 -10h-500l-10 10v700l10 10h500zM529 680h-408v-610zM153 40h408v610z" />
    <glyph glyph-name="fi" unicode="fi" horiz-adv-x="602" 
d="M15 443v66h119v87q0 61 34 92.5t97 31.5h229v-66h-264l-8 -8v-137h308v-509h-88v443h-220v-443h-88v443h-119z" />
    <glyph glyph-name="fl" unicode="fl" horiz-adv-x="602" 
d="M530 720v-720h-88v654h-212l-8 -8v-137h130v-66h-130v-443h-88v443h-119v66h119v87q0 61 34 92.5t97 31.5h265z" />
    <glyph glyph-name="f_f.liga" unicode="ff" horiz-adv-x="691" 
d="M548 654l-8 -8v-137h133v-66h-133v-443h-88v443h-230v-443h-88v443h-119v66h119v87q0 61 34 92.5t97 31.5h102v-66h-137l-8 -8v-137h230v87q0 61 34 92.5t97 31.5h115v-66h-150z" />
    <glyph glyph-name="f_f_i.liga" unicode="ffi" horiz-adv-x="910" 
d="M15 443v66h119v87q0 61 34 92.5t97 31.5h102v-66h-137l-8 -8v-137h220v87q0 61 34 92.5t97 31.5h229v-66h-264l-8 -8v-137h308v-509h-88v443h-220v-443h-88v443h-220v-443h-88v443h-119z" />
    <glyph glyph-name="f_f_j.liga" unicode="ffj" horiz-adv-x="910" 
d="M15 443v66h119v87q0 61 34 92.5t97 31.5h102v-66h-137l-8 -8v-137h220v87q0 61 34 92.5t97 31.5h229v-66h-264l-8 -8v-137h308v-585q0 -61 -34 -92.5t-97 -31.5h-85v68h120l8 8v567h-220v-443h-88v443h-220v-443h-88v443h-119z" />
    <glyph glyph-name="f_f_l.liga" unicode="ffl" horiz-adv-x="910" 
d="M838 720v-720h-88v654h-212l-8 -8v-137h130v-66h-130v-443h-88v443h-220v-443h-88v443h-119v66h119v87q0 61 34 92.5t97 31.5h102v-66h-137l-8 -8v-137h220v87q0 61 34 92.5t97 31.5h265z" />
    <glyph glyph-name="f_j.liga" unicode="fj" horiz-adv-x="602" 
d="M15 443v66h119v87q0 61 34 92.5t97 31.5h229v-66h-264l-8 -8v-137h308v-585q0 -61 -34 -92.5t-97 -31.5h-87v68h122l8 8v567h-220v-443h-88v443h-119z" />
    <glyph glyph-name="f_lcaron.liga" unicode="f&#x13e;" horiz-adv-x="699" 
d="M265 720h265v-720h-88v654h-212l-8 -8v-137h130v-66h-130v-443h-88v443h-119v66h119v87q0 61 34 92.5t97 31.5zM617 720h85v-15l-38 -171h-61v15z" />
    <glyph glyph-name="f_t.liga" unicode="ft" horiz-adv-x="710" 
d="M548 68h136v-68h-101q-64 0 -97.5 31.5t-33.5 93.5v318h-230v-443h-88v443h-119v66h119v87q0 61 34 92.5t97 31.5h102v-66h-137l-8 -8v-137h230v102l73 55h15v-157h135v-66h-135v-367z" />
    <glyph glyph-name="t_t.liga" unicode="tt" horiz-adv-x="710" 
d="M548 68h136v-68h-101q-64 0 -97.5 31.5t-33.5 93.5v318h-230v-367l8 -8h132v-68h-97q-64 0 -97.5 31.5t-33.5 93.5v318h-119v66h119v102l73 55h15v-157h230v102l73 55h15v-157h135v-66h-135v-367z" />
    <glyph glyph-name=".notdef" horiz-adv-x="683" 
d="M591 720l10 -10v-700l-10 -10h-500l-10 10v700l10 10h500zM529 680h-408v-610zM153 40h408v610z" />
    <glyph glyph-name=".null" 
 />
    <glyph glyph-name="nonmarkingreturn" horiz-adv-x="333" 
 />
    <glyph glyph-name="space" unicode=" " horiz-adv-x="274" 
 />
    <glyph glyph-name="exclam" unicode="!" horiz-adv-x="253" 
d="M81 720h91v-211l-17 -316h-57l-17 316v211zM67 107h119v-107h-119v107z" />
    <glyph glyph-name="quotedbl" unicode="&#x22;" horiz-adv-x="399" 
d="M54 613v107h119v-130q0 -52 -29 -79t-82 -27h-22v51h20q53 0 53 55v23h-59zM226 720h119v-130q0 -106 -110 -106h-23v51h20q54 0 54 55v23h-60v107z" />
    <glyph glyph-name="numbersign" unicode="#" horiz-adv-x="825" 
d="M765 448h-159l-48 -176h207v-68h-225l-56 -204h-78v15l51 189h-174l-55 -204h-78v15l51 189h-140v68h159l47 176h-206v68h225l55 204h79v-15l-52 -189h174l55 204h79v-15l-51 -189h140v-68zM477 270l48 180h-176l-49 -180h177z" />
    <glyph glyph-name="dollar" unicode="$" horiz-adv-x="667" 
d="M337 659q-83 0 -133.5 -32.5t-50.5 -89.5q0 -52 39 -77.5t122 -44.5l75 -17q117 -27 174.5 -71t57.5 -131t-64.5 -142.5t-178.5 -63.5v-108h-79v109q-113 9 -183 67t-83 155v15h88q10 -87 69.5 -127t150.5 -40q86 0 137 33.5t51 95.5q0 58 -40.5 83.5t-127.5 45.5l-75 17
q-111 25 -168 71t-57 128t65 135t177 60v108h80v-109q106 -10 169.5 -66t71.5 -146v-15h-88q-4 80 -58.5 118.5t-140.5 38.5z" />
    <glyph glyph-name="percent" unicode="%" horiz-adv-x="934" 
d="M223 405q-72 0 -120.5 47.5t-48.5 116.5t48.5 116t120.5 47q73 0 121.5 -47t48.5 -116t-48.5 -116.5t-121.5 -47.5zM750 720h95v-15l-669 -705h-94v15zM223 470q43 0 69 28t26 71q0 42 -26 69.5t-69 27.5q-42 0 -68.5 -27.5t-26.5 -69.5q0 -43 26 -71t69 -28zM710 -12
q-72 0 -120.5 47.5t-48.5 116.5t48.5 116t120.5 47q73 0 121.5 -47t48.5 -116t-48.5 -116.5t-121.5 -47.5zM710 53q43 0 69 28t26 71q0 42 -26 69.5t-69 27.5q-42 0 -68.5 -27.5t-26.5 -69.5q0 -43 26 -71t69 -28z" />
    <glyph glyph-name="ampersand" unicode="&#x26;" horiz-adv-x="759" 
d="M731 420v-15l-196 -262l63 -70l13 -6h115v-67h-81q-88 0 -139 58l-21 24q-89 -94 -210 -94q-99 0 -162.5 53t-63.5 139q0 71 42.5 119.5t122.5 87.5q-41 47 -61 86.5t-20 88.5q0 76 57 123t148 47q88 0 141.5 -45.5t53.5 -116.5q0 -70 -48 -114.5t-144 -87.5l-5 -2
l148 -165l163 219h84zM336 664q-52 0 -85.5 -28t-33.5 -74q0 -37 16 -68t54 -73l22 10q73 33 106.5 62.5t33.5 74.5q0 43 -30.5 69.5t-82.5 26.5zM277 58q84 0 157 81l-172 193q-63 -30 -95.5 -63.5t-32.5 -82.5q0 -57 41 -92.5t102 -35.5z" />
    <glyph glyph-name="quotesingle" unicode="'" horiz-adv-x="226" 
d="M54 720h119v-130q0 -52 -29 -79t-82 -27h-22v51h20q53 0 53 55v23h-59v107z" />
    <glyph glyph-name="parenleft" unicode="(" horiz-adv-x="339" 
d="M324 770v-13q-81 -99 -126 -210t-45 -262t45 -262t126 -210v-13h-82q-81 93 -129 208t-48 277t48 277t129 208h82z" />
    <glyph glyph-name="parenright" unicode=")" horiz-adv-x="339" 
d="M97 770q81 -93 129 -208t48 -277t-48 -277t-129 -208h-82v13q81 99 126 210t45 262t-45 262t-126 210v13h82z" />
    <glyph glyph-name="asterisk" unicode="*" horiz-adv-x="516" 
d="M462 539h15v-60h-15l-106 7l-60 7l47 -36l81 -71l11 -11l-43 -43l-11 11l-70 81l-37 47l7 -59l7 -107v-15h-60v15l7 107l7 58l-36 -46l-71 -81l-11 -11l-43 43l11 11l81 71l47 36l-59 -7l-107 -7h-15v60h15l107 -7l59 -7l-47 37l-81 70l-11 11l43 43l11 -11l71 -81
l36 -46l-7 59l-7 106v15h60v-15l-7 -106l-7 -60l37 47l70 81l11 11l43 -43l-11 -11l-81 -70l-47 -37l60 7z" />
    <glyph glyph-name="plus" unicode="+" horiz-adv-x="680" 
d="M589 399v-70h-211v-216h-76v216h-211v70h211v216h76v-216h211z" />
    <glyph glyph-name="comma" unicode="," horiz-adv-x="226" 
d="M54 107h119v-131q0 -52 -29 -79t-82 -27h-22v52h20q53 0 53 55v23h-59v107z" />
    <glyph glyph-name="hyphen" unicode="-" horiz-adv-x="402" 
d="M60 294h282v-70h-282v70z" />
    <glyph glyph-name="period" unicode="." horiz-adv-x="226" 
d="M54 107h119v-107h-119v107z" />
    <glyph glyph-name="slash" unicode="/" horiz-adv-x="505" 
d="M355 720h84v-15l-283 -705h-84v15z" />
    <glyph glyph-name="zero" unicode="0" horiz-adv-x="683" 
d="M51 360q0 173 77.5 272.5t213.5 99.5q135 0 212.5 -99.5t77.5 -272.5q0 -172 -77.5 -272t-212.5 -100q-136 0 -213.5 100t-77.5 272zM143 360q0 -138 52.5 -218t146.5 -80q93 0 145.5 80t52.5 218t-52.5 218.5t-145.5 80.5q-94 0 -146.5 -80.5t-52.5 -218.5z" />
    <glyph glyph-name="one" unicode="1" horiz-adv-x="396" 
d="M26 524v67h86q59 0 85.5 24t26.5 73v32h90v-720h-91v524h-197z" />
    <glyph glyph-name="two" unicode="2" horiz-adv-x="630" 
d="M52 504v15q8 95 80 153.5t187 58.5t185.5 -58.5t70.5 -151.5q0 -45 -11.5 -80.5t-41 -70.5t-54.5 -57.5t-77 -65.5l-205 -174h397v-73h-528v62l295 254q73 63 103 105.5t30 100.5q0 63 -44 100.5t-121 37.5q-78 0 -125.5 -40.5t-52.5 -115.5h-88z" />
    <glyph glyph-name="three" unicode="3" horiz-adv-x="626" 
d="M45 198v15h87q4 -73 53 -113.5t128 -40.5q78 0 125.5 38t47.5 102q0 63 -47 99t-127 36h-78v72h78q72 0 116.5 35t44.5 93q0 60 -44.5 93.5t-116.5 33.5q-71 0 -116.5 -34.5t-50.5 -98.5h-87v15q10 86 78 137.5t178 51.5q112 0 181 -52.5t69 -139.5q0 -74 -41.5 -114
t-93.5 -48v-10q57 -9 103 -50.5t46 -122.5q0 -95 -73 -151t-191 -56q-117 0 -189 56t-80 154z" />
    <glyph glyph-name="four" unicode="4" horiz-adv-x="627" 
d="M23 205v63l411 452h111v-720h-92v205h-430zM125 276h328v350h-10z" />
    <glyph glyph-name="five" unicode="5" horiz-adv-x="625" 
d="M98 720h467v-73h-381l-18 -248h10q66 72 167 72q102 0 168.5 -64.5t66.5 -169.5q0 -110 -72.5 -179.5t-196.5 -69.5q-118 0 -186.5 61.5t-77.5 148.5v15h88q6 -66 50.5 -110t124.5 -44q82 0 130 48t48 125q0 74 -47 120.5t-126 46.5q-112 0 -154 -99h-91z" />
    <glyph glyph-name="six" unicode="6" horiz-adv-x="651" 
d="M602 227q0 -107 -73.5 -173t-191.5 -66q-127 0 -206.5 84.5t-79.5 254.5q0 204 82.5 304.5t223.5 100.5q62 0 109.5 -17.5t75 -47t42.5 -61.5t20 -67v-15h-87q-3 25 -12 47.5t-26.5 43.5t-49 33.5t-73.5 12.5q-101 0 -157 -79t-56 -233h10q59 109 205 109
q105 0 174.5 -63.5t69.5 -167.5zM510 222q0 73 -47.5 118.5t-126.5 45.5q-78 0 -125 -45.5t-47 -118.5t47 -118t126 -45q78 0 125.5 45t47.5 118z" />
    <glyph glyph-name="seven" unicode="7" horiz-adv-x="583" 
d="M19 720h542v-64l-315 -656h-95v15l308 632h-440v73z" />
    <glyph glyph-name="eight" unicode="8" horiz-adv-x="644" 
d="M61 539q0 87 71.5 140t189.5 53q117 0 188.5 -53t71.5 -140q0 -71 -40 -109.5t-93 -53.5v-10q24 -6 47 -17t46.5 -31t38 -52.5t14.5 -73.5q0 -93 -74.5 -148.5t-198.5 -55.5t-198.5 55.5t-74.5 148.5q0 41 14.5 73.5t37.5 52.5t45.5 31t46.5 17v10q-53 15 -92.5 53
t-39.5 110zM153 533q0 -60 45 -94t124 -34t124 34t45 94t-45 94t-124 34t-124 -34t-45 -94zM141 196q0 -64 49 -100.5t132 -36.5t132 36.5t49 100.5t-48.5 101t-132.5 37t-132.5 -37t-48.5 -101z" />
    <glyph glyph-name="nine" unicode="9" horiz-adv-x="649" 
d="M48 495q0 105 73 171t190 66q128 0 207.5 -84.5t79.5 -254.5q0 -205 -76 -305t-213 -100q-60 0 -107.5 18t-76 48t-44 59t-22.5 59v15h88q10 -49 48.5 -88.5t113.5 -39.5q198 0 198 311h-10q-61 -107 -201 -107q-107 0 -177.5 64.5t-70.5 167.5zM140 498q0 -73 47 -118.5
t126 -45.5q78 0 125.5 45.5t47.5 118.5t-47.5 118t-126.5 45q-78 0 -125 -45t-47 -118z" />
    <glyph glyph-name="colon" unicode=":" horiz-adv-x="226" 
d="M54 509h119v-106h-119v106zM54 107h119v-107h-119v107z" />
    <glyph glyph-name="semicolon" unicode=";" horiz-adv-x="230" 
d="M58 509h119v-106h-119v106zM54 0v107h119v-131q0 -52 -29 -79t-82 -27h-22v52h20q53 0 53 55v23h-59z" />
    <glyph glyph-name="less" unicode="&#x3c;" horiz-adv-x="680" 
d="M576 159h-15l-467 170v70l467 170h15v-73l-365 -126v-10l365 -128v-73z" />
    <glyph glyph-name="equal" unicode="=" horiz-adv-x="680" 
d="M104 495h472v-71h-472v71zM104 304h472v-71h-472v71z" />
    <glyph glyph-name="greater" unicode="&#x3e;" horiz-adv-x="680" 
d="M104 159v73l365 128v10l-365 126v73h15l467 -170v-70l-467 -170h-15z" />
    <glyph glyph-name="question" unicode="?" horiz-adv-x="564" 
d="M122 521h-89v15q4 88 74 142t178 54q107 0 173.5 -52t66.5 -134q0 -39 -12 -69.5t-35.5 -54t-44 -37.5t-54.5 -33l-14 -8q-25 -15 -34.5 -31t-9.5 -43v-16l-14 -61h-60l-14 61v18q0 46 19.5 75t62.5 54l14 8q54 30 80 59.5t26 77.5q0 53 -42 85t-110 32q-70 0 -115 -36.5
t-46 -105.5zM217 107h120v-107h-120v107z" />
    <glyph glyph-name="at" unicode="@" horiz-adv-x="1072" 
d="M492 299l186 18v18q0 114 -129 114q-122 0 -136 -100h-83v15q12 68 71.5 109.5t150.5 41.5q96 0 152.5 -46t56.5 -135v-240l8 -8h15q63 0 107 55t44 177q0 148 -105.5 248t-277.5 100q-179 0 -295.5 -111t-116.5 -295q0 -185 118 -295.5t304 -110.5q158 0 270 80l37 -59
q-130 -87 -307 -87q-218 0 -357.5 128.5t-139.5 343.5q0 214 138.5 343t348.5 129q203 0 330.5 -118t127.5 -294q0 -150 -67.5 -224t-161.5 -74q-42 0 -65.5 20.5t-26.5 55.5h-10q-18 -22 -34.5 -36.5t-56.5 -30t-91 -15.5q-79 0 -129 39t-49 103t48 99t125 42zM678 239v13
l-173 -17q-103 -10 -103 -76q0 -36 29 -56.5t81 -20.5q72 0 119 41t47 116z" />
    <glyph glyph-name="A" unicode="A" horiz-adv-x="693" 
d="M25 0v15l263 705h118l262 -705v-15h-90l-75 203h-313l-74 -203h-91zM215 276h263l-126 347h-10z" />
    <glyph glyph-name="B" unicode="B" horiz-adv-x="674" 
d="M81 720h323q96 0 158 -48t62 -133q0 -74 -41 -113t-89 -51v-10q23 -5 44 -14.5t44.5 -28.5t37.5 -52.5t14 -77.5q0 -92 -64.5 -142t-165.5 -50h-323v720zM173 644v-238h212q66 0 107 30t41 89t-41 89t-107 30h-212zM173 330v-254h214q70 0 113 32t43 94t-43 95t-113 33
h-214z" />
    <glyph glyph-name="C" unicode="C" horiz-adv-x="759" 
d="M45 360q0 172 99.5 272t259.5 100q74 0 133.5 -21.5t95.5 -56.5t56 -73.5t25 -79.5v-15h-87q-3 30 -16.5 58t-38 55t-68 43t-100.5 16q-121 0 -194.5 -80t-73.5 -218t73.5 -218t194.5 -80q56 0 100.5 16.5t70 43.5t39.5 54.5t19 57.5h87v-15q-7 -39 -27.5 -77t-57 -74
t-96.5 -58t-135 -22q-160 0 -259.5 100t-99.5 272z" />
    <glyph glyph-name="D" unicode="D" horiz-adv-x="735" 
d="M81 720h256q161 0 257.5 -97t96.5 -263t-96.5 -263t-257.5 -97h-256v720zM173 644v-568h163q121 0 192 75.5t71 208.5t-71 208.5t-192 75.5h-163z" />
    <glyph glyph-name="E" unicode="E" horiz-adv-x="635" 
d="M81 720h505v-76h-413v-237h363v-76h-363v-255h423v-76h-515v720z" />
    <glyph glyph-name="F" unicode="F" horiz-adv-x="591" 
d="M81 720h482v-76h-390v-249h350v-76h-350v-319h-92v720z" />
    <glyph glyph-name="G" unicode="G" horiz-adv-x="779" 
d="M45 359q0 173 100.5 273t262.5 100q74 0 133 -21.5t96 -56.5t58 -76t27 -85v-15h-87q-3 32 -16.5 61.5t-39 57t-70 44.5t-101.5 17q-124 0 -198 -80.5t-74 -218.5t73 -217.5t196 -79.5q110 0 166.5 61.5t58.5 151.5h-247v71h331v-346h-64l-20 93h-10q-76 -104 -225 -104
q-153 0 -251.5 99.5t-98.5 270.5z" />
    <glyph glyph-name="H" unicode="H" horiz-adv-x="720" 
d="M81 720h92v-318h373v318h92v-720h-92v326h-373v-326h-92v720z" />
    <glyph glyph-name="I" unicode="I" horiz-adv-x="255" 
d="M81 720h92v-720h-92v720z" />
    <glyph glyph-name="J" unicode="J" horiz-adv-x="569" 
d="M400 720h92v-507q0 -108 -57.5 -166.5t-173.5 -58.5q-115 0 -174 57t-59 159h90q0 -67 35.5 -104.5t106.5 -37.5q140 0 140 150v508z" />
    <glyph glyph-name="K" unicode="K" horiz-adv-x="715" 
d="M393 444l298 -429v-15h-99l-264 385l-155 -139v-246h-92v720h92v-354h10l390 354h111v-15z" />
    <glyph glyph-name="L" unicode="L" horiz-adv-x="586" 
d="M81 720h92v-644h390v-76h-482v720z" />
    <glyph glyph-name="M" unicode="M" horiz-adv-x="948" 
d="M81 720h117l271 -626h10l270 626h117v-720h-89v564h-10l-244 -564h-98l-244 564h-10v-564h-90v720z" />
    <glyph glyph-name="N" unicode="N" horiz-adv-x="734" 
d="M81 720h112l360 -589h10v589h89v-720h-112l-359 589h-10v-589h-90v720z" />
    <glyph glyph-name="O" unicode="O" horiz-adv-x="810" 
d="M45 360q0 172 99.5 272t260.5 100t261 -100t100 -272t-100 -272t-261 -100t-260.5 100t-99.5 272zM136 360q0 -139 73 -218.5t196 -79.5t196 79.5t73 218.5t-73 218.5t-196 79.5t-196 -79.5t-73 -218.5z" />
    <glyph glyph-name="P" unicode="P" horiz-adv-x="653" 
d="M81 720h315q98 0 162.5 -55.5t64.5 -150.5t-64.5 -150.5t-162.5 -55.5h-223v-308h-92v720zM173 644v-260h207q69 0 110 34.5t41 95.5t-41 95.5t-110 34.5h-207z" />
    <glyph glyph-name="Q" unicode="Q" horiz-adv-x="810" 
d="M766 360q0 -160 -87 -258t-230 -112v-91l8 -8h105v-66h-71q-64 0 -97.5 31.5t-33.5 93.5v40q-143 15 -229 112.5t-86 257.5q0 172 99.5 272t260.5 100t261 -100t100 -272zM136 360q0 -139 73 -218.5t196 -79.5t196 79.5t73 218.5t-73 218.5t-196 79.5t-196 -79.5
t-73 -218.5z" />
    <glyph glyph-name="R" unicode="R" horiz-adv-x="682" 
d="M643 512q0 -87 -54.5 -142t-139.5 -64l185 -291v-15h-97l-190 304h-174v-304h-92v720h337q96 0 160.5 -56.5t64.5 -151.5zM173 644v-264h229q67 0 108 34.5t41 97.5t-41 97.5t-108 34.5h-229z" />
    <glyph glyph-name="S" unicode="S" horiz-adv-x="667" 
d="M61 535q0 88 74.5 142t200.5 54t202.5 -57t85.5 -157v-15h-88q-4 80 -58.5 118.5t-140.5 38.5q-83 0 -133.5 -32.5t-50.5 -89.5q0 -52 39 -77.5t122 -44.5l75 -17q117 -27 174.5 -71t57.5 -131q0 -95 -74.5 -151t-204.5 -56q-131 0 -213 59t-96 165v15h88
q10 -87 69.5 -127t150.5 -40q86 0 137 33.5t51 95.5q0 58 -40.5 83.5t-127.5 45.5l-75 17q-111 25 -168 71t-57 128z" />
    <glyph glyph-name="T" unicode="T" horiz-adv-x="647" 
d="M17 720h613v-76h-261v-644h-91v644h-261v76z" />
    <glyph glyph-name="U" unicode="U" horiz-adv-x="723" 
d="M77 720h92v-458q0 -200 193 -200q93 0 142.5 50t49.5 150v458h92v-454q0 -133 -73 -205.5t-211 -72.5t-211.5 72.5t-73.5 205.5v454z" />
    <glyph glyph-name="V" unicode="V" horiz-adv-x="691" 
d="M24 720h90l226 -623h10l226 623h91v-15l-263 -705h-118l-262 705v15z" />
    <glyph glyph-name="W" unicode="W" horiz-adv-x="1007" 
d="M28 720h90l152 -612h10l173 612h101l173 -612h10l152 612h90v-15l-184 -705h-118l-168 598h-10l-169 -598h-118l-184 705v15z" />
    <glyph glyph-name="X" unicode="X" horiz-adv-x="722" 
d="M49 720h98l212 -292h10l219 292h98v-15l-259 -339l260 -351v-15h-99l-219 304h-10l-228 -304h-100v15l269 351l-251 339v15z" />
    <glyph glyph-name="Y" unicode="Y" horiz-adv-x="685" 
d="M14 720h100l224 -353h10l224 353h99v-15l-282 -431v-274h-92v274l-283 431v15z" />
    <glyph glyph-name="Z" unicode="Z" horiz-adv-x="643" 
d="M59 720h532v-62l-427 -582h439v-76h-558v63l426 581h-412v76z" />
    <glyph glyph-name="bracketleft" unicode="[" horiz-adv-x="323" 
d="M81 770h207v-66h-119v-838h119v-66h-207v970z" />
    <glyph glyph-name="backslash" unicode="\" horiz-adv-x="505" 
d="M150 720l283 -705v-15h-84l-283 705v15h84z" />
    <glyph glyph-name="bracketright" unicode="]" horiz-adv-x="320" 
d="M239 770v-970h-204v66h116v838h-116v66h204z" />
    <glyph glyph-name="asciicircum" unicode="^" horiz-adv-x="680" 
d="M568 401h-77l-146 236h-10l-146 -236h-77v15l193 304h70l193 -304v-15z" />
    <glyph glyph-name="underscore" unicode="_" horiz-adv-x="577" 
d="M60 -28h457v-70h-457v70z" />
    <glyph glyph-name="grave" unicode="`" horiz-adv-x="285" 
d="M159 580l-105 125v15h96l81 -125v-15h-72z" />
    <glyph glyph-name="a" unicode="a" horiz-adv-x="569" 
d="M56 346v15q13 72 74 116t155 44q98 0 156.5 -49t58.5 -140v-332h-85v75h-10q-53 -86 -177 -86q-83 0 -134.5 39.5t-51.5 106.5q0 68 49 105t132 45l190 18v31q0 121 -130 121q-62 0 -98.5 -28t-43.5 -81h-85zM130 139q0 -38 30.5 -61t82.5 -23q74 0 122 43.5t48 125.5v14
l-178 -17q-105 -10 -105 -82z" />
    <glyph glyph-name="b" unicode="b" horiz-adv-x="614" 
d="M73 720h88v-281h10q53 82 168 82q101 0 167 -71.5t66 -194.5t-66 -194.5t-167 -71.5q-117 0 -175 88h-10l-20 -77h-61v720zM156 255q0 -93 45.5 -145.5t118.5 -52.5q72 0 117.5 52.5t45.5 145.5q0 92 -45.5 145t-117.5 53q-73 0 -118.5 -52.5t-45.5 -145.5z" />
    <glyph glyph-name="c" unicode="c" horiz-adv-x="559" 
d="M42 255q0 121 70 193.5t185 72.5q99 0 155 -49t68 -114v-15h-81q-7 44 -41.5 77t-99.5 33q-76 0 -122 -52.5t-46 -145.5q0 -94 46 -146.5t122 -52.5q123 0 145 119h82v-15q-11 -69 -69 -120.5t-159 -51.5q-115 0 -185 73t-70 194z" />
    <glyph glyph-name="d" unicode="d" horiz-adv-x="614" 
d="M541 0h-86v72h-10q-55 -83 -170 -83q-102 0 -167.5 71.5t-65.5 194.5t65.5 194.5t167.5 71.5q115 0 168 -82h10v281h88v-720zM457 255q0 93 -45 145.5t-118 52.5t-118.5 -52.5t-45.5 -145.5t45.5 -145.5t118.5 -52.5t118 52.5t45 145.5z" />
    <glyph glyph-name="e" unicode="e" horiz-adv-x="577" 
d="M42 255q0 121 68.5 193.5t183.5 72.5q113 0 177 -69t64 -180v-38h-403q2 -80 46 -130t118 -50q66 0 102.5 34t45.5 79h84v-15q-13 -61 -71 -112.5t-161 -51.5q-116 0 -185 72.5t-69 194.5zM132 300h316q-2 69 -42 112t-112 43q-70 0 -113 -43t-49 -112z" />
    <glyph glyph-name="f" unicode="f" horiz-adv-x="373" 
d="M15 443v66h119v87q0 61 34 92.5t97 31.5h115v-66h-150l-8 -8v-137h133v-66h-133v-443h-88v443h-119z" />
    <glyph glyph-name="g" unicode="g" horiz-adv-x="606" 
d="M42 263q0 118 66.5 188t165.5 70q112 0 168 -83h10l20 71h62v-480q0 -112 -63 -176t-182 -64q-106 0 -165.5 46.5t-75.5 113.5v15h81q26 -109 158 -109q80 0 119.5 44.5t39.5 125.5v58h-10q-56 -77 -164 -77q-99 0 -164.5 70t-65.5 187zM130 263q0 -89 44.5 -139
t115.5 -50t115.5 50t44.5 139t-44.5 139.5t-115.5 50.5t-115.5 -50.5t-44.5 -139.5z" />
    <glyph glyph-name="h" unicode="h" horiz-adv-x="599" 
d="M73 720h88v-282h10q52 83 168 83q86 0 138.5 -47.5t52.5 -134.5v-339h-88v330q0 62 -33.5 92.5t-90.5 30.5q-67 0 -112 -43t-45 -125v-285h-88v720z" />
    <glyph glyph-name="i" unicode="i" horiz-adv-x="233" 
d="M56 703h122v-98h-122v98zM73 509h88v-509h-88v509z" />
    <glyph glyph-name="j" unicode="j" horiz-adv-x="235" 
d="M58 703h122v-98h-122v98zM75 509h88v-585q0 -61 -34 -92.5t-97 -31.5h-87v68h122l8 8v633z" />
    <glyph glyph-name="k" unicode="k" horiz-adv-x="581" 
d="M331 314l227 -299v-15h-93l-196 263l-108 -89v-174h-88v720h88v-438h10l271 227h108v-15z" />
    <glyph glyph-name="l" unicode="l" horiz-adv-x="233" 
d="M73 720h88v-720h-88v720z" />
    <glyph glyph-name="m" unicode="m" horiz-adv-x="899" 
d="M73 509h85v-64h10q46 76 152 76q118 0 155 -93h10q52 93 170 93q78 0 127 -44t49 -128v-349h-88v343q0 51 -28 79.5t-81 28.5q-63 0 -100.5 -38.5t-37.5 -112.5v-300h-88v343q0 51 -28 79.5t-81 28.5q-63 0 -100.5 -38.5t-37.5 -112.5v-300h-88v509z" />
    <glyph glyph-name="n" unicode="n" horiz-adv-x="599" 
d="M73 509h85v-75h10q50 87 171 87q87 0 139 -48t52 -135v-338h-88v329q0 62 -33.5 92.5t-90.5 30.5q-68 0 -112.5 -42.5t-44.5 -124.5v-285h-88v509z" />
    <glyph glyph-name="o" unicode="o" horiz-adv-x="592" 
d="M42 255q0 121 69.5 193.5t184.5 72.5t184.5 -72.5t69.5 -193.5t-69.5 -194t-184.5 -73t-184.5 73t-69.5 194zM130 255q0 -94 45 -146.5t121 -52.5q75 0 120 52.5t45 146.5q0 93 -45 145.5t-120 52.5t-120.5 -52.5t-45.5 -145.5z" />
    <glyph glyph-name="p" unicode="p" horiz-adv-x="614" 
d="M73 509h85v-72h10q58 84 171 84q101 0 167 -71.5t66 -194.5t-66 -194.5t-167 -71.5q-114 0 -168 81h-10v-270h-88v709zM156 255q0 -93 45.5 -145.5t118.5 -52.5q72 0 117.5 52.5t45.5 145.5q0 92 -45.5 145t-117.5 53q-73 0 -118.5 -52.5t-45.5 -145.5z" />
    <glyph glyph-name="q" unicode="q" horiz-adv-x="614" 
d="M541 -200h-88v270h-10q-54 -81 -168 -81q-102 0 -167.5 71.5t-65.5 194.5t65.5 194.5t167.5 71.5q116 0 174 -88h10l21 76h61v-709zM457 255q0 93 -45 145.5t-118 52.5t-118.5 -52.5t-45.5 -145.5t45.5 -145.5t118.5 -52.5t118 52.5t45 145.5z" />
    <glyph glyph-name="r" unicode="r" horiz-adv-x="369" 
d="M73 509h85v-69h10q34 71 125 71h52v-70h-51q-70 0 -101.5 -39.5t-31.5 -119.5v-282h-88v509z" />
    <glyph glyph-name="s" unicode="s" horiz-adv-x="525" 
d="M52 373q0 68 57 108t155 40q97 0 154 -39.5t67 -109.5v-15h-82q-7 98 -139 98q-59 0 -93 -20.5t-34 -57.5q0 -34 24.5 -51t71.5 -25l83 -15q84 -15 128.5 -47.5t44.5 -96.5q0 -69 -56.5 -111.5t-159.5 -42.5t-165.5 43.5t-73.5 119.5v15h83q13 -112 155 -112
q63 0 97.5 22.5t34.5 60.5q0 34 -26.5 50.5t-81.5 26.5l-83 15q-161 29 -161 144z" />
    <glyph glyph-name="t" unicode="t" horiz-adv-x="392" 
d="M15 509h119v102l73 55h15v-157h135v-66h-135v-367l8 -8h136v-68h-101q-64 0 -97.5 31.5t-33.5 93.5v318h-119v66z" />
    <glyph glyph-name="u" unicode="u" horiz-adv-x="599" 
d="M526 0h-85v75h-10q-51 -86 -171 -86q-87 0 -139 47.5t-52 134.5v338h88v-329q0 -61 33.5 -91.5t90.5 -30.5q68 0 112.5 42.5t44.5 124.5v284h88v-509z" />
    <glyph glyph-name="v" unicode="v" horiz-adv-x="538" 
d="M17 509h90l157 -413h10l157 413h90v-15l-202 -494h-100l-202 494v15z" />
    <glyph glyph-name="w" unicode="w" horiz-adv-x="765" 
d="M16 509h85l101 -412h10l119 412h103l119 -412h10l101 412h86v-15l-133 -494h-110l-119 417h-10l-120 -417h-110l-132 494v15z" />
    <glyph glyph-name="x" unicode="x" horiz-adv-x="576" 
d="M48 509h91l145 -194h10l155 194h93v-15l-196 -239l185 -240v-15h-91l-151 202h-10l-160 -202h-94v15l202 247l-179 232v15z" />
    <glyph glyph-name="y" unicode="y" horiz-adv-x="541" 
d="M17 509h91l158 -418h10l157 418h91v-15l-283 -694h-90v15l73 171l-207 508v15z" />
    <glyph glyph-name="z" unicode="z" horiz-adv-x="512" 
d="M55 509h412v-56l-309 -387h317v-66h-430v56l309 387h-299v66z" />
    <glyph glyph-name="braceleft" unicode="{" horiz-adv-x="393" 
d="M28 251h-6v68h6q66 0 94.5 24t28.5 84v214q0 129 135 129h71v-66h-110l-8 -8v-276q0 -113 -110 -130v-10q110 -17 110 -130v-276l8 -8h110v-66h-71q-135 0 -135 129v214q0 60 -28.5 84t-94.5 24z" />
    <glyph glyph-name="bar" unicode="|" horiz-adv-x="270" 
d="M91 720h88v-920h-88v920z" />
    <glyph glyph-name="braceright" unicode="}" horiz-adv-x="393" 
d="M364 251q-66 0 -94 -24t-28 -84v-214q0 -129 -135 -129h-72v66h111l8 8v276q0 113 109 130v10q-109 17 -109 130v276l-8 8h-111v66h72q135 0 135 -129v-214q0 -60 28 -84t94 -24h6v-68h-6z" />
    <glyph glyph-name="asciitilde" unicode="~" horiz-adv-x="680" 
d="M521 441h68v-15q-2 -64 -37.5 -103.5t-96.5 -39.5q-44 0 -85 23.5t-75.5 46.5t-63.5 23q-69 0 -72 -87h-68v15q3 65 38.5 104t96.5 39q43 0 84 -23.5t75.5 -46.5t63.5 -23q69 0 72 87z" />
    <glyph glyph-name="exclamdown" unicode="&#xa1;" horiz-adv-x="253" 
d="M186 403h-119v106h119v-106zM172 -200h-91v200l17 317h57l17 -317v-200z" />
    <glyph glyph-name="cent" unicode="&#xa2;" horiz-adv-x="556" 
d="M440 382h82v-15q-10 -62 -57.5 -111t-130.5 -59v-98h-80v99q-97 13 -154.5 83.5t-57.5 180.5t57.5 180.5t154.5 83.5v99h80v-98q81 -10 126.5 -56.5t57.5 -105.5v-15h-82q-7 44 -41 77t-98 33q-76 0 -121.5 -52.5t-45.5 -145.5t45.5 -145.5t121.5 -52.5q123 0 143 118z
" />
    <glyph glyph-name="sterling" unicode="&#xa3;" horiz-adv-x="694" 
d="M390 661q-77 0 -126 -40t-49 -114q0 -48 28 -123h228v-66h-203q20 -60 20 -101q0 -98 -89 -144h451v-73h-558v63q56 27 82.5 60.5t26.5 83.5q0 40 -28 111h-145v66h120q-24 63 -24 121q0 106 74.5 166.5t190.5 60.5q113 0 184.5 -56.5t79.5 -152.5v-15h-89
q-4 74 -51 113.5t-123 39.5z" />
    <glyph glyph-name="currency" unicode="&#xa4;" horiz-adv-x="666" 
d="M602 364q0 -95 -55 -166l100 -100l-48 -48l-100 100q-72 -53 -166 -53t-166 53l-100 -100l-48 48l100 100q-55 71 -55 166t55 166l-100 100l48 48l100 -100q72 53 166 53t166 -53l100 100l48 -48l-100 -100q55 -71 55 -166zM333 164q83 0 135.5 56.5t52.5 143.5
t-52.5 143.5t-135.5 56.5t-135.5 -56.5t-52.5 -143.5t52.5 -143.5t135.5 -56.5z" />
    <glyph glyph-name="yen" unicode="&#xa5;" horiz-adv-x="685" 
d="M671 720v-15l-250 -383h181v-44h-213v-87h213v-44h-213v-147h-92v147h-214v44h214v87h-214v44h181l-250 383v15h100l224 -353h10l224 353h99z" />
    <glyph glyph-name="brokenbar" unicode="&#xa6;" horiz-adv-x="270" 
d="M91 389v331h88v-331h-88zM91 -200v331h88v-331h-88z" />
    <glyph glyph-name="section" unicode="&#xa7;" horiz-adv-x="628" 
d="M580 252q0 -30 -7.5 -54t-24 -41.5t-22.5 -22.5t-23 -17v-8q32 -40 32 -93q0 -77 -62 -122.5t-162 -45.5q-99 0 -162.5 45.5t-72.5 123.5v15h88q4 -58 43.5 -86.5t102.5 -28.5q61 0 97.5 25t36.5 68q0 21 -7.5 37t-26.5 29t-33.5 20t-44.5 20l-135 53q-71 27 -107 62.5
t-36 96.5q0 30 7.5 54t24 41.5t22.5 22.5t23 17v9q-32 38 -32 93q0 77 60.5 122t158.5 45t158 -44.5t70 -121.5v-15h-88q-4 56 -41 84t-98 28q-59 0 -94 -25t-35 -68q0 -21 7.5 -37t26.5 -29t33.5 -20t44.5 -20l135 -53q71 -27 107 -62.5t36 -96.5zM366 191q49 -19 77 -35
q50 30 50 84q0 37 -23 58.5t-67 38.5l-135 52q-49 19 -77 35q-50 -30 -50 -84q0 -37 23 -58.5t67 -38.5z" />
    <glyph glyph-name="dieresis" unicode="&#xa8;" horiz-adv-x="422" 
d="M49 703h112v-98h-112v98zM250 703h113v-98h-113v98z" />
    <glyph glyph-name="copyright" unicode="&#xa9;" horiz-adv-x="848" 
d="M48 360q0 158 108 265t268 107t268 -107t108 -265t-108 -265t-268 -107t-268 107t-108 265zM96 360q0 -141 93.5 -234.5t234.5 -93.5t234.5 94t93.5 234t-93.5 234t-234.5 94t-234.5 -93.5t-93.5 -234.5zM241 361q0 88 54 144t138 56q66 0 108 -35t52 -85v-15h-46
q-7 40 -36.5 65.5t-77.5 25.5q-64 0 -104 -42t-40 -114t40 -114t104 -42q98 0 119 95h46v-15q-11 -51 -54.5 -87.5t-110.5 -36.5q-84 0 -138 56t-54 144z" />
    <glyph glyph-name="guillemotleft" unicode="&#xab;" horiz-adv-x="515" 
d="M167 70l-123 182v14l123 182h84v-15l-119 -174l119 -174v-15h-84zM372 70l-123 182v14l123 182h83v-15l-119 -174l119 -174v-15h-83z" />
    <glyph glyph-name="registered" unicode="&#xae;" horiz-adv-x="848" 
d="M424 732q160 0 268 -107t108 -265t-108 -265t-268 -107t-268 107t-108 265t108 265t268 107zM424 32q141 0 234.5 94t93.5 234t-93.5 234t-234.5 94t-234.5 -93.5t-93.5 -234.5t93.5 -234.5t234.5 -93.5zM596 444q0 -48 -30.5 -77.5t-79.5 -33.5l86 -152v-15h-47l-91 166
h-92v-166h-48v390h178q54 0 89 -30t35 -82zM471 376q77 0 77 68t-77 68h-129v-136h129z" />
    <glyph glyph-name="macron" unicode="&#xaf;" horiz-adv-x="423" 
d="M54 658h315v-64h-315v64z" />
    <glyph glyph-name="degree" unicode="&#xb0;" horiz-adv-x="447" 
d="M223 405q-72 0 -120.5 47.5t-48.5 116.5t48.5 116t120.5 47q73 0 121.5 -47t48.5 -116t-48.5 -116.5t-121.5 -47.5zM223 470q43 0 69 28t26 71q0 42 -26 69.5t-69 27.5q-42 0 -68.5 -27.5t-26.5 -69.5q0 -43 26 -71t69 -28z" />
    <glyph glyph-name="plusminus" unicode="&#xb1;" horiz-adv-x="680" 
d="M378 407h198v-71h-198v-191h-76v191h-198v71h198v192h76v-192zM104 0v71h472v-71h-472z" />
    <glyph glyph-name="acute" unicode="&#xb4;" horiz-adv-x="285" 
d="M126 580h-72v15l81 125h96v-15z" />
    <glyph glyph-name="paragraph" unicode="&#xb6;" horiz-adv-x="778" 
d="M758 720v-44h-132v-876h-48v876h-184v-876h-48v528h-96q-93 0 -154.5 52t-61.5 144t61.5 144t154.5 52h508z" />
    <glyph glyph-name="periodcentered" unicode="&#xb7;" horiz-adv-x="226" 
d="M54 312h119v-107h-119v107z" />
    <glyph glyph-name="cedilla" unicode="&#xb8;" horiz-adv-x="361" 
d="M148 0h54l-12 -55l24 2q39 2 66 -14.5t27 -54.5q0 -40 -34.5 -65t-89.5 -25q-74 0 -129 39v58h15q61 -45 114 -45q30 0 46 10.5t16 27.5q0 30 -45 30h-68v15z" />
    <glyph glyph-name="guillemotright" unicode="&#xbb;" horiz-adv-x="515" 
d="M143 70h-83v15l118 174l-118 174v15h83l123 -182v-14zM348 70h-84v15l119 174l-119 174v15h84l122 -182v-14z" />
    <glyph glyph-name="questiondown" unicode="&#xbf;" horiz-adv-x="564" 
d="M347 403h-119v106h119v-106zM441 -1h90v-15q-4 -88 -74 -142t-178 -54q-107 0 -173.5 52t-65.5 134q0 39 11 70t35.5 54.5t44 37t54.5 33.5l14 7q25 15 34.5 31t9.5 43v11l14 56h60l14 -56v-13q0 -47 -19 -75.5t-63 -53.5l-14 -8q-53 -30 -79 -59.5t-26 -77.5
q0 -53 41.5 -85t109.5 -32q70 0 114.5 36.5t45.5 105.5z" />
    <glyph glyph-name="Agrave" unicode="&#xc0;" horiz-adv-x="693" 
d="M332 774l-106 111v15h106l77 -111v-15h-77zM25 0v15l263 705h118l262 -705v-15h-90l-75 203h-313l-74 -203h-91zM215 276h263l-126 347h-10z" />
    <glyph glyph-name="Aacute" unicode="&#xc1;" horiz-adv-x="693" 
d="M357 774h-77v15l77 111h106v-15zM25 0v15l263 705h118l262 -705v-15h-90l-75 203h-313l-74 -203h-91zM215 276h263l-126 347h-10z" />
    <glyph glyph-name="Acircumflex" unicode="&#xc2;" horiz-adv-x="693" 
d="M347 850l-98 -76h-87v18l130 108h110l129 -108v-18h-87zM406 720l262 -705v-15h-90l-75 203h-313l-74 -203h-91v15l263 705h118zM215 276h263l-126 347h-10z" />
    <glyph glyph-name="Atilde" unicode="&#xc3;" horiz-adv-x="693" 
d="M271 836q-47 0 -47 -53h-60v15q2 44 28 72.5t73 28.5q39 0 86.5 -30.5t69.5 -30.5q46 0 46 52h61v-15q-3 -43 -29 -71.5t-73 -28.5q-38 0 -85.5 30.5t-69.5 30.5zM345 838v-2h1v2h-1zM406 720l262 -705v-15h-90l-75 203h-313l-74 -203h-91v15l263 705h118zM215 276h263
l-126 347h-10z" />
    <glyph glyph-name="Adieresis" unicode="&#xc4;" horiz-adv-x="693" 
d="M179 879h120v-98h-120v98zM394 879h120v-98h-120v98zM25 0v15l263 705h118l262 -705v-15h-90l-75 203h-313l-74 -203h-91zM215 276h263l-126 347h-10z" />
    <glyph glyph-name="Aring" unicode="&#xc5;" horiz-adv-x="693" 
d="M347 750q-43 0 -71 25.5t-28 65.5t28 65.5t71 25.5q44 0 72 -25.5t28 -65.5t-28 -65.5t-72 -25.5zM347 799q19 0 31 12t12 30t-12 30t-31 12t-31 -12t-12 -30t12 -30t31 -12zM25 0v15l263 705h118l262 -705v-15h-90l-75 203h-313l-74 -203h-91zM215 276h263l-126 347h-10
z" />
    <glyph glyph-name="AE" unicode="&#xc6;" horiz-adv-x="986" 
d="M25 0v15l390 705h522v-76h-366v-237h316v-76h-316v-255h376v-76h-468v202h-248l-112 -202h-94zM268 276h211v369h-10z" />
    <glyph glyph-name="Ccedilla" unicode="&#xc7;" horiz-adv-x="759" 
d="M633 234h87v-15q-6 -36 -25 -72.5t-52 -71.5t-87 -58.5t-121 -27.5l-10 -44l24 2q39 2 66 -14.5t27 -54.5q0 -40 -34.5 -65t-89.5 -25q-74 0 -129 39v58h15q61 -45 114 -45q30 0 46 10.5t16 27.5q0 30 -45 30h-68v15l14 66q-151 8 -243.5 106.5t-92.5 264.5
q0 172 99.5 272t259.5 100q74 0 133.5 -21.5t95.5 -56.5t56 -73.5t25 -79.5v-15h-87q-3 30 -16.5 58t-38 55t-68 43t-100.5 16q-121 0 -194.5 -80t-73.5 -218t73.5 -218t194.5 -80q56 0 100.5 16.5t70 43.5t39.5 54.5t19 57.5z" />
    <glyph glyph-name="Egrave" unicode="&#xc8;" horiz-adv-x="635" 
d="M320 774l-106 111v15h106l77 -111v-15h-77zM81 720h505v-76h-413v-237h363v-76h-363v-255h423v-76h-515v720z" />
    <glyph glyph-name="Eacute" unicode="&#xc9;" horiz-adv-x="635" 
d="M345 774h-77v15l77 111h106v-15zM81 720h505v-76h-413v-237h363v-76h-363v-255h423v-76h-515v720z" />
    <glyph glyph-name="Ecircumflex" unicode="&#xca;" horiz-adv-x="635" 
d="M334 850l-98 -76h-87v18l130 108h110l129 -108v-18h-87zM173 76h423v-76h-515v720h505v-76h-413v-237h363v-76h-363v-255z" />
    <glyph glyph-name="Edieresis" unicode="&#xcb;" horiz-adv-x="635" 
d="M167 879h120v-98h-120v98zM382 879h120v-98h-120v98zM81 720h505v-76h-413v-237h363v-76h-363v-255h423v-76h-515v720z" />
    <glyph glyph-name="Igrave" unicode="&#xcc;" horiz-adv-x="255" 
d="M113 900l77 -111v-15h-77l-106 111v15h106zM81 720h92v-720h-92v720z" />
    <glyph glyph-name="Iacute" unicode="&#xcd;" horiz-adv-x="255" 
d="M138 900h106v-15l-106 -111h-77v15zM81 720h92v-720h-92v720z" />
    <glyph glyph-name="Icircumflex" unicode="&#xce;" horiz-adv-x="255" 
d="M182 900l129 -108v-18h-87l-97 76l-98 -76h-87v18l130 108h110zM81 720h92v-720h-92v720z" />
    <glyph glyph-name="Idieresis" unicode="&#xcf;" horiz-adv-x="255" 
d="M-41 781v98h120v-98h-120zM174 879h120v-98h-120v98zM81 720h92v-720h-92v720z" />
    <glyph glyph-name="Eth" unicode="&#xd0;" horiz-adv-x="791" 
d="M393 720q161 0 257.5 -97t96.5 -263t-96.5 -263t-257.5 -97h-256v343h-103v44h103v333h256zM392 76q121 0 192 75.5t71 208.5t-71 208.5t-192 75.5h-163v-257h125v-44h-125v-267h163z" />
    <glyph glyph-name="Ntilde" unicode="&#xd1;" horiz-adv-x="734" 
d="M291 836q-47 0 -47 -53h-60v15q2 44 28 72.5t73 28.5q39 0 86.5 -30.5t69.5 -30.5q46 0 46 52h61v-15q-3 -43 -29 -71.5t-73 -28.5q-38 0 -85.5 30.5t-69.5 30.5zM365 838v-2h1v2h-1zM563 720h89v-720h-112l-359 589h-10v-589h-90v720h112l360 -589h10v589z" />
    <glyph glyph-name="Ograve" unicode="&#xd2;" horiz-adv-x="810" 
d="M391 774l-106 111v15h106l77 -111v-15h-77zM45 360q0 172 99.5 272t260.5 100t261 -100t100 -272t-100 -272t-261 -100t-260.5 100t-99.5 272zM136 360q0 -139 73 -218.5t196 -79.5t196 79.5t73 218.5t-73 218.5t-196 79.5t-196 -79.5t-73 -218.5z" />
    <glyph glyph-name="Oacute" unicode="&#xd3;" horiz-adv-x="810" 
d="M416 774h-77v15l77 111h106v-15zM45 360q0 172 99.5 272t260.5 100t261 -100t100 -272t-100 -272t-261 -100t-260.5 100t-99.5 272zM136 360q0 -139 73 -218.5t196 -79.5t196 79.5t73 218.5t-73 218.5t-196 79.5t-196 -79.5t-73 -218.5z" />
    <glyph glyph-name="Ocircumflex" unicode="&#xd4;" horiz-adv-x="810" 
d="M405 850l-98 -76h-87v18l130 108h110l129 -108v-18h-87zM405 732q161 0 261 -100t100 -272t-100 -272t-261 -100t-260.5 100t-99.5 272t99.5 272t260.5 100zM405 62q123 0 196 79.5t73 218.5t-73 218.5t-196 79.5t-196 -79.5t-73 -218.5t73 -218.5t196 -79.5z" />
    <glyph glyph-name="Otilde" unicode="&#xd5;" horiz-adv-x="810" 
d="M329 836q-47 0 -47 -53h-60v15q2 44 28 72.5t73 28.5q39 0 86.5 -30.5t69.5 -30.5q46 0 46 52h61v-15q-3 -43 -29 -71.5t-73 -28.5q-38 0 -85.5 30.5t-69.5 30.5zM403 838v-2h1v2h-1zM405 732q161 0 261 -100t100 -272t-100 -272t-261 -100t-260.5 100t-99.5 272
t99.5 272t260.5 100zM405 62q123 0 196 79.5t73 218.5t-73 218.5t-196 79.5t-196 -79.5t-73 -218.5t73 -218.5t196 -79.5z" />
    <glyph glyph-name="Odieresis" unicode="&#xd6;" horiz-adv-x="810" 
d="M238 879h120v-98h-120v98zM453 879h120v-98h-120v98zM45 360q0 172 99.5 272t260.5 100t261 -100t100 -272t-100 -272t-261 -100t-260.5 100t-99.5 272zM136 360q0 -139 73 -218.5t196 -79.5t196 79.5t73 218.5t-73 218.5t-196 79.5t-196 -79.5t-73 -218.5z" />
    <glyph glyph-name="multiply" unicode="&#xd7;" horiz-adv-x="680" 
d="M574 548l-184 -183l184 -184l-50 -50l-184 184l-184 -184l-50 50l184 184l-184 183l50 50l184 -184l184 184z" />
    <glyph glyph-name="Oslash" unicode="&#xd8;" horiz-adv-x="810" 
d="M673 625q93 -101 93 -265q0 -172 -100 -272t-261 -100q-141 0 -235 77l-59 -65h-46v15l72 80q-92 102 -92 265q0 172 99.5 272t260.5 100q141 0 236 -77l58 65h46v-15zM136 360q0 -123 59 -201l391 435q-70 64 -181 64q-123 0 -196 -79.5t-73 -218.5zM405 62
q123 0 196 79.5t73 218.5q0 123 -59 201l-391 -435q70 -64 181 -64z" />
    <glyph glyph-name="Ugrave" unicode="&#xd9;" horiz-adv-x="723" 
d="M347 774l-106 111v15h106l77 -111v-15h-77zM77 720h92v-458q0 -200 193 -200q93 0 142.5 50t49.5 150v458h92v-454q0 -133 -73 -205.5t-211 -72.5t-211.5 72.5t-73.5 205.5v454z" />
    <glyph glyph-name="Uacute" unicode="&#xda;" horiz-adv-x="723" 
d="M372 774h-77v15l77 111h106v-15zM77 720h92v-458q0 -200 193 -200q93 0 142.5 50t49.5 150v458h92v-454q0 -133 -73 -205.5t-211 -72.5t-211.5 72.5t-73.5 205.5v454z" />
    <glyph glyph-name="Ucircumflex" unicode="&#xdb;" horiz-adv-x="723" 
d="M362 850l-98 -76h-87v18l130 108h110l129 -108v-18h-87zM554 720h92v-454q0 -133 -73 -205.5t-211 -72.5t-211.5 72.5t-73.5 205.5v454h92v-458q0 -200 193 -200q93 0 142.5 50t49.5 150v458z" />
    <glyph glyph-name="Udieresis" unicode="&#xdc;" horiz-adv-x="723" 
d="M194 879h120v-98h-120v98zM409 879h120v-98h-120v98zM77 720h92v-458q0 -200 193 -200q93 0 142.5 50t49.5 150v458h92v-454q0 -133 -73 -205.5t-211 -72.5t-211.5 72.5t-73.5 205.5v454z" />
    <glyph glyph-name="Yacute" unicode="&#xdd;" horiz-adv-x="685" 
d="M353 774h-77v15l77 111h106v-15zM14 720h100l224 -353h10l224 353h99v-15l-282 -431v-274h-92v274l-283 431v15z" />
    <glyph glyph-name="Thorn" unicode="&#xde;" horiz-adv-x="653" 
d="M81 720h92v-149h223q98 0 162.5 -55t64.5 -150t-64.5 -150t-162.5 -55h-223v-161h-92v720zM173 495v-258h207q69 0 110 34t41 95t-41 95t-110 34h-207z" />
    <glyph glyph-name="germandbls" unicode="&#xdf;" horiz-adv-x="642" 
d="M73 0v463q0 127 76 198t195 71q87 0 143 -40.5t56 -106.5q0 -54 -27.5 -89.5t-83.5 -72.5q-38 -24 -38 -50q0 -29 46 -52l32 -17q73 -37 96 -58q45 -40 45 -102q0 -71 -53 -113.5t-140 -42.5q-84 0 -137 38.5t-61 97.5v15h81q7 -39 37 -61.5t78 -22.5q49 0 79.5 23
t30.5 63q0 8 -1.5 15.5t-3.5 13.5t-6.5 12l-7.5 10t-10.5 10t-10.5 8.5t-12.5 8t-13 7t-14.5 7.5t-14 7l-45 25q-42 23 -62 47t-20 57t16 54.5t50 44.5q32 21 46 33t26.5 32t12.5 45q0 42 -32 63.5t-83 21.5q-81 0 -131.5 -50.5t-50.5 -146.5v-466h-88z" />
    <glyph glyph-name="agrave" unicode="&#xe0;" horiz-adv-x="569" 
d="M266 580l-105 125v15h96l81 -125v-15h-72zM56 346v15q13 72 74 116t155 44q98 0 156.5 -49t58.5 -140v-332h-85v75h-10q-53 -86 -177 -86q-83 0 -134.5 39.5t-51.5 106.5q0 68 49 105t132 45l190 18v31q0 121 -130 121q-62 0 -98.5 -28t-43.5 -81h-85zM130 139
q0 -38 30.5 -61t82.5 -23q74 0 122 43.5t48 125.5v14l-178 -17q-105 -10 -105 -82z" />
    <glyph glyph-name="aacute" unicode="&#xe1;" horiz-adv-x="569" 
d="M298 580h-72v15l81 125h96v-15zM56 346v15q13 72 74 116t155 44q98 0 156.5 -49t58.5 -140v-332h-85v75h-10q-53 -86 -177 -86q-83 0 -134.5 39.5t-51.5 106.5q0 68 49 105t132 45l190 18v31q0 121 -130 121q-62 0 -98.5 -28t-43.5 -81h-85zM130 139q0 -38 30.5 -61
t82.5 -23q74 0 122 43.5t48 125.5v14l-178 -17q-105 -10 -105 -82z" />
    <glyph glyph-name="acircumflex" unicode="&#xe2;" horiz-adv-x="569" 
d="M283 671l-85 -91h-74v15l107 125h102l108 -125v-15h-74zM285 521q98 0 156.5 -49t58.5 -140v-332h-85v75h-10q-53 -86 -177 -86q-83 0 -134.5 39.5t-51.5 106.5q0 68 49 105t132 45l190 18v31q0 121 -130 121q-62 0 -98.5 -28t-43.5 -81h-85v15q13 72 74 116t155 44z
M413 224v14l-178 -17q-105 -10 -105 -82q0 -38 30.5 -61t82.5 -23q74 0 122 43.5t48 125.5z" />
    <glyph glyph-name="atilde" unicode="&#xe3;" horiz-adv-x="569" 
d="M215 651q-44 0 -46 -57h-58v15q2 45 27 74t71 29q36 0 80 -31.5t63 -31.5q44 0 46 57h58v-15q-2 -45 -27 -74t-71 -29q-36 0 -80 31.5t-63 31.5zM285 521q98 0 156.5 -49t58.5 -140v-332h-85v75h-10q-53 -86 -177 -86q-83 0 -134.5 39.5t-51.5 106.5q0 68 49 105t132 45
l190 18v31q0 121 -130 121q-62 0 -98.5 -28t-43.5 -81h-85v15q13 72 74 116t155 44zM413 224v14l-178 -17q-105 -10 -105 -82q0 -38 30.5 -61t82.5 -23q74 0 122 43.5t48 125.5z" />
    <glyph glyph-name="adieresis" unicode="&#xe4;" horiz-adv-x="569" 
d="M127 702h112v-98h-112v98zM328 702h113v-98h-113v98zM56 346v15q13 72 74 116t155 44q98 0 156.5 -49t58.5 -140v-332h-85v75h-10q-53 -86 -177 -86q-83 0 -134.5 39.5t-51.5 106.5q0 68 49 105t132 45l190 18v31q0 121 -130 121q-62 0 -98.5 -28t-43.5 -81h-85zM130 139
q0 -38 30.5 -61t82.5 -23q74 0 122 43.5t48 125.5v14l-178 -17q-105 -10 -105 -82z" />
    <glyph glyph-name="aring" unicode="&#xe5;" horiz-adv-x="569" 
d="M284 566q-42 0 -68.5 24.5t-26.5 62.5t26.5 63t68.5 25q41 0 67.5 -25t26.5 -63t-26.5 -62.5t-67.5 -24.5zM284 614q18 0 29 11t11 28q0 18 -11 29t-29 11q-19 0 -30 -11t-11 -29q0 -17 11 -28t30 -11zM56 346v15q13 72 74 116t155 44q98 0 156.5 -49t58.5 -140v-332h-85
v75h-10q-53 -86 -177 -86q-83 0 -134.5 39.5t-51.5 106.5q0 68 49 105t132 45l190 18v31q0 121 -130 121q-62 0 -98.5 -28t-43.5 -81h-85zM130 139q0 -38 30.5 -61t82.5 -23q74 0 122 43.5t48 125.5v14l-178 -17q-105 -10 -105 -82z" />
    <glyph glyph-name="ae" unicode="&#xe6;" horiz-adv-x="956" 
d="M914 272v-38h-403q2 -80 46 -130t118 -50q66 0 102.5 34t45.5 79h84v-15q-13 -61 -71 -112.5t-161 -51.5q-145 0 -209 116h-10q-61 -116 -218 -116q-89 0 -142.5 41t-53.5 109t49 106t130 45l196 18v27q0 121 -134 121q-62 0 -98.5 -27.5t-43.5 -79.5h-85v15
q12 71 73.5 114.5t156.5 43.5q75 0 120 -27.5t63 -65.5h11q66 93 193 93q113 0 177 -69t64 -180zM511 300h316q-2 69 -42 112t-112 43q-70 0 -113 -43t-49 -112zM417 224v18l-183 -17q-104 -9 -104 -84q0 -40 31 -63.5t84 -23.5q71 0 121.5 44.5t50.5 125.5z" />
    <glyph glyph-name="ccedilla" unicode="&#xe7;" horiz-adv-x="559" 
d="M443 175h82v-15q-10 -64 -61.5 -114t-141.5 -57l-10 -44l24 2q39 2 66 -14.5t27 -54.5q0 -40 -34.5 -65t-89.5 -25q-74 0 -129 39v58h15q61 -45 114 -45q30 0 46 10.5t16 27.5q0 30 -45 30h-68v15l14 66q-103 10 -164.5 81.5t-61.5 184.5q0 121 70 193.5t185 72.5
q99 0 155 -49t68 -114v-15h-81q-7 44 -41.5 77t-99.5 33q-76 0 -122 -52.5t-46 -145.5q0 -94 46 -146.5t122 -52.5q123 0 145 119z" />
    <glyph glyph-name="egrave" unicode="&#xe8;" horiz-adv-x="577" 
d="M278 580l-105 125v15h96l81 -125v-15h-72zM42 255q0 121 68.5 193.5t183.5 72.5q113 0 177 -69t64 -180v-38h-403q2 -80 46 -130t118 -50q66 0 102.5 34t45.5 79h84v-15q-13 -61 -71 -112.5t-161 -51.5q-116 0 -185 72.5t-69 194.5zM132 300h316q-2 69 -42 112t-112 43
q-70 0 -113 -43t-49 -112z" />
    <glyph glyph-name="eacute" unicode="&#xe9;" horiz-adv-x="577" 
d="M310 580h-72v15l81 125h96v-15zM42 255q0 121 68.5 193.5t183.5 72.5q113 0 177 -69t64 -180v-38h-403q2 -80 46 -130t118 -50q66 0 102.5 34t45.5 79h84v-15q-13 -61 -71 -112.5t-161 -51.5q-116 0 -185 72.5t-69 194.5zM132 300h316q-2 69 -42 112t-112 43
q-70 0 -113 -43t-49 -112z" />
    <glyph glyph-name="ecircumflex" unicode="&#xea;" horiz-adv-x="577" 
d="M295 671l-85 -91h-74v15l107 125h102l108 -125v-15h-74zM535 272v-38h-403q2 -80 46 -130t118 -50q66 0 102.5 34t45.5 79h84v-15q-13 -61 -71 -112.5t-161 -51.5q-116 0 -185 72.5t-69 194.5q0 121 68.5 193.5t183.5 72.5q113 0 177 -69t64 -180zM132 300h316
q-2 69 -42 112t-112 43q-70 0 -113 -43t-49 -112z" />
    <glyph glyph-name="edieresis" unicode="&#xeb;" horiz-adv-x="577" 
d="M139 702h112v-98h-112v98zM340 702h113v-98h-113v98zM42 255q0 121 68.5 193.5t183.5 72.5q113 0 177 -69t64 -180v-38h-403q2 -80 46 -130t118 -50q66 0 102.5 34t45.5 79h84v-15q-13 -61 -71 -112.5t-161 -51.5q-116 0 -185 72.5t-69 194.5zM132 300h316q-2 69 -42 112
t-112 43q-70 0 -113 -43t-49 -112z" />
    <glyph glyph-name="igrave" unicode="&#xec;" horiz-adv-x="233" 
d="M91 720l81 -125v-15h-72l-105 125v15h96zM73 509h88v-509h-88v509z" />
    <glyph glyph-name="iacute" unicode="&#xed;" horiz-adv-x="233" 
d="M140 720h96v-15l-105 -125h-72v15zM73 509h88v-509h-88v509z" />
    <glyph glyph-name="icircumflex" unicode="&#xee;" horiz-adv-x="233" 
d="M167 720l108 -125v-15h-74l-84 91l-85 -91h-74v15l107 125h102zM73 509h88v-509h-88v509z" />
    <glyph glyph-name="idieresis" unicode="&#xef;" horiz-adv-x="233" 
d="M-40 605v98h112v-98h-112zM161 703h113v-98h-113v98zM73 509h88v-509h-88v509z" />
    <glyph glyph-name="eth" unicode="&#xf0;" horiz-adv-x="593" 
d="M287 696q128 -44 196.5 -154t68.5 -279q0 -128 -69 -201.5t-186 -73.5q-115 0 -185 70t-70 183q0 112 67 181.5t173 69.5q102 0 156 -61h10q-33 149 -181 204l-28 -85h-39v15l26 82q-43 12 -97 15v62h15q49 -3 102 -16l26 81h40v-15zM297 56q75 0 121 49.5t46 135.5
q0 87 -46 136.5t-121 49.5t-121 -49.5t-46 -136.5q0 -86 46 -135.5t121 -49.5z" />
    <glyph glyph-name="ntilde" unicode="&#xf1;" horiz-adv-x="599" 
d="M230 651q-44 0 -46 -57h-58v15q2 45 27 74t71 29q36 0 80 -31.5t63 -31.5q44 0 46 57h58v-15q-2 -45 -27 -74t-71 -29q-36 0 -80 31.5t-63 31.5zM339 521q87 0 139 -48t52 -135v-338h-88v329q0 62 -33.5 92.5t-90.5 30.5q-68 0 -112.5 -42.5t-44.5 -124.5v-285h-88v509
h85v-75h10q50 87 171 87z" />
    <glyph glyph-name="ograve" unicode="&#xf2;" horiz-adv-x="592" 
d="M279 580l-105 125v15h96l81 -125v-15h-72zM42 255q0 121 69.5 193.5t184.5 72.5t184.5 -72.5t69.5 -193.5t-69.5 -194t-184.5 -73t-184.5 73t-69.5 194zM130 255q0 -94 45 -146.5t121 -52.5q75 0 120 52.5t45 146.5q0 93 -45 145.5t-120 52.5t-120.5 -52.5t-45.5 -145.5z
" />
    <glyph glyph-name="oacute" unicode="&#xf3;" horiz-adv-x="592" 
d="M311 580h-72v15l81 125h96v-15zM42 255q0 121 69.5 193.5t184.5 72.5t184.5 -72.5t69.5 -193.5t-69.5 -194t-184.5 -73t-184.5 73t-69.5 194zM130 255q0 -94 45 -146.5t121 -52.5q75 0 120 52.5t45 146.5q0 93 -45 145.5t-120 52.5t-120.5 -52.5t-45.5 -145.5z" />
    <glyph glyph-name="ocircumflex" unicode="&#xf4;" horiz-adv-x="592" 
d="M296 671l-85 -91h-74v15l107 125h102l108 -125v-15h-74zM296 521q115 0 184.5 -72.5t69.5 -193.5t-69.5 -194t-184.5 -73t-184.5 73t-69.5 194t69.5 193.5t184.5 72.5zM296 56q75 0 120 52.5t45 146.5q0 93 -45 145.5t-120 52.5t-120.5 -52.5t-45.5 -145.5
q0 -94 45 -146.5t121 -52.5z" />
    <glyph glyph-name="otilde" unicode="&#xf5;" horiz-adv-x="592" 
d="M228 651q-44 0 -46 -57h-58v15q2 45 27 74t71 29q36 0 80 -31.5t63 -31.5q44 0 46 57h58v-15q-2 -45 -27 -74t-71 -29q-36 0 -80 31.5t-63 31.5zM296 521q115 0 184.5 -72.5t69.5 -193.5t-69.5 -194t-184.5 -73t-184.5 73t-69.5 194t69.5 193.5t184.5 72.5zM296 56
q75 0 120 52.5t45 146.5q0 93 -45 145.5t-120 52.5t-120.5 -52.5t-45.5 -145.5q0 -94 45 -146.5t121 -52.5z" />
    <glyph glyph-name="odieresis" unicode="&#xf6;" horiz-adv-x="592" 
d="M140 703h112v-98h-112v98zM341 703h113v-98h-113v98zM42 255q0 121 69.5 193.5t184.5 72.5t184.5 -72.5t69.5 -193.5t-69.5 -194t-184.5 -73t-184.5 73t-69.5 194zM130 255q0 -94 45 -146.5t121 -52.5q75 0 120 52.5t45 146.5q0 93 -45 145.5t-120 52.5t-120.5 -52.5
t-45.5 -145.5z" />
    <glyph glyph-name="divide" unicode="&#xf7;" horiz-adv-x="680" 
d="M282 600h116v-101h-116v101zM94 399h492v-70h-492v70zM282 229h116v-101h-116v101z" />
    <glyph glyph-name="oslash" unicode="&#xf8;" horiz-adv-x="592" 
d="M488 440q62 -71 62 -185q0 -121 -69.5 -194.5t-184.5 -73.5q-97 0 -162 53l-36 -40h-43v15l48 54q-61 74 -61 186q0 121 69.5 194t184.5 73q97 0 162 -53l35 40h43v-15zM129 255q0 -75 29 -124l249 281q-45 42 -111 42q-76 0 -121.5 -53t-45.5 -146zM296 56
q76 0 121.5 52.5t45.5 146.5q0 72 -30 123l-248 -280q42 -42 111 -42z" />
    <glyph glyph-name="ugrave" unicode="&#xf9;" horiz-adv-x="599" 
d="M281 580l-105 125v15h96l81 -125v-15h-72zM526 0h-85v75h-10q-51 -86 -171 -86q-87 0 -139 47.5t-52 134.5v338h88v-329q0 -61 33.5 -91.5t90.5 -30.5q68 0 112.5 42.5t44.5 124.5v284h88v-509z" />
    <glyph glyph-name="uacute" unicode="&#xfa;" horiz-adv-x="599" 
d="M312 580h-72v15l81 125h96v-15zM526 0h-85v75h-10q-51 -86 -171 -86q-87 0 -139 47.5t-52 134.5v338h88v-329q0 -61 33.5 -91.5t90.5 -30.5q68 0 112.5 42.5t44.5 124.5v284h88v-509z" />
    <glyph glyph-name="ucircumflex" unicode="&#xfb;" horiz-adv-x="599" 
d="M298 671l-85 -91h-74v15l107 125h102l108 -125v-15h-74zM438 509h88v-509h-85v75h-10q-51 -86 -171 -86q-87 0 -139 47.5t-52 134.5v338h88v-329q0 -61 33.5 -91.5t90.5 -30.5q68 0 112.5 42.5t44.5 124.5v284z" />
    <glyph glyph-name="udieresis" unicode="&#xfc;" horiz-adv-x="599" 
d="M141 703h112v-98h-112v98zM342 703h113v-98h-113v98zM526 0h-85v75h-10q-51 -86 -171 -86q-87 0 -139 47.5t-52 134.5v338h88v-329q0 -61 33.5 -91.5t90.5 -30.5q68 0 112.5 42.5t44.5 124.5v284h88v-509z" />
    <glyph glyph-name="yacute" unicode="&#xfd;" horiz-adv-x="541" 
d="M285 580h-72v15l81 125h96v-15zM17 509h91l158 -418h10l157 418h91v-15l-283 -694h-90v15l73 171l-207 508v15z" />
    <glyph glyph-name="thorn" unicode="&#xfe;" horiz-adv-x="614" 
d="M73 720h88v-281h10q53 82 168 82q101 0 167 -71.5t66 -194.5t-66 -194.5t-167 -71.5q-114 0 -168 81h-10v-270h-88v920zM156 255q0 -93 45.5 -145.5t118.5 -52.5q72 0 117.5 52.5t45.5 145.5q0 92 -45.5 145t-117.5 53q-73 0 -118.5 -52.5t-45.5 -145.5z" />
    <glyph glyph-name="ydieresis" unicode="&#xff;" horiz-adv-x="541" 
d="M114 703h112v-98h-112v98zM315 703h113v-98h-113v98zM17 509h91l158 -418h10l157 418h91v-15l-283 -694h-90v15l73 171l-207 508v15z" />
    <glyph glyph-name="Amacron" unicode="&#x100;" horiz-adv-x="693" 
d="M186 849h323v-64h-323v64zM25 0v15l263 705h118l262 -705v-15h-90l-75 203h-313l-74 -203h-91zM215 276h263l-126 347h-10z" />
    <glyph glyph-name="amacron" unicode="&#x101;" horiz-adv-x="569" 
d="M126 658h315v-64h-315v64zM56 346v15q13 72 74 116t155 44q98 0 156.5 -49t58.5 -140v-332h-85v75h-10q-53 -86 -177 -86q-83 0 -134.5 39.5t-51.5 106.5q0 68 49 105t132 45l190 18v31q0 121 -130 121q-62 0 -98.5 -28t-43.5 -81h-85zM130 139q0 -38 30.5 -61t82.5 -23
q74 0 122 43.5t48 125.5v14l-178 -17q-105 -10 -105 -82z" />
    <glyph glyph-name="Abreve" unicode="&#x102;" horiz-adv-x="693" 
d="M347 768q-75 0 -116 34t-48 84v14h72q2 -31 25 -51t67 -20t67 20t25 51h72v-14q-7 -50 -48 -84t-116 -34zM406 720l262 -705v-15h-90l-75 203h-313l-74 -203h-91v15l263 705h118zM215 276h263l-126 347h-10z" />
    <glyph glyph-name="abreve" unicode="&#x103;" horiz-adv-x="569" 
d="M283 574q-74 0 -116 38t-45 93v15h68q0 -37 25 -61.5t68 -24.5q42 0 67.5 24.5t25.5 61.5h67v-15q-3 -55 -44.5 -93t-115.5 -38zM285 521q98 0 156.5 -49t58.5 -140v-332h-85v75h-10q-53 -86 -177 -86q-83 0 -134.5 39.5t-51.5 106.5q0 68 49 105t132 45l190 18v31
q0 121 -130 121q-62 0 -98.5 -28t-43.5 -81h-85v15q13 72 74 116t155 44zM413 224v14l-178 -17q-105 -10 -105 -82q0 -38 30.5 -61t82.5 -23q74 0 122 43.5t48 125.5z" />
    <glyph glyph-name="Aogonek" unicode="&#x104;" horiz-adv-x="693" 
d="M662 -131h15v-62q-42 -19 -79 -19q-46 0 -76.5 26.5t-30.5 70.5q0 67 86 113l-61 170l-13 35h-313l-74 -203h-91v15l263 705h118l262 -705v-15q-111 -32 -111 -97q0 -24 14.5 -38.5t37.5 -14.5q27 0 53 19zM215 276h263l-126 347h-10z" />
    <glyph glyph-name="aogonek" unicode="&#x105;" horiz-adv-x="569" 
d="M500 0q-120 -29 -120 -97q0 -24 15 -38.5t38 -14.5q28 0 52 19h15v-62q-40 -19 -78 -19q-46 0 -76.5 26.5t-30.5 70.5q0 78 100 117v73h-10q-53 -86 -177 -86q-83 0 -134.5 39.5t-51.5 106.5q0 68 49 105t132 45l190 18v31q0 121 -130 121q-62 0 -98.5 -28t-43.5 -81h-85
v15q13 72 74 116t155 44q98 0 156.5 -49t58.5 -140v-332zM413 224v14l-178 -17q-105 -10 -105 -82q0 -38 30.5 -61t82.5 -23q74 0 122 43.5t48 125.5z" />
    <glyph glyph-name="Cacute" unicode="&#x106;" horiz-adv-x="759" 
d="M416 774h-77v15l77 111h106v-15zM45 360q0 172 99.5 272t259.5 100q74 0 133.5 -21.5t95.5 -56.5t56 -73.5t25 -79.5v-15h-87q-3 30 -16.5 58t-38 55t-68 43t-100.5 16q-121 0 -194.5 -80t-73.5 -218t73.5 -218t194.5 -80q56 0 100.5 16.5t70 43.5t39.5 54.5t19 57.5h87
v-15q-7 -39 -27.5 -77t-57 -74t-96.5 -58t-135 -22q-160 0 -259.5 100t-99.5 272z" />
    <glyph glyph-name="cacute" unicode="&#x107;" horiz-adv-x="559" 
d="M311 580h-72v15l81 125h96v-15zM42 255q0 121 70 193.5t185 72.5q99 0 155 -49t68 -114v-15h-81q-7 44 -41.5 77t-99.5 33q-76 0 -122 -52.5t-46 -145.5q0 -94 46 -146.5t122 -52.5q123 0 145 119h82v-15q-11 -69 -69 -120.5t-159 -51.5q-115 0 -185 73t-70 194z" />
    <glyph glyph-name="Cdotaccent" unicode="&#x10a;" horiz-adv-x="759" 
d="M342 879h127v-98h-127v98zM45 360q0 172 99.5 272t259.5 100q74 0 133.5 -21.5t95.5 -56.5t56 -73.5t25 -79.5v-15h-87q-3 30 -16.5 58t-38 55t-68 43t-100.5 16q-121 0 -194.5 -80t-73.5 -218t73.5 -218t194.5 -80q56 0 100.5 16.5t70 43.5t39.5 54.5t19 57.5h87v-15
q-7 -39 -27.5 -77t-57 -74t-96.5 -58t-135 -22q-160 0 -259.5 100t-99.5 272z" />
    <glyph glyph-name="cdotaccent" unicode="&#x10b;" horiz-adv-x="559" 
d="M236 703h122v-98h-122v98zM42 255q0 121 70 193.5t185 72.5q99 0 155 -49t68 -114v-15h-81q-7 44 -41.5 77t-99.5 33q-76 0 -122 -52.5t-46 -145.5q0 -94 46 -146.5t122 -52.5q123 0 145 119h82v-15q-11 -69 -69 -120.5t-159 -51.5q-115 0 -185 73t-70 194z" />
    <glyph glyph-name="Ccaron" unicode="&#x10c;" horiz-adv-x="759" 
d="M351 774l-130 108v18h87l98 -77l97 77h87v-18l-129 -108h-110zM633 234h87v-15q-7 -39 -27.5 -77t-57 -74t-96.5 -58t-135 -22q-160 0 -259.5 100t-99.5 272t99.5 272t259.5 100q74 0 133.5 -21.5t95.5 -56.5t56 -73.5t25 -79.5v-15h-87q-3 30 -16.5 58t-38 55t-68 43
t-100.5 16q-121 0 -194.5 -80t-73.5 -218t73.5 -218t194.5 -80q56 0 100.5 16.5t70 43.5t39.5 54.5t19 57.5z" />
    <glyph glyph-name="ccaron" unicode="&#x10d;" horiz-adv-x="559" 
d="M245 580l-107 125v15h74l85 -90l84 90h74v-15l-108 -125h-102zM443 175h82v-15q-11 -69 -69 -120.5t-159 -51.5q-115 0 -185 73t-70 194t70 193.5t185 72.5q99 0 155 -49t68 -114v-15h-81q-7 44 -41.5 77t-99.5 33q-76 0 -122 -52.5t-46 -145.5q0 -94 46 -146.5
t122 -52.5q123 0 145 119z" />
    <glyph glyph-name="Dcaron" unicode="&#x10e;" horiz-adv-x="735" 
d="M285 774l-130 108v18h87l98 -77l97 77h87v-18l-129 -108h-110zM337 720q161 0 257.5 -97t96.5 -263t-96.5 -263t-257.5 -97h-256v720h256zM336 76q121 0 192 75.5t71 208.5t-71 208.5t-192 75.5h-163v-568h163z" />
    <glyph glyph-name="dcaron" unicode="&#x10f;" horiz-adv-x="707" 
d="M541 0h-86v72h-10q-55 -83 -170 -83q-102 0 -167.5 71.5t-65.5 194.5t65.5 194.5t167.5 71.5q115 0 168 -82h10v281h88v-720zM671 534h-56v15l13 171h82v-15zM457 255q0 93 -45 145.5t-118 52.5t-118.5 -52.5t-45.5 -145.5t45.5 -145.5t118.5 -52.5t118 52.5t45 145.5z
" />
    <glyph glyph-name="Dcroat" unicode="&#x110;" horiz-adv-x="791" 
d="M393 720q161 0 257.5 -97t96.5 -263t-96.5 -263t-257.5 -97h-256v343h-103v44h103v333h256zM392 76q121 0 192 75.5t71 208.5t-71 208.5t-192 75.5h-163v-257h125v-44h-125v-267h163z" />
    <glyph glyph-name="dcroat" unicode="&#x111;" horiz-adv-x="666" 
d="M641 638v-43h-100v-595h-86v72h-10q-55 -83 -170 -83q-102 0 -167.5 71.5t-65.5 194.5t65.5 194.5t167.5 71.5q115 0 168 -82h10v156h-121v43h121v82h88v-82h100zM294 57q73 0 118 52.5t45 145.5t-45 145.5t-118 52.5t-118.5 -52.5t-45.5 -145.5t45.5 -145.5t118.5 -52.5
z" />
    <glyph glyph-name="Emacron" unicode="&#x112;" horiz-adv-x="635" 
d="M173 849h323v-64h-323v64zM81 720h505v-76h-413v-237h363v-76h-363v-255h423v-76h-515v720z" />
    <glyph glyph-name="emacron" unicode="&#x113;" horiz-adv-x="577" 
d="M138 658h315v-64h-315v64zM42 255q0 121 68.5 193.5t183.5 72.5q113 0 177 -69t64 -180v-38h-403q2 -80 46 -130t118 -50q66 0 102.5 34t45.5 79h84v-15q-13 -61 -71 -112.5t-161 -51.5q-116 0 -185 72.5t-69 194.5zM132 300h316q-2 69 -42 112t-112 43q-70 0 -113 -43
t-49 -112z" />
    <glyph glyph-name="Edotaccent" unicode="&#x116;" horiz-adv-x="635" 
d="M270 879h127v-98h-127v98zM81 720h505v-76h-413v-237h363v-76h-363v-255h423v-76h-515v720z" />
    <glyph glyph-name="edotaccent" unicode="&#x117;" horiz-adv-x="577" 
d="M234 702h122v-98h-122v98zM42 255q0 121 68.5 193.5t183.5 72.5q113 0 177 -69t64 -180v-38h-403q2 -80 46 -130t118 -50q66 0 102.5 34t45.5 79h84v-15q-13 -61 -71 -112.5t-161 -51.5q-116 0 -185 72.5t-69 194.5zM132 300h316q-2 69 -42 112t-112 43q-70 0 -113 -43
t-49 -112z" />
    <glyph glyph-name="Eogonek" unicode="&#x118;" horiz-adv-x="635" 
d="M596 0q-120 -31 -120 -97q0 -24 15 -38.5t38 -14.5q26 0 52 19h15v-62q-40 -19 -79 -19q-46 0 -76.5 27t-30.5 70q0 27 14 50t27 33t33 22v10h-403v720h505v-76h-413v-237h363v-76h-363v-255h423v-76z" />
    <glyph glyph-name="eogonek" unicode="&#x119;" horiz-adv-x="577" 
d="M535 272v-38h-403q2 -80 46 -130t118 -50q66 0 102.5 34t45.5 79h84v-15q-9 -40 -38 -79t-79 -62q-59 -32 -82 -55.5t-23 -52.5q0 -24 14.5 -38.5t37.5 -14.5q27 0 53 19h15v-62q-40 -19 -79 -19q-46 0 -76.5 26.5t-30.5 70.5q0 58 56 92v11q-116 0 -185 72.5t-69 194.5
q0 121 68.5 193.5t183.5 72.5q113 0 177 -69t64 -180zM132 300h316q-2 69 -42 112t-112 43q-70 0 -113 -43t-49 -112z" />
    <glyph glyph-name="Ecaron" unicode="&#x11a;" horiz-adv-x="635" 
d="M279 774l-130 108v18h87l98 -77l97 77h87v-18l-129 -108h-110zM173 76h423v-76h-515v720h505v-76h-413v-237h363v-76h-363v-255z" />
    <glyph glyph-name="ecaron" unicode="&#x11b;" horiz-adv-x="577" 
d="M243 580l-107 125v15h74l85 -90l84 90h74v-15l-108 -125h-102zM535 272v-38h-403q2 -80 46 -130t118 -50q66 0 102.5 34t45.5 79h84v-15q-13 -61 -71 -112.5t-161 -51.5q-116 0 -185 72.5t-69 194.5q0 121 68.5 193.5t183.5 72.5q113 0 177 -69t64 -180zM132 300h316
q-2 69 -42 112t-112 43q-70 0 -113 -43t-49 -112z" />
    <glyph glyph-name="Gbreve" unicode="&#x11e;" horiz-adv-x="779" 
d="M408 768q-75 0 -116 34t-48 84v14h72q2 -31 25 -51t67 -20t67 20t25 51h72v-14q-7 -50 -48 -84t-116 -34zM408 658q-124 0 -198 -80.5t-74 -218.5t73 -217.5t196 -79.5q110 0 166.5 61.5t58.5 151.5h-247v71h331v-346h-64l-20 93h-10q-76 -104 -225 -104
q-153 0 -251.5 99.5t-98.5 270.5q0 173 100.5 273t262.5 100q74 0 133 -21.5t96 -56.5t58 -76t27 -85v-15h-87q-3 32 -16.5 61.5t-39 57t-70 44.5t-101.5 17z" />
    <glyph glyph-name="gbreve" unicode="&#x11f;" horiz-adv-x="606" 
d="M301 574q-74 0 -116 38t-45 93v15h68q0 -37 25 -61.5t68 -24.5q42 0 67.5 24.5t25.5 61.5h67v-15q-3 -55 -44.5 -93t-115.5 -38zM472 509h62v-480q0 -112 -63 -176t-182 -64q-106 0 -165.5 46.5t-75.5 113.5v15h81q26 -109 158 -109q80 0 119.5 44.5t39.5 125.5v58h-10
q-56 -77 -164 -77q-99 0 -164.5 70t-65.5 187q0 118 66.5 188t165.5 70q112 0 168 -83h10zM290 74q71 0 115.5 50t44.5 139t-44.5 139.5t-115.5 50.5t-115.5 -50.5t-44.5 -139.5t44.5 -139t115.5 -50z" />
    <glyph glyph-name="Gdotaccent" unicode="&#x120;" horiz-adv-x="779" 
d="M345 879h127v-98h-127v98zM45 359q0 173 100.5 273t262.5 100q74 0 133 -21.5t96 -56.5t58 -76t27 -85v-15h-87q-3 32 -16.5 61.5t-39 57t-70 44.5t-101.5 17q-124 0 -198 -80.5t-74 -218.5t73 -217.5t196 -79.5q110 0 166.5 61.5t58.5 151.5h-247v71h331v-346h-64
l-20 93h-10q-76 -104 -225 -104q-153 0 -251.5 99.5t-98.5 270.5z" />
    <glyph glyph-name="gdotaccent" unicode="&#x121;" horiz-adv-x="606" 
d="M239 703h122v-98h-122v98zM42 263q0 118 66.5 188t165.5 70q112 0 168 -83h10l20 71h62v-480q0 -112 -63 -176t-182 -64q-106 0 -165.5 46.5t-75.5 113.5v15h81q26 -109 158 -109q80 0 119.5 44.5t39.5 125.5v58h-10q-56 -77 -164 -77q-99 0 -164.5 70t-65.5 187z
M130 263q0 -89 44.5 -139t115.5 -50t115.5 50t44.5 139t-44.5 139.5t-115.5 50.5t-115.5 -50.5t-44.5 -139.5z" />
    <glyph glyph-name="uni0122" unicode="&#x122;" horiz-adv-x="779" 
d="M408 658q-124 0 -198 -80.5t-74 -218.5t73 -217.5t196 -79.5q110 0 166.5 61.5t58.5 151.5h-247v71h331v-346h-64l-20 93h-10q-76 -104 -225 -104q-153 0 -251.5 99.5t-98.5 270.5q0 173 100.5 273t262.5 100q74 0 133 -21.5t96 -56.5t58 -76t27 -85v-15h-87
q-3 32 -16.5 61.5t-39 57t-70 44.5t-101.5 17zM344 -146v93h125v-101q0 -53 -29.5 -80.5t-80.5 -27.5h-27v53h25q53 0 53 55v8h-66z" />
    <glyph glyph-name="uni0123" unicode="&#x123;" horiz-adv-x="606" 
d="M363 687v-93h-125v102q0 53 29.5 80t80.5 27h27v-52h-25q-53 0 -53 -55v-9h66zM472 509h62v-480q0 -112 -63 -176t-182 -64q-106 0 -165.5 46.5t-75.5 113.5v15h81q26 -109 158 -109q80 0 119.5 44.5t39.5 125.5v58h-10q-56 -77 -164 -77q-99 0 -164.5 70t-65.5 187
q0 118 66.5 188t165.5 70q112 0 168 -83h10zM290 74q71 0 115.5 50t44.5 139t-44.5 139.5t-115.5 50.5t-115.5 -50.5t-44.5 -139.5t44.5 -139t115.5 -50z" />
    <glyph glyph-name="Hbar" unicode="&#x126;" horiz-adv-x="830" 
d="M796 585v-45h-103v-540h-92v326h-372v-326h-92v540h-103v45h103v135h92v-135h372v135h92v-135h103zM601 402v138h-372v-138h372z" />
    <glyph glyph-name="hbar" unicode="&#x127;" horiz-adv-x="651" 
d="M391 521q87 0 139.5 -47.5t52.5 -134.5v-339h-88v330q0 62 -33.5 92.5t-91.5 30.5q-67 0 -112 -43t-45 -125v-285h-88v595h-100v43h100v82h88v-82h121v-43h-121v-157h10q52 83 168 83z" />
    <glyph glyph-name="Itilde" unicode="&#x128;" horiz-adv-x="255" 
d="M247 890h61v-15q-3 -43 -29 -71.5t-73 -28.5q-38 0 -85.5 30.5t-69.5 30.5q-47 0 -47 -53h-60v15q2 44 28 72.5t73 28.5q39 0 86.5 -30.5t69.5 -30.5q46 0 46 52zM126 836v2h-1v-2h1zM81 720h92v-720h-92v720z" />
    <glyph glyph-name="itilde" unicode="&#x129;" horiz-adv-x="233" 
d="M231 706h58v-15q-2 -45 -27 -74t-71 -29q-36 0 -80 31.5t-63 31.5q-44 0 -46 -57h-58v15q2 45 27 74t71 29q36 0 80 -31.5t63 -31.5q44 0 46 57zM73 509h88v-509h-88v509z" />
    <glyph glyph-name="Imacron" unicode="&#x12a;" horiz-adv-x="255" 
d="M-34 849h323v-64h-323v64zM81 720h92v-720h-92v720z" />
    <glyph glyph-name="imacron" unicode="&#x12b;" horiz-adv-x="233" 
d="M-41 658h315v-64h-315v64zM73 509h88v-509h-88v509z" />
    <glyph glyph-name="Iogonek" unicode="&#x12e;" horiz-adv-x="249" 
d="M189 -131h15v-62q-40 -19 -79 -19q-46 0 -76.5 27t-30.5 70q0 25 13.5 48t22.5 31t27 23v733h92v-720q-89 -37 -89 -97q0 -24 15 -38.5t38 -14.5q26 0 52 19z" />
    <glyph glyph-name="iogonek" unicode="&#x12f;" horiz-adv-x="233" 
d="M178 703v-98h-122v98h122zM178 -131h15v-62q-42 -19 -79 -19q-46 0 -76.5 26.5t-30.5 70.5q0 58 66 103v521h88v-509q-88 -38 -88 -97q0 -24 14.5 -38.5t37.5 -14.5q27 0 53 19z" />
    <glyph glyph-name="Idotaccent" unicode="&#x130;" horiz-adv-x="255" 
d="M63 879h127v-98h-127v98zM81 720h92v-720h-92v720z" />
    <glyph glyph-name="dotlessi" unicode="&#x131;" horiz-adv-x="233" 
d="M73 509h88v-509h-88v509z" />
    <glyph glyph-name="IJ" unicode="&#x132;" horiz-adv-x="619" 
d="M77 720h92v-380h-92v380zM450 720h92v-507q0 -108 -58 -166.5t-174 -58.5q-115 0 -174 57.5t-59 158.5h92q0 -67 35.5 -104.5t105.5 -37.5q140 0 140 150v508z" />
    <glyph glyph-name="ij" unicode="&#x133;" horiz-adv-x="468" 
d="M178 703v-98h-122v98h122zM284 703h122v-98h-122v98zM73 509h88v-509h-88v509zM308 509h88v-585q0 -61 -34 -92.5t-97 -31.5h-87v68h122l8 8v633z" />
    <glyph glyph-name="uni0136" unicode="&#x136;" horiz-adv-x="715" 
d="M393 444l298 -429v-15h-99l-264 385l-155 -139v-246h-92v720h92v-354h10l390 354h111v-15zM309 -146v93h125v-101q0 -53 -29.5 -80.5t-80.5 -27.5h-27v53h25q53 0 53 55v8h-66z" />
    <glyph glyph-name="uni0137" unicode="&#x137;" horiz-adv-x="581" 
d="M331 314l227 -299v-15h-93l-196 263l-108 -89v-174h-88v720h88v-438h10l271 227h108v-15zM236 -146v93h125v-101q0 -53 -29.5 -80.5t-80.5 -27.5h-27v53h25q53 0 53 55v8h-66z" />
    <glyph glyph-name="Lacute" unicode="&#x139;" horiz-adv-x="586" 
d="M138 774h-77v15l77 111h106v-15zM81 720h92v-644h390v-76h-482v720z" />
    <glyph glyph-name="lacute" unicode="&#x13a;" horiz-adv-x="233" 
d="M127 900h106v-15l-106 -111h-77v15zM73 720h88v-720h-88v720z" />
    <glyph glyph-name="uni013B" unicode="&#x13b;" horiz-adv-x="586" 
d="M173 76h390v-76h-482v720h92v-644zM260 -146v93h125v-101q0 -53 -29.5 -80.5t-80.5 -27.5h-27v53h25q53 0 53 55v8h-66z" />
    <glyph glyph-name="uni013C" unicode="&#x13c;" horiz-adv-x="233" 
d="M161 0h-88v720h88v-720zM54 -53h125v-101q0 -53 -29.5 -80.5t-80.5 -27.5h-27v53h25q53 0 53 55v8h-66v93z" />
    <glyph glyph-name="Lcaron" unicode="&#x13d;" horiz-adv-x="586" 
d="M81 720h92v-644h390v-76h-482v720zM308 534h-61v15l14 171h84v-15z" />
    <glyph glyph-name="lcaron" unicode="&#x13e;" horiz-adv-x="330" 
d="M73 720h88v-720h-88v720zM248 720h85v-15l-38 -171h-61v15z" />
    <glyph glyph-name="Ldot" unicode="&#x13f;" horiz-adv-x="586" 
d="M81 720h92v-644h390v-76h-482v720zM354 439h119v-107h-119v107z" />
    <glyph glyph-name="ldot" unicode="&#x140;" horiz-adv-x="385" 
d="M73 720h88v-720h-88v720zM253 317h112v-105h-112v105z" />
    <glyph glyph-name="Lslash" unicode="&#x141;" horiz-adv-x="642" 
d="M229 76h390v-76h-482v309l-88 -38h-15v57l103 44v348h92v-308l113 48h15v-57l-128 -55v-272z" />
    <glyph glyph-name="lslash" unicode="&#x142;" horiz-adv-x="376" 
d="M346 452v-56l-121 -55v-341h-88v301l-88 -40h-15v56l103 47v356h88v-316l106 48h15z" />
    <glyph glyph-name="Nacute" unicode="&#x143;" horiz-adv-x="734" 
d="M378 774h-77v15l77 111h106v-15zM81 720h112l360 -589h10v589h89v-720h-112l-359 589h-10v-589h-90v720z" />
    <glyph glyph-name="nacute" unicode="&#x144;" horiz-adv-x="599" 
d="M313 580h-72v15l81 125h96v-15zM73 509h85v-75h10q50 87 171 87q87 0 139 -48t52 -135v-338h-88v329q0 62 -33.5 92.5t-90.5 30.5q-68 0 -112.5 -42.5t-44.5 -124.5v-285h-88v509z" />
    <glyph glyph-name="uni0145" unicode="&#x145;" horiz-adv-x="734" 
d="M563 720h89v-720h-112l-359 589h-10v-589h-90v720h112l360 -589h10v589zM314 -146v93h125v-101q0 -53 -29.5 -80.5t-80.5 -27.5h-27v53h25q53 0 53 55v8h-66z" />
    <glyph glyph-name="uni0146" unicode="&#x146;" horiz-adv-x="599" 
d="M339 521q87 0 139 -48t52 -135v-338h-88v329q0 62 -33.5 92.5t-90.5 30.5q-68 0 -112.5 -42.5t-44.5 -124.5v-285h-88v509h85v-75h10q50 87 171 87zM239 -146v93h125v-101q0 -53 -29.5 -80.5t-80.5 -27.5h-27v53h25q53 0 53 55v8h-66z" />
    <glyph glyph-name="Ncaron" unicode="&#x147;" horiz-adv-x="734" 
d="M312 774l-130 108v18h87l98 -77l97 77h87v-18l-129 -108h-110zM563 720h89v-720h-112l-359 589h-10v-589h-90v720h112l360 -589h10v589z" />
    <glyph glyph-name="ncaron" unicode="&#x148;" horiz-adv-x="599" 
d="M247 580l-107 125v15h74l85 -90l84 90h74v-15l-108 -125h-102zM339 521q87 0 139 -48t52 -135v-338h-88v329q0 62 -33.5 92.5t-90.5 30.5q-68 0 -112.5 -42.5t-44.5 -124.5v-285h-88v509h85v-75h10q50 87 171 87z" />
    <glyph glyph-name="Eng" unicode="&#x14a;" horiz-adv-x="734" 
d="M563 720h89v-796q0 -61 -34 -92.5t-97 -31.5h-84v66h119l8 8v126h-24l-359 589h-10v-589h-90v720h112l360 -589h10v589z" />
    <glyph glyph-name="eng" unicode="&#x14b;" horiz-adv-x="599" 
d="M73 0v509h85v-75h10q50 87 171 87q87 0 139 -48t52 -135v-414q0 -61 -34 -92.5t-97 -31.5h-84v66h119l8 8v455q0 62 -33.5 92.5t-90.5 30.5q-68 0 -112.5 -42.5t-44.5 -124.5v-285h-88z" />
    <glyph glyph-name="Omacron" unicode="&#x14c;" horiz-adv-x="810" 
d="M244 849h323v-64h-323v64zM45 360q0 172 99.5 272t260.5 100t261 -100t100 -272t-100 -272t-261 -100t-260.5 100t-99.5 272zM136 360q0 -139 73 -218.5t196 -79.5t196 79.5t73 218.5t-73 218.5t-196 79.5t-196 -79.5t-73 -218.5z" />
    <glyph glyph-name="omacron" unicode="&#x14d;" horiz-adv-x="592" 
d="M138 658h315v-64h-315v64zM42 255q0 121 69.5 193.5t184.5 72.5t184.5 -72.5t69.5 -193.5t-69.5 -194t-184.5 -73t-184.5 73t-69.5 194zM130 255q0 -94 45 -146.5t121 -52.5q75 0 120 52.5t45 146.5q0 93 -45 145.5t-120 52.5t-120.5 -52.5t-45.5 -145.5z" />
    <glyph glyph-name="Ohungarumlaut" unicode="&#x150;" horiz-adv-x="810" 
d="M325 774h-64v15l55 111h91v-15zM500 774h-70v15l69 111h98v-15zM45 360q0 172 99.5 272t260.5 100t261 -100t100 -272t-100 -272t-261 -100t-260.5 100t-99.5 272zM136 360q0 -139 73 -218.5t196 -79.5t196 79.5t73 218.5t-73 218.5t-196 79.5t-196 -79.5t-73 -218.5z
" />
    <glyph glyph-name="ohungarumlaut" unicode="&#x151;" horiz-adv-x="592" 
d="M227 580h-63v15l55 125h91v-15zM391 580h-67v15l75 125h93v-15zM42 255q0 121 69.5 193.5t184.5 72.5t184.5 -72.5t69.5 -193.5t-69.5 -194t-184.5 -73t-184.5 73t-69.5 194zM130 255q0 -94 45 -146.5t121 -52.5q75 0 120 52.5t45 146.5q0 93 -45 145.5t-120 52.5
t-120.5 -52.5t-45.5 -145.5z" />
    <glyph glyph-name="OE" unicode="&#x152;" horiz-adv-x="973" 
d="M45 360q0 170 112.5 265t298.5 95h468v-76h-366v-237h316v-76h-316v-255h376v-76h-478q-186 0 -298.5 95t-112.5 265zM136 360q0 -132 87.5 -208t243.5 -76v568q-156 0 -243.5 -76t-87.5 -208z" />
    <glyph glyph-name="oe" unicode="&#x153;" horiz-adv-x="1003" 
d="M961 272v-38h-403q2 -80 46 -130t118 -50q66 0 102.5 34t45.5 79h84v-15q-13 -61 -71 -112.5t-161 -51.5q-143 0 -210 111h-10q-67 -111 -208 -111q-114 0 -183 73t-69 194t69 193.5t183 72.5q141 0 208 -111h10q67 111 208 111q113 0 177 -69t64 -180zM558 300h316
q-2 69 -42 112t-112 43q-70 0 -113 -43t-49 -112zM295 56q75 0 120 52.5t45 146.5q0 93 -45 145.5t-120 52.5t-120 -52.5t-45 -145.5q0 -94 45 -146.5t120 -52.5z" />
    <glyph glyph-name="Racute" unicode="&#x154;" horiz-adv-x="682" 
d="M449 885l-106 -111h-77v15l77 111h106v-15zM643 512q0 -87 -54.5 -142t-139.5 -64l185 -291v-15h-97l-190 304h-174v-304h-92v720h337q96 0 160.5 -56.5t64.5 -151.5zM173 644v-264h229q67 0 108 34.5t41 97.5t-41 97.5t-108 34.5h-229z" />
    <glyph glyph-name="racute" unicode="&#x155;" horiz-adv-x="369" 
d="M219 580h-72v15l81 125h96v-15zM73 509h85v-69h10q34 71 125 71h52v-70h-51q-70 0 -101.5 -39.5t-31.5 -119.5v-282h-88v509z" />
    <glyph glyph-name="uni0156" unicode="&#x156;" horiz-adv-x="682" 
d="M643 512q0 -87 -54.5 -142t-139.5 -64l185 -291v-15h-97l-190 304h-174v-304h-92v720h337q96 0 160.5 -56.5t64.5 -151.5zM173 644v-264h229q67 0 108 34.5t41 97.5t-41 97.5t-108 34.5h-229zM281 -146v93h125v-101q0 -53 -29.5 -80.5t-80.5 -27.5h-27v53h25q53 0 53 55
v8h-66z" />
    <glyph glyph-name="uni0157" unicode="&#x157;" horiz-adv-x="369" 
d="M293 511h52v-70h-51q-70 0 -101.5 -39.5t-31.5 -119.5v-282h-88v509h85v-69h10q34 71 125 71zM54 -146v93h125v-101q0 -53 -29.5 -80.5t-80.5 -27.5h-27v53h25q53 0 53 55v8h-66z" />
    <glyph glyph-name="Rcaron" unicode="&#x158;" horiz-adv-x="682" 
d="M277 774l-130 108v18h87l98 -77l97 77h87v-18l-129 -108h-110zM643 512q0 -87 -54.5 -142t-139.5 -64l185 -291v-15h-97l-190 304h-174v-304h-92v720h337q96 0 160.5 -56.5t64.5 -151.5zM173 644v-264h229q67 0 108 34.5t41 97.5t-41 97.5t-108 34.5h-229z" />
    <glyph glyph-name="rcaron" unicode="&#x159;" horiz-adv-x="369" 
d="M288 720h74v-15l-108 -125h-102l-107 125v15h74l85 -90zM168 440q34 71 125 71h52v-70h-51q-70 0 -101.5 -39.5t-31.5 -119.5v-282h-88v509h85v-69h10z" />
    <glyph glyph-name="Sacute" unicode="&#x15a;" horiz-adv-x="667" 
d="M347 774h-77v15l77 111h106v-15zM61 535q0 88 74.5 142t200.5 54t202.5 -57t85.5 -157v-15h-88q-4 80 -58.5 118.5t-140.5 38.5q-83 0 -133.5 -32.5t-50.5 -89.5q0 -52 39 -77.5t122 -44.5l75 -17q117 -27 174.5 -71t57.5 -131q0 -95 -74.5 -151t-204.5 -56
q-131 0 -213 59t-96 165v15h88q10 -87 69.5 -127t150.5 -40q86 0 137 33.5t51 95.5q0 58 -40.5 83.5t-127.5 45.5l-75 17q-111 25 -168 71t-57 128z" />
    <glyph glyph-name="sacute" unicode="&#x15b;" horiz-adv-x="525" 
d="M278 580h-72v15l81 125h96v-15zM52 373q0 68 57 108t155 40q97 0 154 -39.5t67 -109.5v-15h-82q-7 98 -139 98q-59 0 -93 -20.5t-34 -57.5q0 -34 24.5 -51t71.5 -25l83 -15q84 -15 128.5 -47.5t44.5 -96.5q0 -69 -56.5 -111.5t-159.5 -42.5t-165.5 43.5t-73.5 119.5v15
h83q13 -112 155 -112q63 0 97.5 22.5t34.5 60.5q0 34 -26.5 50.5t-81.5 26.5l-83 15q-161 29 -161 144z" />
    <glyph glyph-name="Scedilla" unicode="&#x15e;" horiz-adv-x="667" 
d="M337 659q-83 0 -133.5 -32.5t-50.5 -89.5q0 -52 39 -77.5t122 -44.5l75 -17q117 -27 174.5 -71t57.5 -131q0 -90 -67.5 -145.5t-186.5 -60.5l-10 -45l24 2q39 2 66 -14.5t27 -54.5q0 -40 -34.5 -65t-89.5 -25q-74 0 -129 39v58h15q61 -45 114 -45q30 0 46 10.5t16 27.5
q0 30 -45 30h-68v15l14 67q-119 7 -193 65t-87 158v15h88q10 -87 69.5 -127t150.5 -40q86 0 137 33.5t51 95.5q0 58 -40.5 83.5t-127.5 45.5l-75 17q-111 25 -168 71t-57 128q0 88 74.5 142t200.5 54t202.5 -57t85.5 -157v-15h-88q-4 80 -58.5 118.5t-140.5 38.5z" />
    <glyph glyph-name="scedilla" unicode="&#x15f;" horiz-adv-x="525" 
d="M489 142q0 -65 -50 -106.5t-141 -46.5l-10 -44l24 2q39 2 66 -14.5t27 -54.5q0 -40 -34.5 -65t-89.5 -25q-74 0 -129 39v58h15q61 -45 114 -45q30 0 46 10.5t16 27.5q0 30 -45 30h-68v15l14 66q-91 6 -145 49t-65 113v15h83q13 -112 155 -112q63 0 97.5 22.5t34.5 60.5
q0 34 -26.5 50.5t-81.5 26.5l-83 15q-161 29 -161 144q0 68 57 108t155 40q97 0 154 -39.5t67 -109.5v-15h-82q-7 98 -139 98q-59 0 -93 -20.5t-34 -57.5q0 -34 24.5 -51t71.5 -25l83 -15q84 -15 128.5 -47.5t44.5 -96.5z" />
    <glyph glyph-name="Scaron" unicode="&#x160;" horiz-adv-x="667" 
d="M281 774l-130 108v18h87l98 -77l97 77h87v-18l-129 -108h-110zM337 659q-83 0 -133.5 -32.5t-50.5 -89.5q0 -52 39 -77.5t122 -44.5l75 -17q117 -27 174.5 -71t57.5 -131q0 -95 -74.5 -151t-204.5 -56q-131 0 -213 59t-96 165v15h88q10 -87 69.5 -127t150.5 -40
q86 0 137 33.5t51 95.5q0 58 -40.5 83.5t-127.5 45.5l-75 17q-111 25 -168 71t-57 128q0 88 74.5 142t200.5 54t202.5 -57t85.5 -157v-15h-88q-4 80 -58.5 118.5t-140.5 38.5z" />
    <glyph glyph-name="scaron" unicode="&#x161;" horiz-adv-x="525" 
d="M211 580l-107 125v15h74l85 -90l84 90h74v-15l-108 -125h-102zM316 286q84 -15 128.5 -47.5t44.5 -96.5q0 -69 -56.5 -111.5t-159.5 -42.5t-165.5 43.5t-73.5 119.5v15h83q13 -112 155 -112q63 0 97.5 22.5t34.5 60.5q0 34 -26.5 50.5t-81.5 26.5l-83 15
q-161 29 -161 144q0 68 57 108t155 40q97 0 154 -39.5t67 -109.5v-15h-82q-7 98 -139 98q-59 0 -93 -20.5t-34 -57.5q0 -34 24.5 -51t71.5 -25z" />
    <glyph glyph-name="uni0162" unicode="&#x162;" horiz-adv-x="647" 
d="M369 0h-19l-12 -55l24 2q39 2 66 -14.5t27 -54.5q0 -40 -34.5 -65t-89.5 -25q-74 0 -129 39v58h15q61 -45 114 -45q30 0 46 10.5t16 27.5q0 30 -45 30h-68v15l16 77h-18v644h-261v76h613v-76h-261v-644z" />
    <glyph glyph-name="uni0163" unicode="&#x163;" horiz-adv-x="392" 
d="M278 -53q39 2 66 -14.5t27 -54.5q0 -40 -34.5 -65t-88.5 -25q-69 0 -130 37v60h15q61 -45 114 -45q30 0 46 10.5t16 27.5q0 30 -45 30h-68v15l18 83q-80 23 -80 119v318h-119v66h119v102l73 55h15v-157h135v-66h-135v-367l8 -8h136v-68h-99l-12 -55z" />
    <glyph glyph-name="Tcaron" unicode="&#x164;" horiz-adv-x="647" 
d="M268 774l-130 108v18h87l98 -77l97 77h87v-18l-129 -108h-110zM17 720h613v-76h-261v-644h-91v644h-261v76z" />
    <glyph glyph-name="tcaron" unicode="&#x165;" horiz-adv-x="392" 
d="M356 597h-61v15l14 160h85v-15zM15 509h119v102l73 55h15v-157h135v-66h-135v-367l8 -8h136v-68h-101q-64 0 -97.5 31.5t-33.5 93.5v318h-119v66z" />
    <glyph glyph-name="Tbar" unicode="&#x166;" horiz-adv-x="636" 
d="M619 644h-255v-267h131v-44h-131v-333h-92v333h-128v44h128v267h-255v76h602v-76z" />
    <glyph glyph-name="tbar" unicode="&#x167;" horiz-adv-x="392" 
d="M230 68h136v-68h-101q-64 0 -97.5 31.5t-33.5 93.5v115h-119v42h119v161h-119v66h119v102l73 55h15v-157h135v-66h-135v-161h135v-42h-135v-164z" />
    <glyph glyph-name="Utilde" unicode="&#x168;" horiz-adv-x="723" 
d="M286 836q-47 0 -47 -53h-60v15q2 44 28 72.5t73 28.5q39 0 86.5 -30.5t69.5 -30.5q46 0 46 52h61v-15q-3 -43 -29 -71.5t-73 -28.5q-38 0 -85.5 30.5t-69.5 30.5zM360 838v-2h1v2h-1zM554 720h92v-454q0 -133 -73 -205.5t-211 -72.5t-211.5 72.5t-73.5 205.5v454h92v-458
q0 -200 193 -200q93 0 142.5 50t49.5 150v458z" />
    <glyph glyph-name="utilde" unicode="&#x169;" horiz-adv-x="599" 
d="M229 651q-44 0 -46 -57h-58v15q2 45 27 74t71 29q36 0 80 -31.5t63 -31.5q44 0 46 57h58v-15q-2 -45 -27 -74t-71 -29q-36 0 -80 31.5t-63 31.5zM438 509h88v-509h-85v75h-10q-51 -86 -171 -86q-87 0 -139 47.5t-52 134.5v338h88v-329q0 -61 33.5 -91.5t90.5 -30.5
q68 0 112.5 42.5t44.5 124.5v284z" />
    <glyph glyph-name="Umacron" unicode="&#x16a;" horiz-adv-x="723" 
d="M200 849h323v-64h-323v64zM77 720h92v-458q0 -200 193 -200q93 0 142.5 50t49.5 150v458h92v-454q0 -133 -73 -205.5t-211 -72.5t-211.5 72.5t-73.5 205.5v454z" />
    <glyph glyph-name="umacron" unicode="&#x16b;" horiz-adv-x="599" 
d="M140 658h315v-64h-315v64zM526 0h-85v75h-10q-51 -86 -171 -86q-87 0 -139 47.5t-52 134.5v338h88v-329q0 -61 33.5 -91.5t90.5 -30.5q68 0 112.5 42.5t44.5 124.5v284h88v-509z" />
    <glyph glyph-name="Uring" unicode="&#x16e;" horiz-adv-x="723" 
d="M362 750q-43 0 -71 25.5t-28 65.5t28 65.5t71 25.5q44 0 72 -25.5t28 -65.5t-28 -65.5t-72 -25.5zM362 799q19 0 31 12t12 30t-12 30t-31 12t-31 -12t-12 -30t12 -30t31 -12zM77 720h92v-458q0 -200 193 -200q93 0 142.5 50t49.5 150v458h92v-454q0 -133 -73 -205.5
t-211 -72.5t-211.5 72.5t-73.5 205.5v454z" />
    <glyph glyph-name="uring" unicode="&#x16f;" horiz-adv-x="599" 
d="M298 566q-42 0 -68.5 24.5t-26.5 62.5t26.5 63t68.5 25q41 0 67.5 -25t26.5 -63t-26.5 -62.5t-67.5 -24.5zM298 614q18 0 29 11t11 28q0 18 -11 29t-29 11q-19 0 -30 -11t-11 -29q0 -17 11 -28t30 -11zM526 0h-85v75h-10q-51 -86 -171 -86q-87 0 -139 47.5t-52 134.5v338
h88v-329q0 -61 33.5 -91.5t90.5 -30.5q68 0 112.5 42.5t44.5 124.5v284h88v-509z" />
    <glyph glyph-name="Uhungarumlaut" unicode="&#x170;" horiz-adv-x="723" 
d="M282 774h-64v15l55 111h91v-15zM457 774h-70v15l69 111h98v-15zM77 720h92v-458q0 -200 193 -200q93 0 142.5 50t49.5 150v458h92v-454q0 -133 -73 -205.5t-211 -72.5t-211.5 72.5t-73.5 205.5v454z" />
    <glyph glyph-name="uhungarumlaut" unicode="&#x171;" horiz-adv-x="599" 
d="M228 580h-63v15l55 125h91v-15zM392 580h-67v15l75 125h93v-15zM526 0h-85v75h-10q-51 -86 -171 -86q-87 0 -139 47.5t-52 134.5v338h88v-329q0 -61 33.5 -91.5t90.5 -30.5q68 0 112.5 42.5t44.5 124.5v284h88v-509z" />
    <glyph glyph-name="Uogonek" unicode="&#x172;" horiz-adv-x="723" 
d="M554 720h92v-454q0 -192 -145 -253q-59 -32 -81.5 -57t-22.5 -53q0 -24 14.5 -38.5t37.5 -14.5q28 0 52 19h15v-62q-40 -19 -78 -19q-46 0 -76.5 26.5t-30.5 69.5q0 55 57 94v11q-8 -1 -26 -1q-138 0 -211.5 72.5t-73.5 205.5v454h92v-458q0 -200 193 -200q93 0 142.5 50
t49.5 150v458z" />
    <glyph glyph-name="uogonek" unicode="&#x173;" horiz-adv-x="599" 
d="M526 0q-120 -29 -120 -97q0 -24 15 -38.5t38 -14.5q28 0 52 19h15v-62q-40 -19 -78 -19q-46 0 -76.5 26.5t-30.5 70.5q0 78 100 117v73h-10q-51 -86 -171 -86q-87 0 -139 47.5t-52 134.5v338h88v-329q0 -61 33.5 -91.5t90.5 -30.5q68 0 112.5 42.5t44.5 124.5v284h88
v-509z" />
    <glyph glyph-name="Wcircumflex" unicode="&#x174;" horiz-adv-x="1007" 
d="M504 850l-98 -76h-87v18l130 108h110l129 -108v-18h-87zM889 720h90v-15l-184 -705h-118l-168 598h-10l-169 -598h-118l-184 705v15h90l152 -612h10l173 612h101l173 -612h10z" />
    <glyph glyph-name="wcircumflex" unicode="&#x175;" horiz-adv-x="765" 
d="M383 671l-85 -91h-74v15l107 125h102l108 -125v-15h-74zM664 509h86v-15l-133 -494h-110l-119 417h-10l-120 -417h-110l-132 494v15h85l101 -412h10l119 412h103l119 -412h10z" />
    <glyph glyph-name="Ycircumflex" unicode="&#x176;" horiz-adv-x="685" 
d="M343 850l-98 -76h-87v18l130 108h110l129 -108v-18h-87zM572 720h99v-15l-282 -431v-274h-92v274l-283 431v15h100l224 -353h10z" />
    <glyph glyph-name="ycircumflex" unicode="&#x177;" horiz-adv-x="541" 
d="M271 671l-85 -91h-74v15l107 125h102l108 -125v-15h-74zM433 509h91v-15l-283 -694h-90v15l73 171l-207 508v15h91l158 -418h10z" />
    <glyph glyph-name="Ydieresis" unicode="&#x178;" horiz-adv-x="685" 
d="M175 879h120v-98h-120v98zM390 879h120v-98h-120v98zM14 720h100l224 -353h10l224 353h99v-15l-282 -431v-274h-92v274l-283 431v15z" />
    <glyph glyph-name="Zacute" unicode="&#x179;" horiz-adv-x="643" 
d="M337 774h-77v15l77 111h106v-15zM59 720h532v-62l-427 -582h439v-76h-558v63l426 581h-412v76z" />
    <glyph glyph-name="zacute" unicode="&#x17a;" horiz-adv-x="512" 
d="M276 580h-72v15l81 125h96v-15zM55 509h412v-56l-309 -387h317v-66h-430v56l309 387h-299v66z" />
    <glyph glyph-name="Zdotaccent" unicode="&#x17b;" horiz-adv-x="643" 
d="M262 879h127v-98h-127v98zM59 720h532v-62l-427 -582h439v-76h-558v63l426 581h-412v76z" />
    <glyph glyph-name="zdotaccent" unicode="&#x17c;" horiz-adv-x="512" 
d="M200 702h122v-98h-122v98zM55 509h412v-56l-309 -387h317v-66h-430v56l309 387h-299v66z" />
    <glyph glyph-name="Zcaron" unicode="&#x17d;" horiz-adv-x="643" 
d="M271 774l-130 108v18h87l98 -77l97 77h87v-18l-129 -108h-110zM164 76h439v-76h-558v63l426 581h-412v76h532v-62z" />
    <glyph glyph-name="zcaron" unicode="&#x17e;" horiz-adv-x="512" 
d="M209 580l-107 125v15h74l85 -90l84 90h74v-15l-108 -125h-102zM158 66h317v-66h-430v56l309 387h-299v66h412v-56z" />
    <glyph glyph-name="florin" unicode="&#x192;" horiz-adv-x="482" 
d="M302 654l-8 -8l-17 -229h156v-66h-161l-31 -427q-9 -124 -131 -124h-125v66h158l8 8l36 477h-158v66h163l13 179q9 124 131 124h123v-66h-157z" />
    <glyph glyph-name="Ohorn" unicode="&#x1a0;" horiz-adv-x="817" 
d="M660 638q106 -103 106 -278q0 -172 -100 -272t-261 -100t-260.5 100t-99.5 272t99.5 272t260.5 100q109 0 191 -47q113 10 113 105q0 41 -27 95v15h78q26 -59 26 -112q0 -122 -126 -150zM405 62q123 0 196 79.5t73 218.5t-73 218.5t-196 79.5t-196 -79.5t-73 -218.5
t73 -218.5t196 -79.5z" />
    <glyph glyph-name="ohorn" unicode="&#x1a1;" horiz-adv-x="623" 
d="M614 595q0 -125 -129 -151q65 -75 65 -189q0 -121 -69.5 -194t-184.5 -73t-184.5 73t-69.5 194t69.5 193.5t184.5 72.5q73 0 130 -31q114 9 114 107q0 36 -17 81v15h71q20 -50 20 -98zM296 56q75 0 120 52.5t45 146.5q0 93 -45 145.5t-120 52.5t-120.5 -52.5
t-45.5 -145.5q0 -94 45 -146.5t121 -52.5z" />
    <glyph glyph-name="Uhorn" unicode="&#x1af;" horiz-adv-x="797" 
d="M786 900q27 -56 27 -112q0 -63 -38.5 -95.5t-105.5 -32.5h-23v-394q0 -133 -73 -205.5t-211 -72.5t-211.5 72.5t-73.5 205.5v454h92v-458q0 -200 193 -200q93 0 142.5 50t49.5 150v458h105q77 0 77 70q0 41 -27 95v15h77z" />
    <glyph glyph-name="uhorn" unicode="&#x1b0;" horiz-adv-x="707" 
d="M662 693q29 -63 29 -115q0 -61 -37.5 -92.5t-103.5 -31.5h-24v-454h-85v75h-10q-51 -86 -171 -86q-87 0 -139 47.5t-52 134.5v338h88v-329q0 -61 33.5 -91.5t90.5 -30.5q68 0 112.5 42.5t44.5 124.5v284h102q78 0 78 70q0 43 -29 99v15h73z" />
    <glyph glyph-name="uni0218" unicode="&#x218;" horiz-adv-x="667" 
d="M337 659q-83 0 -133.5 -32.5t-50.5 -89.5q0 -52 39 -77.5t122 -44.5l75 -17q117 -27 174.5 -71t57.5 -131q0 -95 -74.5 -151t-204.5 -56q-131 0 -213 59t-96 165v15h88q10 -87 69.5 -127t150.5 -40q86 0 137 33.5t51 95.5q0 58 -40.5 83.5t-127.5 45.5l-75 17
q-111 25 -168 71t-57 128q0 88 74.5 142t200.5 54t202.5 -57t85.5 -157v-15h-88q-4 80 -58.5 118.5t-140.5 38.5zM279 -146v93h125v-101q0 -53 -29.5 -80.5t-80.5 -27.5h-27v53h25q53 0 53 55v8h-66z" />
    <glyph glyph-name="uni0219" unicode="&#x219;" horiz-adv-x="525" 
d="M316 286q84 -15 128.5 -47.5t44.5 -96.5q0 -69 -56.5 -111.5t-159.5 -42.5t-165.5 43.5t-73.5 119.5v15h83q13 -112 155 -112q63 0 97.5 22.5t34.5 60.5q0 34 -26.5 50.5t-81.5 26.5l-83 15q-161 29 -161 144q0 68 57 108t155 40q97 0 154 -39.5t67 -109.5v-15h-82
q-7 98 -139 98q-59 0 -93 -20.5t-34 -57.5q0 -34 24.5 -51t71.5 -25zM210 -146v93h125v-101q0 -53 -29.5 -80.5t-80.5 -27.5h-27v53h25q53 0 53 55v8h-66z" />
    <glyph glyph-name="uni021A" unicode="&#x21a;" horiz-adv-x="647" 
d="M17 720h613v-76h-261v-644h-91v644h-261v76zM260 -146v93h125v-101q0 -53 -29.5 -80.5t-80.5 -27.5h-27v53h25q53 0 53 55v8h-66z" />
    <glyph glyph-name="uni021B" unicode="&#x21b;" horiz-adv-x="392" 
d="M230 68h136v-68h-101q-64 0 -97.5 31.5t-33.5 93.5v318h-119v66h119v102l73 55h15v-157h135v-66h-135v-367zM184 -146v93h125v-101q0 -53 -29.5 -80.5t-80.5 -27.5h-27v53h25q53 0 53 55v8h-66z" />
    <glyph glyph-name="uni0237" unicode="&#x237;" horiz-adv-x="235" 
d="M75 509h88v-585q0 -61 -34 -92.5t-97 -31.5h-87v68h122l8 8v633z" />
    <glyph glyph-name="circumflex" unicode="&#x2c6;" horiz-adv-x="425" 
d="M263 720l108 -125v-15h-74l-84 91l-85 -91h-74v15l107 125h102z" />
    <glyph glyph-name="caron" unicode="&#x2c7;" horiz-adv-x="425" 
d="M297 720h74v-15l-108 -125h-102l-107 125v15h74l85 -90z" />
    <glyph glyph-name="breve" unicode="&#x2d8;" horiz-adv-x="429" 
d="M308 720h67v-15q-3 -55 -44.5 -93t-115.5 -38t-116 38t-45 93v15h68q0 -37 25 -61.5t68 -24.5q42 0 67.5 24.5t25.5 61.5z" />
    <glyph glyph-name="dotaccent" unicode="&#x2d9;" horiz-adv-x="230" 
d="M47 703h122v-98h-122v98z" />
    <glyph glyph-name="ring" unicode="&#x2da;" horiz-adv-x="297" 
d="M149 566q-42 0 -68.5 24.5t-26.5 62.5t26.5 63t68.5 25q41 0 67.5 -25t26.5 -63t-26.5 -62.5t-67.5 -24.5zM149 614q18 0 29 11t11 28q0 18 -11 29t-29 11q-19 0 -30 -11t-11 -29q0 -17 11 -28t30 -11z" />
    <glyph glyph-name="ogonek" unicode="&#x2db;" horiz-adv-x="293" 
d="M239 -193q-40 -19 -78 -19q-46 0 -76.5 26.5t-30.5 70.5q0 62 66 105v10h92q-92 -38 -92 -97q0 -24 14.5 -38.5t37.5 -14.5q28 0 52 19h15v-62z" />
    <glyph glyph-name="tilde" unicode="&#x2dc;" horiz-adv-x="453" 
d="M341 706h58v-15q-2 -45 -27 -74t-71 -29q-36 0 -80 31.5t-63 31.5q-44 0 -46 -57h-58v15q2 45 27 74t71 29q36 0 80 -31.5t63 -31.5q44 0 46 57z" />
    <glyph glyph-name="hungarumlaut" unicode="&#x2dd;" horiz-adv-x="436" 
d="M117 580h-63v15l55 125h91v-15zM281 580h-67v15l75 125h93v-15z" />
    <glyph glyph-name="gravecomb" unicode="&#x300;" 
d="M-126 580l-105 125v15h96l81 -125v-15h-72z" />
    <glyph glyph-name="acutecomb" unicode="&#x301;" 
d="M-159 580h-72v15l81 125h96v-15z" />
    <glyph glyph-name="uni0302" unicode="&#x302;" 
d="M-162 720l108 -125v-15h-74l-84 91l-85 -91h-74v15l107 125h102z" />
    <glyph glyph-name="tildecomb" unicode="&#x303;" 
d="M-112 706h58v-15q-2 -45 -27 -74t-71 -29q-36 0 -80 31.5t-63 31.5q-44 0 -46 -57h-58v15q2 45 27 74t71 29q36 0 80 -31.5t63 -31.5q44 0 46 57z" />
    <glyph glyph-name="uni0304" unicode="&#x304;" 
d="M-369 658h315v-64h-315v64z" />
    <glyph glyph-name="uni0306" unicode="&#x306;" 
d="M-121 720h67v-15q-3 -55 -44.5 -93t-115.5 -38t-116 38t-45 93v15h68q0 -37 25 -61.5t68 -24.5q42 0 67.5 24.5t25.5 61.5z" />
    <glyph glyph-name="uni0307" unicode="&#x307;" 
d="M-169 703h122v-98h-122v98z" />
    <glyph glyph-name="uni0308" unicode="&#x308;" 
d="M-362 703h112v-98h-112v98zM-161 703h113v-98h-113v98z" />
    <glyph glyph-name="hookabovecomb" unicode="&#x309;" 
d="M-274 709q52 31 120 31q44 0 72 -18.5t28 -48.5q0 -7 -1 -12.5t-3.5 -11t-4.5 -9.5t-7 -9l-7.5 -7.5t-9 -7.5t-8.5 -6.5t-10 -6.5t-10 -6l-28 -17h-68v15l55 35q17 11 23.5 18t6.5 17q0 21 -37 21q-46 0 -96 -32h-15v55z" />
    <glyph glyph-name="uni030A" unicode="&#x30a;" 
d="M-148 566q-42 0 -68.5 24.5t-26.5 62.5t26.5 63t68.5 25q41 0 67.5 -25t26.5 -63t-26.5 -62.5t-67.5 -24.5zM-148 614q18 0 29 11t11 28q0 18 -11 29t-29 11q-19 0 -30 -11t-11 -29q0 -17 11 -28t30 -11z" />
    <glyph glyph-name="uni030B" unicode="&#x30b;" 
d="M-319 580h-63v15l55 125h91v-15zM-155 580h-67v15l75 125h93v-15z" />
    <glyph glyph-name="uni030C" unicode="&#x30c;" 
d="M-128 720h74v-15l-108 -125h-102l-107 125v15h74l85 -90z" />
    <glyph glyph-name="uni0312" unicode="&#x312;" 
d="M-79 751q-53 0 -53 -55v-9h66v-93h-125v102q0 53 29.5 80t80.5 27h27v-52h-25z" />
    <glyph glyph-name="uni031B" unicode="&#x31b;" 
d="M-220 509h16q77 0 77 70q0 45 -28 99v15h73q28 -61 28 -115q0 -61 -37.5 -92.5t-103.5 -31.5h-25v55z" />
    <glyph glyph-name="dotbelowcomb" unicode="&#x323;" 
d="M-176 -85h122v-98h-122v98z" />
    <glyph glyph-name="uni0326" unicode="&#x326;" 
d="M-182 -53h125v-101q0 -53 -29.5 -80.5t-80.5 -27.5h-27v53h25q53 0 53 55v8h-66v93z" />
    <glyph glyph-name="uni0327" unicode="&#x327;" 
d="M-213 0h54l-12 -55l24 2q39 2 66 -14.5t27 -54.5q0 -40 -34.5 -65t-89.5 -25q-74 0 -129 39v58h15q61 -45 114 -45q30 0 46 10.5t16 27.5q0 30 -45 30h-68v15z" />
    <glyph glyph-name="uni0328" unicode="&#x328;" 
d="M-54 -193q-40 -19 -78 -19q-46 0 -76.5 26.5t-30.5 70.5q0 62 66 105v10h92q-92 -38 -92 -97q0 -24 14.5 -38.5t37.5 -14.5q28 0 52 19h15v-62z" />
    <glyph glyph-name="Wgrave" unicode="&#x1e80;" horiz-adv-x="1007" 
d="M489 774l-106 111v15h106l77 -111v-15h-77zM28 720h90l152 -612h10l173 612h101l173 -612h10l152 612h90v-15l-184 -705h-118l-168 598h-10l-169 -598h-118l-184 705v15z" />
    <glyph glyph-name="wgrave" unicode="&#x1e81;" horiz-adv-x="765" 
d="M366 580l-105 125v15h96l81 -125v-15h-72zM16 509h85l101 -412h10l119 412h103l119 -412h10l101 412h86v-15l-133 -494h-110l-119 417h-10l-120 -417h-110l-132 494v15z" />
    <glyph glyph-name="Wacute" unicode="&#x1e82;" horiz-adv-x="1007" 
d="M514 774h-77v15l77 111h106v-15zM28 720h90l152 -612h10l173 612h101l173 -612h10l152 612h90v-15l-184 -705h-118l-168 598h-10l-169 -598h-118l-184 705v15z" />
    <glyph glyph-name="wacute" unicode="&#x1e83;" horiz-adv-x="765" 
d="M397 580h-72v15l81 125h96v-15zM16 509h85l101 -412h10l119 412h103l119 -412h10l101 412h86v-15l-133 -494h-110l-119 417h-10l-120 -417h-110l-132 494v15z" />
    <glyph glyph-name="Wdieresis" unicode="&#x1e84;" horiz-adv-x="1007" 
d="M336 879h120v-98h-120v98zM551 879h120v-98h-120v98zM28 720h90l152 -612h10l173 612h101l173 -612h10l152 612h90v-15l-184 -705h-118l-168 598h-10l-169 -598h-118l-184 705v15z" />
    <glyph glyph-name="wdieresis" unicode="&#x1e85;" horiz-adv-x="765" 
d="M226 703h112v-98h-112v98zM427 703h113v-98h-113v98zM16 509h85l101 -412h10l119 412h103l119 -412h10l101 412h86v-15l-133 -494h-110l-119 417h-10l-120 -417h-110l-132 494v15z" />
    <glyph glyph-name="uni1E9E" unicode="&#x1e9e;" horiz-adv-x="679" 
d="M81 0v467q0 123 66.5 188t182.5 65h305v-59l-183 -196q-36 -37 -36 -63q0 -32 41 -53l39 -21q37 -20 54.5 -31t44 -33.5t38 -49.5t11.5 -62q0 -74 -54.5 -119t-144.5 -45q-86 0 -141 41.5t-64 106.5v15h87q6 -43 38.5 -67.5t79.5 -24.5q48 0 79 25t31 68q0 20 -6.5 35.5
t-24 29.5t-27 20t-35.5 20q-5 3 -7 4l-50 27q-39 22 -58 47t-19 61q0 33 14 57.5t46 57.5l126 136h-178q-163 0 -163 -177v-470h-92z" />
    <glyph glyph-name="uni1EA0" unicode="&#x1ea0;" horiz-adv-x="693" 
d="M25 0v15l263 705h118l262 -705v-15h-90l-75 203h-313l-74 -203h-91zM215 276h263l-126 347h-10zM286 -85h122v-98h-122v98z" />
    <glyph glyph-name="uni1EA1" unicode="&#x1ea1;" horiz-adv-x="569" 
d="M56 346v15q13 72 74 116t155 44q98 0 156.5 -49t58.5 -140v-332h-85v75h-10q-53 -86 -177 -86q-83 0 -134.5 39.5t-51.5 106.5q0 68 49 105t132 45l190 18v31q0 121 -130 121q-62 0 -98.5 -28t-43.5 -81h-85zM130 139q0 -38 30.5 -61t82.5 -23q74 0 122 43.5t48 125.5v14
l-178 -17q-105 -10 -105 -82zM222 -85h122v-98h-122v98z" />
    <glyph glyph-name="uni1EA2" unicode="&#x1ea2;" horiz-adv-x="693" 
d="M246 903q50 30 120 30q44 0 72 -18t28 -48q0 -19 -11 -34.5t-20 -22t-30 -19.5l-28 -17h-68v15l55 35q30 21 30 34q0 22 -37 22q-46 0 -96 -32h-15v55zM25 0v15l263 705h118l262 -705v-15h-90l-75 203h-313l-74 -203h-91zM215 276h263l-126 347h-10z" />
    <glyph glyph-name="uni1EA3" unicode="&#x1ea3;" horiz-adv-x="569" 
d="M182 709q52 31 120 31q44 0 72 -18.5t28 -48.5q0 -7 -1 -12.5t-3.5 -11t-4.5 -9.5t-7 -9l-7.5 -7.5t-9 -7.5t-8.5 -6.5t-10 -6.5t-10 -6l-28 -17h-68v15l55 35q17 11 23.5 18t6.5 17q0 21 -37 21q-46 0 -96 -32h-15v55zM56 346v15q13 72 74 116t155 44q98 0 156.5 -49
t58.5 -140v-332h-85v75h-10q-53 -86 -177 -86q-83 0 -134.5 39.5t-51.5 106.5q0 68 49 105t132 45l190 18v31q0 121 -130 121q-62 0 -98.5 -28t-43.5 -81h-85zM130 139q0 -38 30.5 -61t82.5 -23q74 0 122 43.5t48 125.5v14l-178 -17q-105 -10 -105 -82z" />
    <glyph glyph-name="uni1EA4" unicode="&#x1ea4;" horiz-adv-x="693" 
d="M640 988l-89 -111h-70v15l57 111h102v-15zM347 850l-98 -76h-87v18l130 108h110l129 -108v-18h-87zM406 720l262 -705v-15h-90l-75 203h-313l-74 -203h-91v15l263 705h118zM215 276h263l-126 347h-10z" />
    <glyph glyph-name="uni1EA5" unicode="&#x1ea5;" horiz-adv-x="569" 
d="M466 840h84v-15l-72 -124h-66v15zM283 671l-85 -91h-74v15l107 125h102l108 -125v-15h-74zM285 521q98 0 156.5 -49t58.5 -140v-332h-85v75h-10q-53 -86 -177 -86q-83 0 -134.5 39.5t-51.5 106.5q0 68 49 105t132 45l190 18v31q0 121 -130 121q-62 0 -98.5 -28t-43.5 -81
h-85v15q13 72 74 116t155 44zM413 224v14l-178 -17q-105 -10 -105 -82q0 -38 30.5 -61t82.5 -23q74 0 122 43.5t48 125.5z" />
    <glyph glyph-name="uni1EA6" unicode="&#x1ea6;" horiz-adv-x="693" 
d="M566 877h-70l-89 111v15h102l57 -111v-15zM347 850l-98 -76h-87v18l130 108h110l129 -108v-18h-87zM406 720l262 -705v-15h-90l-75 203h-313l-74 -203h-91v15l263 705h118zM215 276h263l-126 347h-10z" />
    <glyph glyph-name="uni1EA7" unicode="&#x1ea7;" horiz-adv-x="569" 
d="M447 840l54 -124v-15h-67l-71 124v15h84zM283 671l-85 -91h-74v15l107 125h102l108 -125v-15h-74zM285 521q98 0 156.5 -49t58.5 -140v-332h-85v75h-10q-53 -86 -177 -86q-83 0 -134.5 39.5t-51.5 106.5q0 68 49 105t132 45l190 18v31q0 121 -130 121q-62 0 -98.5 -28
t-43.5 -81h-85v15q13 72 74 116t155 44zM413 224v14l-178 -17q-105 -10 -105 -82q0 -38 30.5 -61t82.5 -23q74 0 122 43.5t48 125.5z" />
    <glyph glyph-name="uni1EA8" unicode="&#x1ea8;" horiz-adv-x="693" 
d="M520 983q-46 0 -96 -32h-15v55q50 30 120 30q44 0 72 -18t28 -48q0 -19 -11 -34.5t-20 -22t-30 -19.5l-28 -17h-68v15l55 35q30 21 30 34q0 22 -37 22zM347 850l-98 -76h-87v18l130 108h110l129 -108v-18h-87zM406 720l262 -705v-15h-90l-75 203h-313l-74 -203h-91v15
l263 705h118zM215 276h263l-126 347h-10z" />
    <glyph glyph-name="uni1EA9" unicode="&#x1ea9;" horiz-adv-x="569" 
d="M455 860q44 0 72 -18.5t28 -48.5q0 -7 -1 -12.5t-3.5 -11t-4.5 -9.5t-7 -9l-7.5 -7.5t-9 -7.5t-8.5 -6.5t-10 -6.5t-10 -6l-28 -17h-68v15l55 35q17 11 23.5 18t6.5 17q0 21 -37 21q-46 0 -96 -32h-15v55q52 31 120 31zM283 671l-85 -91h-74v15l107 125h102l108 -125v-15
h-74zM285 521q98 0 156.5 -49t58.5 -140v-332h-85v75h-10q-53 -86 -177 -86q-83 0 -134.5 39.5t-51.5 106.5q0 68 49 105t132 45l190 18v31q0 121 -130 121q-62 0 -98.5 -28t-43.5 -81h-85v15q13 72 74 116t155 44zM413 224v14l-178 -17q-105 -10 -105 -82q0 -38 30.5 -61
t82.5 -23q74 0 122 43.5t48 125.5z" />
    <glyph glyph-name="uni1EAA" unicode="&#x1eaa;" horiz-adv-x="693" 
d="M271 1016q-47 0 -47 -53h-60v15q2 44 28 72.5t73 28.5q39 0 86.5 -30.5t69.5 -30.5q46 0 46 52h61v-15q-3 -43 -29 -71.5t-73 -28.5q-38 0 -85.5 30.5t-69.5 30.5zM345 1018v-2h1v2h-1zM347 850l-98 -76h-87v18l130 108h110l129 -108v-18h-87zM406 720l262 -705v-15h-90
l-75 203h-313l-74 -203h-91v15l263 705h118zM215 276h263l-126 347h-10z" />
    <glyph glyph-name="uni1EAB" unicode="&#x1eab;" horiz-adv-x="569" 
d="M212 816q-42 0 -44 -54h-55v15q2 44 27 71t69 27q37 0 83 -30t64 -30q43 0 43 54h56v-15q-3 -44 -28 -71t-69 -27q-36 0 -82 30t-64 30zM283 654l-94 -74h-80v15l123 106h102l124 -106v-15h-81zM285 521q98 0 156.5 -49t58.5 -140v-332h-85v75h-10q-53 -86 -177 -86
q-83 0 -134.5 39.5t-51.5 106.5q0 68 49 105t132 45l190 18v31q0 121 -130 121q-62 0 -98.5 -28t-43.5 -81h-85v15q13 72 74 116t155 44zM413 224v14l-178 -17q-105 -10 -105 -82q0 -38 30.5 -61t82.5 -23q74 0 122 43.5t48 125.5z" />
    <glyph glyph-name="uni1EAC" unicode="&#x1eac;" horiz-adv-x="693" 
d="M347 850l-98 -76h-87v18l130 108h110l129 -108v-18h-87zM406 720l262 -705v-15h-90l-75 203h-313l-74 -203h-91v15l263 705h118zM215 276h263l-126 347h-10zM286 -183v98h122v-98h-122z" />
    <glyph glyph-name="uni1EAD" unicode="&#x1ead;" horiz-adv-x="569" 
d="M283 671l-85 -91h-74v15l107 125h102l108 -125v-15h-74zM285 521q98 0 156.5 -49t58.5 -140v-332h-85v75h-10q-53 -86 -177 -86q-83 0 -134.5 39.5t-51.5 106.5q0 68 49 105t132 45l190 18v31q0 121 -130 121q-62 0 -98.5 -28t-43.5 -81h-85v15q13 72 74 116t155 44z
M413 224v14l-178 -17q-105 -10 -105 -82q0 -38 30.5 -61t82.5 -23q74 0 122 43.5t48 125.5zM222 -183v98h122v-98h-122z" />
    <glyph glyph-name="uni1EAE" unicode="&#x1eae;" horiz-adv-x="693" 
d="M463 1065l-106 -111h-77v15l77 111h106v-15zM347 768q-75 0 -116 34t-48 84v14h72q2 -31 25 -51t67 -20t67 20t25 51h72v-14q-7 -50 -48 -84t-116 -34zM406 720l262 -705v-15h-90l-75 203h-313l-74 -203h-91v15l263 705h118zM215 276h263l-126 347h-10z" />
    <glyph glyph-name="uni1EAF" unicode="&#x1eaf;" horiz-adv-x="569" 
d="M409 854l-109 -106h-74v15l85 106h98v-15zM283 575q-71 0 -113 32.5t-49 78.5v15h68q4 -30 28 -49.5t66 -19.5q43 0 67 19.5t28 49.5h68v-15q-7 -46 -49.5 -78.5t-113.5 -32.5zM285 521q98 0 156.5 -49t58.5 -140v-332h-85v75h-10q-53 -86 -177 -86q-83 0 -134.5 39.5
t-51.5 106.5q0 68 49 105t132 45l190 18v31q0 121 -130 121q-62 0 -98.5 -28t-43.5 -81h-85v15q13 72 74 116t155 44zM413 224v14l-178 -17q-105 -10 -105 -82q0 -38 30.5 -61t82.5 -23q74 0 122 43.5t48 125.5z" />
    <glyph glyph-name="uni1EB0" unicode="&#x1eb0;" horiz-adv-x="693" 
d="M409 954h-77l-106 111v15h106l77 -111v-15zM347 768q-75 0 -116 34t-48 84v14h72q2 -31 25 -51t67 -20t67 20t25 51h72v-14q-7 -50 -48 -84t-116 -34zM406 720l262 -705v-15h-90l-75 203h-313l-74 -203h-91v15l263 705h118zM215 276h263l-126 347h-10z" />
    <glyph glyph-name="uni1EB1" unicode="&#x1eb1;" horiz-adv-x="569" 
d="M341 748h-74l-109 106v15h98l85 -106v-15zM283 575q-71 0 -113 32.5t-49 78.5v15h68q4 -30 28 -49.5t66 -19.5q43 0 67 19.5t28 49.5h68v-15q-7 -46 -49.5 -78.5t-113.5 -32.5zM285 521q98 0 156.5 -49t58.5 -140v-332h-85v75h-10q-53 -86 -177 -86q-83 0 -134.5 39.5
t-51.5 106.5q0 68 49 105t132 45l190 18v31q0 121 -130 121q-62 0 -98.5 -28t-43.5 -81h-85v15q13 72 74 116t155 44zM413 224v14l-178 -17q-105 -10 -105 -82q0 -38 30.5 -61t82.5 -23q74 0 122 43.5t48 125.5z" />
    <glyph glyph-name="uni1EB2" unicode="&#x1eb2;" horiz-adv-x="693" 
d="M357 1060q-46 0 -96 -32h-15v55q50 30 120 30q44 0 72 -18t28 -48q0 -19 -11 -34.5t-20 -22t-30 -19.5l-28 -17h-68v15l55 35q30 21 30 34q0 22 -37 22zM347 768q-75 0 -116 34t-48 84v14h72q2 -31 25 -51t67 -20t67 20t25 51h72v-14q-7 -50 -48 -84t-116 -34zM406 720
l262 -705v-15h-90l-75 203h-313l-74 -203h-91v15l263 705h118zM215 276h263l-126 347h-10z" />
    <glyph glyph-name="uni1EB3" unicode="&#x1eb3;" horiz-adv-x="569" 
d="M295 834q-46 0 -96 -32h-15v55q52 31 120 31q44 0 72 -18.5t28 -48.5q0 -7 -1 -12.5t-3.5 -11t-4.5 -9.5t-7 -9l-7.5 -7.5t-9 -7.5t-8.5 -6.5t-10 -6.5t-10 -6l-28 -17h-68v15l55 35q17 11 23.5 18t6.5 17q0 21 -37 21zM283 575q-71 0 -113 32.5t-49 78.5v15h68
q4 -30 28 -49.5t66 -19.5q43 0 67 19.5t28 49.5h68v-15q-7 -46 -49.5 -78.5t-113.5 -32.5zM285 521q98 0 156.5 -49t58.5 -140v-332h-85v75h-10q-53 -86 -177 -86q-83 0 -134.5 39.5t-51.5 106.5q0 68 49 105t132 45l190 18v31q0 121 -130 121q-62 0 -98.5 -28t-43.5 -81
h-85v15q13 72 74 116t155 44zM413 224v14l-178 -17q-105 -10 -105 -82q0 -38 30.5 -61t82.5 -23q74 0 122 43.5t48 125.5z" />
    <glyph glyph-name="uni1EB4" unicode="&#x1eb4;" horiz-adv-x="693" 
d="M271 1016q-47 0 -47 -53h-60v15q2 44 28 72.5t73 28.5q39 0 86.5 -30.5t69.5 -30.5q46 0 46 52h61v-15q-3 -43 -29 -71.5t-73 -28.5q-38 0 -85.5 30.5t-69.5 30.5zM345 1018v-2h1v2h-1zM347 829q44 0 67 20t25 51h72v-14q-7 -50 -48 -84t-116 -34t-116 34t-48 84v14h72
q2 -31 25 -51t67 -20zM406 720l262 -705v-15h-90l-75 203h-313l-74 -203h-91v15l263 705h118zM215 276h263l-126 347h-10z" />
    <glyph glyph-name="uni1EB5" unicode="&#x1eb5;" horiz-adv-x="569" 
d="M212 816q-42 0 -44 -54h-55v15q2 44 27 71t69 27q37 0 83 -30t64 -30q43 0 43 54h56v-15q-3 -44 -28 -71t-69 -27q-36 0 -82 30t-64 30zM283 632q43 0 67 19.5t28 49.5h68v-15q-7 -46 -49.5 -78.5t-113.5 -32.5t-113 32.5t-49 78.5v15h68q4 -30 28 -49.5t66 -19.5z
M285 521q98 0 156.5 -49t58.5 -140v-332h-85v75h-10q-53 -86 -177 -86q-83 0 -134.5 39.5t-51.5 106.5q0 68 49 105t132 45l190 18v31q0 121 -130 121q-62 0 -98.5 -28t-43.5 -81h-85v15q13 72 74 116t155 44zM413 224v14l-178 -17q-105 -10 -105 -82q0 -38 30.5 -61
t82.5 -23q74 0 122 43.5t48 125.5z" />
    <glyph glyph-name="uni1EB6" unicode="&#x1eb6;" horiz-adv-x="693" 
d="M347 768q-75 0 -116 34t-48 84v14h72q2 -31 25 -51t67 -20t67 20t25 51h72v-14q-7 -50 -48 -84t-116 -34zM406 720l262 -705v-15h-90l-75 203h-313l-74 -203h-91v15l263 705h118zM215 276h263l-126 347h-10zM286 -183v98h122v-98h-122z" />
    <glyph glyph-name="uni1EB7" unicode="&#x1eb7;" horiz-adv-x="569" 
d="M283 574q-74 0 -116 38t-45 93v15h68q0 -37 25 -61.5t68 -24.5q42 0 67.5 24.5t25.5 61.5h67v-15q-3 -55 -44.5 -93t-115.5 -38zM285 521q98 0 156.5 -49t58.5 -140v-332h-85v75h-10q-53 -86 -177 -86q-83 0 -134.5 39.5t-51.5 106.5q0 68 49 105t132 45l190 18v31
q0 121 -130 121q-62 0 -98.5 -28t-43.5 -81h-85v15q13 72 74 116t155 44zM413 224v14l-178 -17q-105 -10 -105 -82q0 -38 30.5 -61t82.5 -23q74 0 122 43.5t48 125.5zM222 -183v98h122v-98h-122z" />
    <glyph glyph-name="uni1EB8" unicode="&#x1eb8;" horiz-adv-x="635" 
d="M81 720h505v-76h-413v-237h363v-76h-363v-255h423v-76h-515v720zM277 -85h122v-98h-122v98z" />
    <glyph glyph-name="uni1EB9" unicode="&#x1eb9;" horiz-adv-x="577" 
d="M42 255q0 121 68.5 193.5t183.5 72.5q113 0 177 -69t64 -180v-38h-403q2 -80 46 -130t118 -50q66 0 102.5 34t45.5 79h84v-15q-13 -61 -71 -112.5t-161 -51.5q-116 0 -185 72.5t-69 194.5zM132 300h316q-2 69 -42 112t-112 43q-70 0 -113 -43t-49 -112zM234 -85h122v-98
h-122v98z" />
    <glyph glyph-name="uni1EBA" unicode="&#x1eba;" horiz-adv-x="635" 
d="M233 903q50 30 120 30q44 0 72 -18t28 -48q0 -19 -11 -34.5t-20 -22t-30 -19.5l-28 -17h-68v15l55 35q30 21 30 34q0 22 -37 22q-46 0 -96 -32h-15v55zM81 720h505v-76h-413v-237h363v-76h-363v-255h423v-76h-515v720z" />
    <glyph glyph-name="uni1EBB" unicode="&#x1ebb;" horiz-adv-x="577" 
d="M194 709q52 31 120 31q44 0 72 -18.5t28 -48.5q0 -7 -1 -12.5t-3.5 -11t-4.5 -9.5t-7 -9l-7.5 -7.5t-9 -7.5t-8.5 -6.5t-10 -6.5t-10 -6l-28 -17h-68v15l55 35q17 11 23.5 18t6.5 17q0 21 -37 21q-46 0 -96 -32h-15v55zM42 255q0 121 68.5 193.5t183.5 72.5
q113 0 177 -69t64 -180v-38h-403q2 -80 46 -130t118 -50q66 0 102.5 34t45.5 79h84v-15q-13 -61 -71 -112.5t-161 -51.5q-116 0 -185 72.5t-69 194.5zM132 300h316q-2 69 -42 112t-112 43q-70 0 -113 -43t-49 -112z" />
    <glyph glyph-name="uni1EBC" unicode="&#x1ebc;" horiz-adv-x="635" 
d="M258 836q-47 0 -47 -53h-60v15q2 44 28 72.5t73 28.5q39 0 86.5 -30.5t69.5 -30.5q46 0 46 52h61v-15q-3 -43 -29 -71.5t-73 -28.5q-38 0 -85.5 30.5t-69.5 30.5zM332 838v-2h1v2h-1zM173 76h423v-76h-515v720h505v-76h-413v-237h363v-76h-363v-255z" />
    <glyph glyph-name="uni1EBD" unicode="&#x1ebd;" horiz-adv-x="577" 
d="M227 651q-44 0 -46 -57h-58v15q2 45 27 74t71 29q36 0 80 -31.5t63 -31.5q44 0 46 57h58v-15q-2 -45 -27 -74t-71 -29q-36 0 -80 31.5t-63 31.5zM535 272v-38h-403q2 -80 46 -130t118 -50q66 0 102.5 34t45.5 79h84v-15q-13 -61 -71 -112.5t-161 -51.5q-116 0 -185 72.5
t-69 194.5q0 121 68.5 193.5t183.5 72.5q113 0 177 -69t64 -180zM132 300h316q-2 69 -42 112t-112 43q-70 0 -113 -43t-49 -112z" />
    <glyph glyph-name="uni1EBE" unicode="&#x1ebe;" horiz-adv-x="635" 
d="M525 1003h102v-15l-89 -111h-70v15zM334 850l-98 -76h-87v18l130 108h110l129 -108v-18h-87zM173 331v-255h423v-76h-515v720h505v-76h-413v-237h363v-76h-363z" />
    <glyph glyph-name="uni1EBF" unicode="&#x1ebf;" horiz-adv-x="577" 
d="M478 840h84v-15l-72 -124h-66v15zM295 671l-85 -91h-74v15l107 125h102l108 -125v-15h-74zM294 521q113 0 177 -69t64 -180v-38h-403q2 -80 46 -130t118 -50q66 0 102.5 34t45.5 79h84v-15q-13 -61 -71 -112.5t-161 -51.5q-116 0 -185 72.5t-69 194.5q0 121 68.5 193.5
t183.5 72.5zM132 300h316q-2 69 -42 112t-112 43q-70 0 -113 -43t-49 -112z" />
    <glyph glyph-name="uni1EC0" unicode="&#x1ec0;" horiz-adv-x="635" 
d="M553 877h-70l-89 111v15h102l57 -111v-15zM334 850l-98 -76h-87v18l130 108h110l129 -108v-18h-87zM173 76h423v-76h-515v720h505v-76h-413v-237h363v-76h-363v-255z" />
    <glyph glyph-name="uni1EC1" unicode="&#x1ec1;" horiz-adv-x="577" 
d="M513 701h-67l-71 124v15h84l54 -124v-15zM295 671l-85 -91h-74v15l107 125h102l108 -125v-15h-74zM535 272v-38h-403q2 -80 46 -130t118 -50q66 0 102.5 34t45.5 79h84v-15q-13 -61 -71 -112.5t-161 -51.5q-116 0 -185 72.5t-69 194.5q0 121 68.5 193.5t183.5 72.5
q113 0 177 -69t64 -180zM132 300h316q-2 69 -42 112t-112 43q-70 0 -113 -43t-49 -112z" />
    <glyph glyph-name="uni1EC2" unicode="&#x1ec2;" horiz-adv-x="635" 
d="M516 1036q44 0 72 -18t28 -48q0 -19 -11 -34.5t-20 -22t-30 -19.5l-28 -17h-68v15l55 35q30 21 30 34q0 22 -37 22q-46 0 -96 -32h-15v55q50 30 120 30zM334 850l-98 -76h-87v18l130 108h110l129 -108v-18h-87zM173 331v-255h423v-76h-515v720h505v-76h-413v-237h363v-76
h-363z" />
    <glyph glyph-name="uni1EC3" unicode="&#x1ec3;" horiz-adv-x="577" 
d="M467 860q44 0 72 -18.5t28 -48.5q0 -7 -1 -12.5t-3.5 -11t-4.5 -9.5t-7 -9l-7.5 -7.5t-9 -7.5t-8.5 -6.5t-10 -6.5t-10 -6l-28 -17h-68v15l55 35q17 11 23.5 18t6.5 17q0 21 -37 21q-46 0 -96 -32h-15v55q52 31 120 31zM295 671l-85 -91h-74v15l107 125h102l108 -125v-15
h-74zM294 521q113 0 177 -69t64 -180v-38h-403q2 -80 46 -130t118 -50q66 0 102.5 34t45.5 79h84v-15q-13 -61 -71 -112.5t-161 -51.5q-116 0 -185 72.5t-69 194.5q0 121 68.5 193.5t183.5 72.5zM132 300h316q-2 69 -42 112t-112 43q-70 0 -113 -43t-49 -112z" />
    <glyph glyph-name="uni1EC4" unicode="&#x1ec4;" horiz-adv-x="635" 
d="M258 1016q-47 0 -47 -53h-60v15q2 44 28 72.5t73 28.5q39 0 86.5 -30.5t69.5 -30.5q46 0 46 52h61v-15q-3 -43 -29 -71.5t-73 -28.5q-38 0 -85.5 30.5t-69.5 30.5zM332 1018v-2h1v2h-1zM334 850l-98 -76h-87v18l130 108h110l129 -108v-18h-87zM173 76h423v-76h-515v720
h505v-76h-413v-237h363v-76h-363v-255z" />
    <glyph glyph-name="uni1EC5" unicode="&#x1ec5;" horiz-adv-x="577" 
d="M224 816q-42 0 -44 -54h-55v15q2 44 27 71t69 27q37 0 83 -30t64 -30q43 0 43 54h56v-15q-3 -44 -28 -71t-69 -27q-36 0 -82 30t-64 30zM295 654l-94 -74h-80v15l123 106h102l124 -106v-15h-81zM535 272v-38h-403q2 -80 46 -130t118 -50q66 0 102.5 34t45.5 79h84v-15
q-13 -61 -71 -112.5t-161 -51.5q-116 0 -185 72.5t-69 194.5q0 121 68.5 193.5t183.5 72.5q113 0 177 -69t64 -180zM132 300h316q-2 69 -42 112t-112 43q-70 0 -113 -43t-49 -112z" />
    <glyph glyph-name="uni1EC6" unicode="&#x1ec6;" horiz-adv-x="635" 
d="M334 850l-98 -76h-87v18l130 108h110l129 -108v-18h-87zM173 76h423v-76h-515v720h505v-76h-413v-237h363v-76h-363v-255zM277 -183v98h122v-98h-122z" />
    <glyph glyph-name="uni1EC7" unicode="&#x1ec7;" horiz-adv-x="577" 
d="M295 671l-85 -91h-74v15l107 125h102l108 -125v-15h-74zM535 272v-38h-403q2 -80 46 -130t118 -50q66 0 102.5 34t45.5 79h84v-15q-13 -61 -71 -112.5t-161 -51.5q-116 0 -185 72.5t-69 194.5q0 121 68.5 193.5t183.5 72.5q113 0 177 -69t64 -180zM132 300h316
q-2 69 -42 112t-112 43q-70 0 -113 -43t-49 -112zM234 -183v98h122v-98h-122z" />
    <glyph glyph-name="uni1EC8" unicode="&#x1ec8;" horiz-adv-x="255" 
d="M146 933q44 0 72 -18t28 -48q0 -19 -11 -34.5t-20 -22t-30 -19.5l-28 -17h-68v15l55 35q30 21 30 34q0 22 -37 22q-46 0 -96 -32h-15v55q50 30 120 30zM81 720h92v-720h-92v720z" />
    <glyph glyph-name="uni1EC9" unicode="&#x1ec9;" horiz-adv-x="233" 
d="M136 740q44 0 72 -18.5t28 -48.5q0 -7 -1 -12.5t-3.5 -11t-4.5 -9.5t-7 -9l-7.5 -7.5t-9 -7.5t-8.5 -6.5t-10 -6.5t-10 -6l-28 -17h-68v15l55 35q17 11 23.5 18t6.5 17q0 21 -37 21q-46 0 -96 -32h-15v55q52 31 120 31zM73 509h88v-509h-88v509z" />
    <glyph glyph-name="uni1ECA" unicode="&#x1eca;" horiz-adv-x="255" 
d="M173 0h-92v720h92v-720zM66 -85h122v-98h-122v98z" />
    <glyph glyph-name="uni1ECB" unicode="&#x1ecb;" horiz-adv-x="233" 
d="M56 703h122v-98h-122v98zM161 0h-88v509h88v-509zM56 -183v98h122v-98h-122z" />
    <glyph glyph-name="uni1ECC" unicode="&#x1ecc;" horiz-adv-x="810" 
d="M45 360q0 172 99.5 272t260.5 100t261 -100t100 -272t-100 -272t-261 -100t-260.5 100t-99.5 272zM136 360q0 -139 73 -218.5t196 -79.5t196 79.5t73 218.5t-73 218.5t-196 79.5t-196 -79.5t-73 -218.5zM344 -85h122v-98h-122v98z" />
    <glyph glyph-name="uni1ECD" unicode="&#x1ecd;" horiz-adv-x="592" 
d="M42 255q0 121 69.5 193.5t184.5 72.5t184.5 -72.5t69.5 -193.5t-69.5 -194t-184.5 -73t-184.5 73t-69.5 194zM130 255q0 -94 45 -146.5t121 -52.5q75 0 120 52.5t45 146.5q0 93 -45 145.5t-120 52.5t-120.5 -52.5t-45.5 -145.5zM235 -85h122v-98h-122v98z" />
    <glyph glyph-name="uni1ECE" unicode="&#x1ece;" horiz-adv-x="810" 
d="M304 903q50 30 120 30q44 0 72 -18t28 -48q0 -19 -11 -34.5t-20 -22t-30 -19.5l-28 -17h-68v15l55 35q30 21 30 34q0 22 -37 22q-46 0 -96 -32h-15v55zM45 360q0 172 99.5 272t260.5 100t261 -100t100 -272t-100 -272t-261 -100t-260.5 100t-99.5 272zM136 360
q0 -139 73 -218.5t196 -79.5t196 79.5t73 218.5t-73 218.5t-196 79.5t-196 -79.5t-73 -218.5z" />
    <glyph glyph-name="uni1ECF" unicode="&#x1ecf;" horiz-adv-x="592" 
d="M195 709q52 31 120 31q44 0 72 -18.5t28 -48.5q0 -7 -1 -12.5t-3.5 -11t-4.5 -9.5t-7 -9l-7.5 -7.5t-9 -7.5t-8.5 -6.5t-10 -6.5t-10 -6l-28 -17h-68v15l55 35q17 11 23.5 18t6.5 17q0 21 -37 21q-46 0 -96 -32h-15v55zM42 255q0 121 69.5 193.5t184.5 72.5t184.5 -72.5
t69.5 -193.5t-69.5 -194t-184.5 -73t-184.5 73t-69.5 194zM130 255q0 -94 45 -146.5t121 -52.5q75 0 120 52.5t45 146.5q0 93 -45 145.5t-120 52.5t-120.5 -52.5t-45.5 -145.5z" />
    <glyph glyph-name="uni1ED0" unicode="&#x1ed0;" horiz-adv-x="810" 
d="M698 988l-89 -111h-70v15l57 111h102v-15zM405 850l-98 -76h-87v18l130 108h110l129 -108v-18h-87zM405 732q161 0 261 -100t100 -272t-100 -272t-261 -100t-260.5 100t-99.5 272t99.5 272t260.5 100zM405 62q123 0 196 79.5t73 218.5t-73 218.5t-196 79.5t-196 -79.5
t-73 -218.5t73 -218.5t196 -79.5z" />
    <glyph glyph-name="uni1ED1" unicode="&#x1ed1;" horiz-adv-x="592" 
d="M479 840h84v-15l-72 -124h-66v15zM296 671l-85 -91h-74v15l107 125h102l108 -125v-15h-74zM296 521q115 0 184.5 -72.5t69.5 -193.5t-69.5 -194t-184.5 -73t-184.5 73t-69.5 194t69.5 193.5t184.5 72.5zM296 56q75 0 120 52.5t45 146.5q0 93 -45 145.5t-120 52.5
t-120.5 -52.5t-45.5 -145.5q0 -94 45 -146.5t121 -52.5z" />
    <glyph glyph-name="uni1ED2" unicode="&#x1ed2;" horiz-adv-x="810" 
d="M624 877h-70l-89 111v15h102l57 -111v-15zM405 850l-98 -76h-87v18l130 108h110l129 -108v-18h-87zM405 732q161 0 261 -100t100 -272t-100 -272t-261 -100t-260.5 100t-99.5 272t99.5 272t260.5 100zM405 62q123 0 196 79.5t73 218.5t-73 218.5t-196 79.5t-196 -79.5
t-73 -218.5t73 -218.5t196 -79.5z" />
    <glyph glyph-name="uni1ED3" unicode="&#x1ed3;" horiz-adv-x="592" 
d="M513 701h-67l-71 124v15h84l54 -124v-15zM296 671l-85 -91h-74v15l107 125h102l108 -125v-15h-74zM296 521q115 0 184.5 -72.5t69.5 -193.5t-69.5 -194t-184.5 -73t-184.5 73t-69.5 194t69.5 193.5t184.5 72.5zM296 56q75 0 120 52.5t45 146.5q0 93 -45 145.5t-120 52.5
t-120.5 -52.5t-45.5 -145.5q0 -94 45 -146.5t121 -52.5z" />
    <glyph glyph-name="uni1ED4" unicode="&#x1ed4;" horiz-adv-x="810" 
d="M578 983q-46 0 -96 -32h-15v55q50 30 120 30q44 0 72 -18t28 -48q0 -19 -11 -34.5t-20 -22t-30 -19.5l-28 -17h-68v15l55 35q30 21 30 34q0 22 -37 22zM405 850l-98 -76h-87v18l130 108h110l129 -108v-18h-87zM405 732q161 0 261 -100t100 -272t-100 -272t-261 -100
t-260.5 100t-99.5 272t99.5 272t260.5 100zM405 62q123 0 196 79.5t73 218.5t-73 218.5t-196 79.5t-196 -79.5t-73 -218.5t73 -218.5t196 -79.5z" />
    <glyph glyph-name="uni1ED5" unicode="&#x1ed5;" horiz-adv-x="592" 
d="M459 806q-46 0 -96 -32h-15v55q52 31 120 31q44 0 72 -18.5t28 -48.5q0 -7 -1 -12.5t-3.5 -11t-4.5 -9.5t-7 -9l-7.5 -7.5t-9 -7.5t-8.5 -6.5t-10 -6.5t-10 -6l-28 -17h-68v15l55 35q17 11 23.5 18t6.5 17q0 21 -37 21zM296 671l-85 -91h-74v15l107 125h102l108 -125v-15
h-74zM296 521q115 0 184.5 -72.5t69.5 -193.5t-69.5 -194t-184.5 -73t-184.5 73t-69.5 194t69.5 193.5t184.5 72.5zM296 56q75 0 120 52.5t45 146.5q0 93 -45 145.5t-120 52.5t-120.5 -52.5t-45.5 -145.5q0 -94 45 -146.5t121 -52.5z" />
    <glyph glyph-name="uni1ED6" unicode="&#x1ed6;" horiz-adv-x="810" 
d="M329 1016q-47 0 -47 -53h-60v15q2 44 28 72.5t73 28.5q39 0 86.5 -30.5t69.5 -30.5q46 0 46 52h61v-15q-3 -43 -29 -71.5t-73 -28.5q-38 0 -85.5 30.5t-69.5 30.5zM403 1018v-2h1v2h-1zM405 850l-98 -76h-87v18l130 108h110l129 -108v-18h-87zM405 732q161 0 261 -100
t100 -272t-100 -272t-261 -100t-260.5 100t-99.5 272t99.5 272t260.5 100zM405 62q123 0 196 79.5t73 218.5t-73 218.5t-196 79.5t-196 -79.5t-73 -218.5t73 -218.5t196 -79.5z" />
    <glyph glyph-name="uni1ED7" unicode="&#x1ed7;" horiz-adv-x="592" 
d="M224 817q-42 0 -44 -54h-55v15q2 44 27 71t69 27q37 0 83 -30t64 -30q43 0 43 54h56v-15q-3 -44 -28 -71t-69 -27q-36 0 -82 30t-64 30zM296 654l-94 -74h-80v15l123 106h102l124 -106v-15h-81zM296 521q115 0 184.5 -72.5t69.5 -193.5t-69.5 -194t-184.5 -73t-184.5 73
t-69.5 194t69.5 193.5t184.5 72.5zM296 56q75 0 120 52.5t45 146.5q0 93 -45 145.5t-120 52.5t-120.5 -52.5t-45.5 -145.5q0 -94 45 -146.5t121 -52.5z" />
    <glyph glyph-name="uni1ED8" unicode="&#x1ed8;" horiz-adv-x="810" 
d="M405 850l-98 -76h-87v18l130 108h110l129 -108v-18h-87zM405 732q161 0 261 -100t100 -272t-100 -272t-261 -100t-260.5 100t-99.5 272t99.5 272t260.5 100zM405 62q123 0 196 79.5t73 218.5t-73 218.5t-196 79.5t-196 -79.5t-73 -218.5t73 -218.5t196 -79.5zM344 -183
v98h122v-98h-122z" />
    <glyph glyph-name="uni1ED9" unicode="&#x1ed9;" horiz-adv-x="592" 
d="M296 671l-85 -91h-74v15l107 125h102l108 -125v-15h-74zM296 521q115 0 184.5 -72.5t69.5 -193.5t-69.5 -194t-184.5 -73t-184.5 73t-69.5 194t69.5 193.5t184.5 72.5zM296 56q75 0 120 52.5t45 146.5q0 93 -45 145.5t-120 52.5t-120.5 -52.5t-45.5 -145.5
q0 -94 45 -146.5t121 -52.5zM235 -183v98h122v-98h-122z" />
    <glyph glyph-name="uni1EDA" unicode="&#x1eda;" horiz-adv-x="817" 
d="M660 638q106 -103 106 -278q0 -172 -100 -272t-261 -100t-260.5 100t-99.5 272t99.5 272t260.5 100q109 0 191 -47q113 10 113 105q0 41 -27 95v15h78q26 -59 26 -112q0 -122 -126 -150zM522 885l-106 -111h-77v15l77 111h106v-15zM405 62q123 0 196 79.5t73 218.5
t-73 218.5t-196 79.5t-196 -79.5t-73 -218.5t73 -218.5t196 -79.5z" />
    <glyph glyph-name="uni1EDB" unicode="&#x1edb;" horiz-adv-x="623" 
d="M416 705l-105 -125h-72v15l81 125h96v-15zM614 595q0 -125 -129 -151q65 -75 65 -189q0 -121 -69.5 -194t-184.5 -73t-184.5 73t-69.5 194t69.5 193.5t184.5 72.5q73 0 130 -31q114 9 114 107q0 36 -17 81v15h71q20 -50 20 -98zM296 56q75 0 120 52.5t45 146.5
q0 93 -45 145.5t-120 52.5t-120.5 -52.5t-45.5 -145.5q0 -94 45 -146.5t121 -52.5z" />
    <glyph glyph-name="uni1EDC" unicode="&#x1edc;" horiz-adv-x="817" 
d="M660 638q106 -103 106 -278q0 -172 -100 -272t-261 -100t-260.5 100t-99.5 272t99.5 272t260.5 100q109 0 191 -47q113 10 113 105q0 41 -27 95v15h78q26 -59 26 -112q0 -122 -126 -150zM468 774h-77l-106 111v15h106l77 -111v-15zM405 62q123 0 196 79.5t73 218.5
t-73 218.5t-196 79.5t-196 -79.5t-73 -218.5t73 -218.5t196 -79.5z" />
    <glyph glyph-name="uni1EDD" unicode="&#x1edd;" horiz-adv-x="623" 
d="M351 580h-72l-105 125v15h96l81 -125v-15zM614 595q0 -125 -129 -151q65 -75 65 -189q0 -121 -69.5 -194t-184.5 -73t-184.5 73t-69.5 194t69.5 193.5t184.5 72.5q73 0 130 -31q114 9 114 107q0 36 -17 81v15h71q20 -50 20 -98zM296 56q75 0 120 52.5t45 146.5
q0 93 -45 145.5t-120 52.5t-120.5 -52.5t-45.5 -145.5q0 -94 45 -146.5t121 -52.5z" />
    <glyph glyph-name="uni1EDE" unicode="&#x1ede;" horiz-adv-x="817" 
d="M415 880q-46 0 -96 -32h-15v55q50 30 120 30q44 0 72 -18t28 -48q0 -19 -11 -34.5t-20 -22t-30 -19.5l-28 -17h-68v15l55 35q30 21 30 34q0 22 -37 22zM660 638q106 -103 106 -278q0 -172 -100 -272t-261 -100t-260.5 100t-99.5 272t99.5 272t260.5 100q109 0 191 -47
q113 10 113 105q0 41 -27 95v15h78q26 -59 26 -112q0 -122 -126 -150zM405 62q123 0 196 79.5t73 218.5t-73 218.5t-196 79.5t-196 -79.5t-73 -218.5t73 -218.5t196 -79.5z" />
    <glyph glyph-name="uni1EDF" unicode="&#x1edf;" horiz-adv-x="623" 
d="M306 686q-46 0 -96 -32h-15v55q52 31 120 31q44 0 72 -18.5t28 -48.5q0 -7 -1 -12.5t-3.5 -11t-4.5 -9.5t-7 -9l-7.5 -7.5t-9 -7.5t-8.5 -6.5t-10 -6.5t-10 -6l-28 -17h-68v15l55 35q17 11 23.5 18t6.5 17q0 21 -37 21zM614 595q0 -125 -129 -151q65 -75 65 -189
q0 -121 -69.5 -194t-184.5 -73t-184.5 73t-69.5 194t69.5 193.5t184.5 72.5q73 0 130 -31q114 9 114 107q0 36 -17 81v15h71q20 -50 20 -98zM296 56q75 0 120 52.5t45 146.5q0 93 -45 145.5t-120 52.5t-120.5 -52.5t-45.5 -145.5q0 -94 45 -146.5t121 -52.5z" />
    <glyph glyph-name="uni1EE0" unicode="&#x1ee0;" horiz-adv-x="817" 
d="M660 638q106 -103 106 -278q0 -172 -100 -272t-261 -100t-260.5 100t-99.5 272t99.5 272t260.5 100q109 0 191 -47q113 10 113 105q0 41 -27 95v15h78q26 -59 26 -112q0 -122 -126 -150zM329 836q-47 0 -47 -53h-60v15q2 44 28 72.5t73 28.5q39 0 86.5 -30.5t69.5 -30.5
q46 0 46 52h61v-15q-3 -43 -29 -71.5t-73 -28.5q-38 0 -85.5 30.5t-69.5 30.5zM403 838v-2h1v2h-1zM405 62q123 0 196 79.5t73 218.5t-73 218.5t-196 79.5t-196 -79.5t-73 -218.5t73 -218.5t196 -79.5z" />
    <glyph glyph-name="uni1EE1" unicode="&#x1ee1;" horiz-adv-x="623" 
d="M220 651q-44 0 -46 -57h-58v15q2 45 27 74t71 29q36 0 80 -31.5t63 -31.5q45 0 45 57h59v-15q-3 -45 -28 -74t-70 -29q-29 0 -55.5 16t-48.5 31.5t-39 15.5zM614 595q0 -125 -129 -151q65 -75 65 -189q0 -121 -69.5 -194t-184.5 -73t-184.5 73t-69.5 194t69.5 193.5
t184.5 72.5q73 0 130 -31q114 9 114 107q0 36 -17 81v15h71q20 -50 20 -98zM296 56q75 0 120 52.5t45 146.5q0 93 -45 145.5t-120 52.5t-120.5 -52.5t-45.5 -145.5q0 -94 45 -146.5t121 -52.5z" />
    <glyph glyph-name="uni1EE2" unicode="&#x1ee2;" horiz-adv-x="817" 
d="M660 638q106 -103 106 -278q0 -172 -100 -272t-261 -100t-260.5 100t-99.5 272t99.5 272t260.5 100q109 0 191 -47q113 10 113 105q0 41 -27 95v15h78q26 -59 26 -112q0 -122 -126 -150zM405 62q123 0 196 79.5t73 218.5t-73 218.5t-196 79.5t-196 -79.5t-73 -218.5
t73 -218.5t196 -79.5zM344 -183v98h122v-98h-122z" />
    <glyph glyph-name="uni1EE3" unicode="&#x1ee3;" horiz-adv-x="623" 
d="M614 595q0 -125 -129 -151q65 -75 65 -189q0 -121 -69.5 -194t-184.5 -73t-184.5 73t-69.5 194t69.5 193.5t184.5 72.5q73 0 130 -31q114 9 114 107q0 36 -17 81v15h71q20 -50 20 -98zM296 56q75 0 120 52.5t45 146.5q0 93 -45 145.5t-120 52.5t-120.5 -52.5
t-45.5 -145.5q0 -94 45 -146.5t121 -52.5zM235 -183v98h122v-98h-122z" />
    <glyph glyph-name="uni1EE4" unicode="&#x1ee4;" horiz-adv-x="723" 
d="M77 720h92v-458q0 -200 193 -200q93 0 142.5 50t49.5 150v458h92v-454q0 -133 -73 -205.5t-211 -72.5t-211.5 72.5t-73.5 205.5v454zM299 -85h122v-98h-122v98z" />
    <glyph glyph-name="uni1EE5" unicode="&#x1ee5;" horiz-adv-x="599" 
d="M526 0h-85v75h-10q-51 -86 -171 -86q-87 0 -139 47.5t-52 134.5v338h88v-329q0 -61 33.5 -91.5t90.5 -30.5q68 0 112.5 42.5t44.5 124.5v284h88v-509zM237 -85h122v-98h-122v98z" />
    <glyph glyph-name="uni1EE6" unicode="&#x1ee6;" horiz-adv-x="723" 
d="M261 903q50 30 120 30q44 0 72 -18t28 -48q0 -19 -11 -34.5t-20 -22t-30 -19.5l-28 -17h-68v15l55 35q30 21 30 34q0 22 -37 22q-46 0 -96 -32h-15v55zM77 720h92v-458q0 -200 193 -200q93 0 142.5 50t49.5 150v458h92v-454q0 -133 -73 -205.5t-211 -72.5t-211.5 72.5
t-73.5 205.5v454z" />
    <glyph glyph-name="uni1EE7" unicode="&#x1ee7;" horiz-adv-x="599" 
d="M197 709q52 31 120 31q44 0 72 -18.5t28 -48.5q0 -7 -1 -12.5t-3.5 -11t-4.5 -9.5t-7 -9l-7.5 -7.5t-9 -7.5t-8.5 -6.5t-10 -6.5t-10 -6l-28 -17h-68v15l55 35q17 11 23.5 18t6.5 17q0 21 -37 21q-46 0 -96 -32h-15v55zM526 0h-85v75h-10q-51 -86 -171 -86
q-87 0 -139 47.5t-52 134.5v338h88v-329q0 -61 33.5 -91.5t90.5 -30.5q68 0 112.5 42.5t44.5 124.5v284h88v-509z" />
    <glyph glyph-name="uni1EE8" unicode="&#x1ee8;" horiz-adv-x="797" 
d="M786 900q27 -56 27 -112q0 -63 -38.5 -95.5t-105.5 -32.5h-23v-394q0 -133 -73 -205.5t-211 -72.5t-211.5 72.5t-73.5 205.5v454h92v-458q0 -200 193 -200q93 0 142.5 50t49.5 150v458h105q77 0 77 70q0 41 -27 95v15h77zM478 885l-106 -111h-77v15l77 111h106v-15z" />
    <glyph glyph-name="uni1EE9" unicode="&#x1ee9;" horiz-adv-x="707" 
d="M418 705l-106 -125h-72v15l81 125h97v-15zM662 693q29 -63 29 -115q0 -61 -37.5 -92.5t-103.5 -31.5h-24v-454h-85v75h-10q-51 -86 -171 -86q-87 0 -139 47.5t-52 134.5v338h88v-329q0 -61 33.5 -91.5t90.5 -30.5q68 0 112.5 42.5t44.5 124.5v284h102q78 0 78 70
q0 43 -29 99v15h73z" />
    <glyph glyph-name="uni1EEA" unicode="&#x1eea;" horiz-adv-x="797" 
d="M786 900q27 -56 27 -112q0 -63 -38.5 -95.5t-105.5 -32.5h-23v-394q0 -133 -73 -205.5t-211 -72.5t-211.5 72.5t-73.5 205.5v454h92v-458q0 -200 193 -200q93 0 142.5 50t49.5 150v458h105q77 0 77 70q0 41 -27 95v15h77zM424 774h-77l-106 111v15h106l77 -111v-15z" />
    <glyph glyph-name="uni1EEB" unicode="&#x1eeb;" horiz-adv-x="707" 
d="M353 580h-72l-106 125v15h97l81 -125v-15zM662 693q29 -63 29 -115q0 -61 -37.5 -92.5t-103.5 -31.5h-24v-454h-85v75h-10q-51 -86 -171 -86q-87 0 -139 47.5t-52 134.5v338h88v-329q0 -61 33.5 -91.5t90.5 -30.5q68 0 112.5 42.5t44.5 124.5v284h102q78 0 78 70
q0 43 -29 99v15h73z" />
    <glyph glyph-name="uni1EEC" unicode="&#x1eec;" horiz-adv-x="797" 
d="M372 880q-47 0 -97 -32h-15v55q50 30 120 30q45 0 73 -18t28 -48q0 -19 -11 -34.5t-20.5 -22t-30.5 -19.5l-27 -17h-68v15l55 35q30 21 30 34q0 22 -37 22zM786 900q27 -56 27 -112q0 -63 -38.5 -95.5t-105.5 -32.5h-23v-394q0 -133 -73 -205.5t-211 -72.5t-211.5 72.5
t-73.5 205.5v454h92v-458q0 -200 193 -200q93 0 142.5 50t49.5 150v458h105q77 0 77 70q0 41 -27 95v15h77z" />
    <glyph glyph-name="uni1EED" unicode="&#x1eed;" horiz-adv-x="707" 
d="M307 686q-46 0 -96 -32h-15v55q52 31 120 31q44 0 72.5 -18.5t28.5 -48.5q0 -19 -11.5 -34.5t-19 -21t-31.5 -20.5l-27 -17h-68v15l55 35q17 11 23.5 18t6.5 17q0 21 -38 21zM662 693q29 -63 29 -115q0 -61 -37.5 -92.5t-103.5 -31.5h-24v-454h-85v75h-10
q-51 -86 -171 -86q-87 0 -139 47.5t-52 134.5v338h88v-329q0 -61 33.5 -91.5t90.5 -30.5q68 0 112.5 42.5t44.5 124.5v284h102q78 0 78 70q0 43 -29 99v15h73z" />
    <glyph glyph-name="uni1EEE" unicode="&#x1eee;" horiz-adv-x="797" 
d="M786 900q27 -56 27 -112q0 -63 -38.5 -95.5t-105.5 -32.5h-23v-394q0 -133 -73 -205.5t-211 -72.5t-211.5 72.5t-73.5 205.5v454h92v-458q0 -200 193 -200q93 0 142.5 50t49.5 150v458h105q77 0 77 70q0 41 -27 95v15h77zM286 836q-47 0 -47 -53h-60v15q2 44 28 72.5
t73 28.5q39 0 86.5 -30.5t69.5 -30.5q46 0 46 52h61v-15q-3 -43 -29 -71.5t-73 -28.5q-38 0 -85.5 30.5t-69.5 30.5zM360 838v-2h1v2h-1z" />
    <glyph glyph-name="uni1EEF" unicode="&#x1eef;" horiz-adv-x="707" 
d="M229 651q-45 0 -45 -57h-59v15q3 45 28 74t70 29q29 0 55.5 -16t48.5 -31.5t39 -15.5q44 0 46 57h58v-15q-2 -45 -27 -74t-71 -29q-36 0 -80 31.5t-63 31.5zM662 693q29 -63 29 -115q0 -61 -37.5 -92.5t-103.5 -31.5h-24v-454h-85v75h-10q-51 -86 -171 -86
q-87 0 -139 47.5t-52 134.5v338h88v-329q0 -61 33.5 -91.5t90.5 -30.5q68 0 112.5 42.5t44.5 124.5v284h102q78 0 78 70q0 43 -29 99v15h73z" />
    <glyph glyph-name="uni1EF0" unicode="&#x1ef0;" horiz-adv-x="797" 
d="M786 900q27 -56 27 -112q0 -63 -38.5 -95.5t-105.5 -32.5h-23v-394q0 -133 -73 -205.5t-211 -72.5t-211.5 72.5t-73.5 205.5v454h92v-458q0 -200 193 -200q93 0 142.5 50t49.5 150v458h105q77 0 77 70q0 41 -27 95v15h77zM299 -183v98h122v-98h-122z" />
    <glyph glyph-name="uni1EF1" unicode="&#x1ef1;" horiz-adv-x="707" 
d="M662 693q29 -63 29 -115q0 -61 -37.5 -92.5t-103.5 -31.5h-24v-454h-85v75h-10q-51 -86 -171 -86q-87 0 -139 47.5t-52 134.5v338h88v-329q0 -61 33.5 -91.5t90.5 -30.5q68 0 112.5 42.5t44.5 124.5v284h102q78 0 78 70q0 43 -29 99v15h73zM236 -183v98h123v-98h-123z
" />
    <glyph glyph-name="Ygrave" unicode="&#x1ef2;" horiz-adv-x="685" 
d="M328 774l-106 111v15h106l77 -111v-15h-77zM14 720h100l224 -353h10l224 353h99v-15l-282 -431v-274h-92v274l-283 431v15z" />
    <glyph glyph-name="ygrave" unicode="&#x1ef3;" horiz-adv-x="541" 
d="M254 580l-105 125v15h96l81 -125v-15h-72zM17 509h91l158 -418h10l157 418h91v-15l-283 -694h-90v15l73 171l-207 508v15z" />
    <glyph glyph-name="uni1EF4" unicode="&#x1ef4;" horiz-adv-x="685" 
d="M14 720h100l224 -353h10l224 353h99v-15l-282 -431v-274h-92v274l-283 431v15zM282 -85h122v-98h-122v98z" />
    <glyph glyph-name="uni1EF5" unicode="&#x1ef5;" horiz-adv-x="541" 
d="M17 509h91l158 -418h10l157 418h91v-15l-283 -694h-90v15l73 171l-207 508v15zM372 -85h122v-98h-122v98z" />
    <glyph glyph-name="uni1EF6" unicode="&#x1ef6;" horiz-adv-x="685" 
d="M242 903q50 30 120 30q44 0 72 -18t28 -48q0 -19 -11 -34.5t-20 -22t-30 -19.5l-28 -17h-68v15l55 35q30 21 30 34q0 22 -37 22q-46 0 -96 -32h-15v55zM14 720h100l224 -353h10l224 353h99v-15l-282 -431v-274h-92v274l-283 431v15z" />
    <glyph glyph-name="uni1EF7" unicode="&#x1ef7;" horiz-adv-x="541" 
d="M170 709q52 31 120 31q44 0 72 -18.5t28 -48.5q0 -7 -1 -12.5t-3.5 -11t-4.5 -9.5t-7 -9l-7.5 -7.5t-9 -7.5t-8.5 -6.5t-10 -6.5t-10 -6l-28 -17h-68v15l55 35q17 11 23.5 18t6.5 17q0 21 -37 21q-46 0 -96 -32h-15v55zM17 509h91l158 -418h10l157 418h91v-15l-283 -694
h-90v15l73 171l-207 508v15z" />
    <glyph glyph-name="uni1EF8" unicode="&#x1ef8;" horiz-adv-x="685" 
d="M267 836q-47 0 -47 -53h-60v15q2 44 28 72.5t73 28.5q39 0 86.5 -30.5t69.5 -30.5q46 0 46 52h61v-15q-3 -43 -29 -71.5t-73 -28.5q-38 0 -85.5 30.5t-69.5 30.5zM341 838v-2h1v2h-1zM572 720h99v-15l-282 -431v-274h-92v274l-283 431v15h100l224 -353h10z" />
    <glyph glyph-name="uni1EF9" unicode="&#x1ef9;" horiz-adv-x="541" 
d="M202 651q-44 0 -46 -57h-58v15q2 45 27 74t71 29q36 0 80 -31.5t63 -31.5q44 0 46 57h58v-15q-2 -45 -27 -74t-71 -29q-36 0 -80 31.5t-63 31.5zM433 509h91v-15l-283 -694h-90v15l73 171l-207 508v15h91l158 -418h10z" />
    <glyph glyph-name="endash" unicode="&#x2013;" horiz-adv-x="636" 
d="M60 294h516v-70h-516v70z" />
    <glyph glyph-name="emdash" unicode="&#x2014;" horiz-adv-x="894" 
d="M60 294h774v-70h-774v70z" />
    <glyph glyph-name="quoteleft" unicode="&#x2018;" horiz-adv-x="226" 
d="M167 681q-54 0 -54 -56v-22h60v-107h-119v130q0 106 110 106h23v-51h-20z" />
    <glyph glyph-name="quoteright" unicode="&#x2019;" horiz-adv-x="226" 
d="M54 720h119v-130q0 -52 -29 -79t-82 -27h-22v51h20q53 0 53 55v23h-59v107z" />
    <glyph glyph-name="quotesinglbase" unicode="&#x201a;" horiz-adv-x="226" 
d="M54 107h119v-131q0 -52 -29 -79t-82 -27h-22v52h20q53 0 53 55v23h-59v107z" />
    <glyph glyph-name="quotedblleft" unicode="&#x201c;" horiz-adv-x="399" 
d="M54 626q0 106 110 106h23v-51h-20q-54 0 -54 -56v-22h60v-107h-119v130zM339 681q-53 0 -53 -56v-22h60v-107h-120v130q0 52 29 79t82 27h23v-51h-21z" />
    <glyph glyph-name="quotedblright" unicode="&#x201d;" horiz-adv-x="399" 
d="M54 613v107h119v-130q0 -52 -29 -79t-82 -27h-22v51h20q53 0 53 55v23h-59zM226 720h119v-130q0 -106 -110 -106h-23v51h20q54 0 54 55v23h-60v107z" />
    <glyph glyph-name="quotedblbase" unicode="&#x201e;" horiz-adv-x="399" 
d="M54 0v107h119v-131q0 -52 -29 -79t-82 -27h-22v52h20q53 0 53 55v23h-59zM226 107h119v-131q0 -52 -28.5 -79t-81.5 -27h-23v52h20q54 0 54 55v23h-60v107z" />
    <glyph glyph-name="dagger" unicode="&#x2020;" horiz-adv-x="548" 
d="M511 506v-71h-193v-435h-88v435h-192v71h192v214h88v-214h193z" />
    <glyph glyph-name="daggerdbl" unicode="&#x2021;" horiz-adv-x="548" 
d="M511 435h-193v-350h193v-71h-193v-214h-88v214h-192v71h192v350h-192v71h192v214h88v-214h193v-71z" />
    <glyph glyph-name="bullet" unicode="&#x2022;" horiz-adv-x="619" 
d="M310 -12q-115 0 -190.5 75.5t-75.5 191.5t75.5 191t190.5 75q114 0 189.5 -75t75.5 -191t-75.5 -191.5t-189.5 -75.5z" />
    <glyph glyph-name="ellipsis" unicode="&#x2026;" horiz-adv-x="610" 
d="M54 107h119v-107h-119v107zM245 107h119v-107h-119v107zM437 107h119v-107h-119v107z" />
    <glyph glyph-name="perthousand" unicode="&#x2030;" horiz-adv-x="1191" 
d="M223 405q-72 0 -120.5 47.5t-48.5 116.5t48.5 116t120.5 47q73 0 121.5 -47t48.5 -116t-48.5 -116.5t-121.5 -47.5zM744 720h94v-15l-669 -705h-94v15zM223 470q43 0 69 28t26 71q0 42 -26 69.5t-69 27.5q-42 0 -68.5 -27.5t-26.5 -69.5q0 -43 26 -71t69 -28zM534 152
q0 69 47 116t117 47q83 0 133 -64h10q48 64 132 64q70 0 117 -47t47 -116t-47 -116.5t-117 -47.5q-84 0 -132 64h-10q-50 -64 -133 -64q-70 0 -117 47.5t-47 116.5zM608 152q0 -43 26 -71t69 -28t69 28t26 71q0 42 -26 69.5t-69 27.5q-42 0 -68.5 -27.5t-26.5 -69.5z
M873 152q0 -43 26 -71t69 -28t69 28t26 71q0 42 -26.5 69.5t-68.5 27.5q-43 0 -69 -27.5t-26 -69.5z" />
    <glyph glyph-name="prime" unicode="&#x2032;" horiz-adv-x="213" 
d="M125 472h-63v15l5 233h95v-15z" />
    <glyph glyph-name="primedbl" unicode="&#x2033;" horiz-adv-x="369" 
d="M122 472h-60v15l5 233h92v-15zM277 472h-60v15l8 233h93v-15z" />
    <glyph glyph-name="guilsinglleft" unicode="&#x2039;" horiz-adv-x="310" 
d="M167 70l-123 182v14l123 182h84v-15l-119 -174l119 -174v-15h-84z" />
    <glyph glyph-name="guilsinglright" unicode="&#x203a;" horiz-adv-x="310" 
d="M143 70h-83v15l118 174l-118 174v15h83l123 -182v-14z" />
    <glyph glyph-name="fraction" unicode="&#x2044;" horiz-adv-x="834" 
d="M704 720h94v-15l-668 -705h-94v15z" />
    <glyph glyph-name="Euro" unicode="&#x20ac;" horiz-adv-x="820" 
d="M694 234h87v-15q-7 -40 -27 -78t-54 -73.5t-90 -57.5t-126 -22q-131 0 -220.5 75.5t-112.5 209.5h-115v15l5 29h105q-2 28 -2 43q0 16 2 44h-101v15l5 29h101q24 134 113.5 209t219.5 75q70 0 125 -21t88 -56t52 -73.5t25 -80.5v-15h-87q-4 31 -15.5 59t-33.5 54.5
t-61.5 42.5t-91.5 16q-94 0 -157.5 -55t-83.5 -155h247v-15l-6 -29h-247q-2 -28 -2 -44q0 -15 2 -43h243v-15l-5 -29h-232q19 -100 83 -155.5t158 -55.5q52 0 92 16t63 43.5t35.5 55t18.5 57.5z" />
    <glyph glyph-name="uni20BF" unicode="&#x20bf;" horiz-adv-x="674" 
d="M634 192q0 -87 -59.5 -137t-153.5 -55v-120h-48v120h-90v-120h-48v120h-154v720h154v120h48v-120h90v120h48v-120q90 -5 146.5 -52.5t56.5 -128.5q0 -74 -41 -113t-89 -51v-10q23 -5 44 -14.5t44.5 -28.5t37.5 -52.5t14 -77.5zM173 644v-238h212q66 0 107 30t41 89
t-41 89t-107 30h-212zM387 76q70 0 113 32t43 94t-43 95t-113 33h-214v-254h214z" />
    <glyph glyph-name="uni2116" unicode="&#x2116;" horiz-adv-x="1288" 
d="M740 473q0 114 69.5 184t183.5 70t184 -70t70 -184q0 -113 -70 -183t-184 -70t-183.5 70t-69.5 183zM81 720h114l354 -586h10v586h90v-720h-114l-353 586h-10v-586h-91v720zM828 473q0 -87 45 -137t120 -50t120 50t45 137t-45 137t-120 50t-120 -50t-45 -137zM764 71h458
v-71h-458v71z" />
    <glyph glyph-name="trademark" unicode="&#x2122;" horiz-adv-x="884" 
d="M33 676v44h328v-44h-140v-316h-48v316h-140zM403 360v360h79l123 -299h10l123 299h79v-360h-48v295h-10l-122 -295h-54l-122 295h-10v-295h-48z" />
    <glyph glyph-name="arrowleft" unicode="&#x2190;" horiz-adv-x="847" 
d="M330 557l48 -48l-213 -213h616v-73h-616l213 -213l-48 -48l-281 282v31z" />
    <glyph glyph-name="arrowup" unicode="&#x2191;" horiz-adv-x="689" 
d="M47 450l282 282h31l282 -282l-48 -47l-212 212v-615h-75v615l-212 -212z" />
    <glyph glyph-name="arrowright" unicode="&#x2192;" horiz-adv-x="847" 
d="M517 557l282 -282v-31l-282 -282l-48 48l214 213h-616v73h616l-214 213z" />
    <glyph glyph-name="arrowdown" unicode="&#x2193;" horiz-adv-x="689" 
d="M47 270l48 47l212 -212v615h75v-615l212 212l48 -47l-282 -282h-31z" />
    <glyph glyph-name="arrowboth" unicode="&#x2194;" horiz-adv-x="841" 
d="M534 534l259 -259v-31l-259 -259l-48 48l191 190h-512l190 -190l-48 -48l-258 259v31l258 259l48 -48l-190 -190h512l-191 190z" />
    <glyph glyph-name="arrowupdn" unicode="&#x2195;" horiz-adv-x="643" 
d="M359 105l189 189l48 -48l-259 -258h-31l-259 258l48 48l189 -189v510l-189 -189l-48 48l259 258h31l259 -258l-48 -48l-189 189v-510z" />
    <glyph glyph-name="uni2196" unicode="&#x2196;" horiz-adv-x="648" 
d="M494 509v-67h-300l407 -407l-53 -53l-408 406v-300h-67v398l23 23h398z" />
    <glyph glyph-name="uni2197" unicode="&#x2197;" horiz-adv-x="648" 
d="M154 509h399l23 -23v-398h-68v300l-407 -406l-54 53l407 407h-300v67z" />
    <glyph glyph-name="uni2198" unicode="&#x2198;" horiz-adv-x="648" 
d="M154 0v68h300l-407 406l54 54l407 -407v300h68v-398l-23 -23h-399z" />
    <glyph glyph-name="uni2199" unicode="&#x2199;" horiz-adv-x="648" 
d="M494 0h-398l-23 23v398h67v-300l408 407l53 -54l-407 -406h300v-68z" />
    <glyph glyph-name="emptyset" unicode="&#x2205;" horiz-adv-x="680" 
d="M654 630l-100 -100q55 -71 55 -166q0 -114 -76.5 -190.5t-192.5 -76.5q-94 0 -166 53l-100 -100l-48 48l100 100q-55 71 -55 166q0 114 76.5 190.5t192.5 76.5q94 0 166 -53l100 100zM150 364q0 -63 30 -112l275 275q-50 37 -115 37q-84 0 -137 -56.5t-53 -143.5z
M530 364q0 63 -30 112l-275 -275q50 -37 115 -37q84 0 137 56.5t53 143.5z" />
    <glyph glyph-name="minus" unicode="&#x2212;" horiz-adv-x="680" 
d="M94 399h492v-70h-492v70z" />
    <glyph glyph-name="approxequal" unicode="&#x2248;" horiz-adv-x="680" 
d="M521 539h68v-15q-2 -64 -37.5 -103.5t-96.5 -39.5q-44 0 -85 23.5t-75.5 47t-63.5 23.5q-69 0 -72 -87h-68v15q3 65 38.5 104t96.5 39q34 0 67.5 -14.5t55.5 -32t49.5 -32t50.5 -14.5q69 0 72 86zM449 255q69 0 72 87h68v-15q-2 -64 -37.5 -103.5t-96.5 -39.5
q-35 0 -68.5 14.5t-55.5 32t-49.5 32t-50.5 14.5q-69 0 -72 -86h-68v15q3 64 38.5 103.5t96.5 39.5q43 0 84 -23.5t75.5 -47t63.5 -23.5z" />
    <glyph glyph-name="notequal" unicode="&#x2260;" horiz-adv-x="680" 
d="M576 424h-176l-69 -120h245v-71h-286l-76 -132h-42v15l67 117h-135v71h176l69 120h-245v71h286l76 132h42v-15l-67 -117h135v-71z" />
    <glyph glyph-name="lessequal" unicode="&#x2264;" horiz-adv-x="680" 
d="M576 173h-15l-467 164v70l467 163h15v-72l-359 -120v-10l359 -122v-73zM94 71h482v-71h-482v71z" />
    <glyph glyph-name="greaterequal" unicode="&#x2265;" horiz-adv-x="680" 
d="M104 173v73l359 122v10l-359 120v72h15l467 -163v-70l-467 -164h-15zM586 71v-71h-482v71h482z" />
    <glyph glyph-name="block" unicode="&#x2588;" horiz-adv-x="640" 
d="M80 717l3 3h474l3 -3v-714l-3 -3h-474l-3 3v714z" />
    <glyph glyph-name="shade" unicode="&#x2592;" horiz-adv-x="640" 
d="M80 717l3 3h34l3 -3v-34l-3 -3h-34l-3 3v34zM160 717l3 3h34l3 -3v-34l-3 -3h-34l-3 3v34zM240 717l3 3h34l3 -3v-34l-3 -3h-34l-3 3v34zM320 717l3 3h34l3 -3v-34l-3 -3h-34l-3 3v34zM400 717l3 3h34l3 -3v-34l-3 -3h-34l-3 3v34zM480 717l3 3h34l3 -3v-34l-3 -3h-34
l-3 3v34zM120 677l3 3h34l3 -3v-34l-3 -3h-34l-3 3v34zM200 677l3 3h34l3 -3v-34l-3 -3h-34l-3 3v34zM280 677l3 3h34l3 -3v-34l-3 -3h-34l-3 3v34zM360 677l3 3h34l3 -3v-34l-3 -3h-34l-3 3v34zM440 677l3 3h34l3 -3v-34l-3 -3h-34l-3 3v34zM520 677l3 3h34l3 -3v-34l-3 -3
h-34l-3 3v34zM80 637l3 3h34l3 -3v-34l-3 -3h-34l-3 3v34zM160 637l3 3h34l3 -3v-34l-3 -3h-34l-3 3v34zM240 637l3 3h34l3 -3v-34l-3 -3h-34l-3 3v34zM320 637l3 3h34l3 -3v-34l-3 -3h-34l-3 3v34zM400 637l3 3h34l3 -3v-34l-3 -3h-34l-3 3v34zM480 637l3 3h34l3 -3v-34
l-3 -3h-34l-3 3v34zM120 597l3 3h34l3 -3v-34l-3 -3h-34l-3 3v34zM200 597l3 3h34l3 -3v-34l-3 -3h-34l-3 3v34zM280 597l3 3h34l3 -3v-34l-3 -3h-34l-3 3v34zM360 597l3 3h34l3 -3v-34l-3 -3h-34l-3 3v34zM440 597l3 3h34l3 -3v-34l-3 -3h-34l-3 3v34zM520 597l3 3h34l3 -3
v-34l-3 -3h-34l-3 3v34zM80 557l3 3h34l3 -3v-34l-3 -3h-34l-3 3v34zM160 557l3 3h34l3 -3v-34l-3 -3h-34l-3 3v34zM240 557l3 3h34l3 -3v-34l-3 -3h-34l-3 3v34zM320 557l3 3h34l3 -3v-34l-3 -3h-34l-3 3v34zM400 557l3 3h34l3 -3v-34l-3 -3h-34l-3 3v34zM480 557l3 3h34
l3 -3v-34l-3 -3h-34l-3 3v34zM120 517l3 3h34l3 -3v-34l-3 -3h-34l-3 3v34zM200 517l3 3h34l3 -3v-34l-3 -3h-34l-3 3v34zM280 517l3 3h34l3 -3v-34l-3 -3h-34l-3 3v34zM360 517l3 3h34l3 -3v-34l-3 -3h-34l-3 3v34zM440 517l3 3h34l3 -3v-34l-3 -3h-34l-3 3v34zM520 517
l3 3h34l3 -3v-34l-3 -3h-34l-3 3v34zM80 477l3 3h34l3 -3v-34l-3 -3h-34l-3 3v34zM160 477l3 3h34l3 -3v-34l-3 -3h-34l-3 3v34zM240 477l3 3h34l3 -3v-34l-3 -3h-34l-3 3v34zM320 477l3 3h34l3 -3v-34l-3 -3h-34l-3 3v34zM400 477l3 3h34l3 -3v-34l-3 -3h-34l-3 3v34z
M480 477l3 3h34l3 -3v-34l-3 -3h-34l-3 3v34zM120 437l3 3h34l3 -3v-34l-3 -3h-34l-3 3v34zM200 437l3 3h34l3 -3v-34l-3 -3h-34l-3 3v34zM280 437l3 3h34l3 -3v-34l-3 -3h-34l-3 3v34zM360 437l3 3h34l3 -3v-34l-3 -3h-34l-3 3v34zM440 437l3 3h34l3 -3v-34l-3 -3h-34l-3 3
v34zM520 437l3 3h34l3 -3v-34l-3 -3h-34l-3 3v34zM80 397l3 3h34l3 -3v-34l-3 -3h-34l-3 3v34zM160 397l3 3h34l3 -3v-34l-3 -3h-34l-3 3v34zM240 397l3 3h34l3 -3v-34l-3 -3h-34l-3 3v34zM320 397l3 3h34l3 -3v-34l-3 -3h-34l-3 3v34zM400 397l3 3h34l3 -3v-34l-3 -3h-34
l-3 3v34zM480 397l3 3h34l3 -3v-34l-3 -3h-34l-3 3v34zM120 357l3 3h34l3 -3v-34l-3 -3h-34l-3 3v34zM200 357l3 3h34l3 -3v-34l-3 -3h-34l-3 3v34zM280 357l3 3h34l3 -3v-34l-3 -3h-34l-3 3v34zM360 357l3 3h34l3 -3v-34l-3 -3h-34l-3 3v34zM440 357l3 3h34l3 -3v-34l-3 -3
h-34l-3 3v34zM520 357l3 3h34l3 -3v-34l-3 -3h-34l-3 3v34zM80 317l3 3h34l3 -3v-34l-3 -3h-34l-3 3v34zM160 317l3 3h34l3 -3v-34l-3 -3h-34l-3 3v34zM240 317l3 3h34l3 -3v-34l-3 -3h-34l-3 3v34zM320 317l3 3h34l3 -3v-34l-3 -3h-34l-3 3v34zM400 317l3 3h34l3 -3v-34
l-3 -3h-34l-3 3v34zM480 317l3 3h34l3 -3v-34l-3 -3h-34l-3 3v34zM120 277l3 3h34l3 -3v-34l-3 -3h-34l-3 3v34zM200 277l3 3h34l3 -3v-34l-3 -3h-34l-3 3v34zM280 277l3 3h34l3 -3v-34l-3 -3h-34l-3 3v34zM360 277l3 3h34l3 -3v-34l-3 -3h-34l-3 3v34zM440 277l3 3h34l3 -3
v-34l-3 -3h-34l-3 3v34zM520 277l3 3h34l3 -3v-34l-3 -3h-34l-3 3v34zM80 237l3 3h34l3 -3v-34l-3 -3h-34l-3 3v34zM160 237l3 3h34l3 -3v-34l-3 -3h-34l-3 3v34zM240 237l3 3h34l3 -3v-34l-3 -3h-34l-3 3v34zM320 237l3 3h34l3 -3v-34l-3 -3h-34l-3 3v34zM400 237l3 3h34
l3 -3v-34l-3 -3h-34l-3 3v34zM480 237l3 3h34l3 -3v-34l-3 -3h-34l-3 3v34zM120 197l3 3h34l3 -3v-34l-3 -3h-34l-3 3v34zM200 197l3 3h34l3 -3v-34l-3 -3h-34l-3 3v34zM280 197l3 3h34l3 -3v-34l-3 -3h-34l-3 3v34zM360 197l3 3h34l3 -3v-34l-3 -3h-34l-3 3v34zM440 197
l3 3h34l3 -3v-34l-3 -3h-34l-3 3v34zM520 197l3 3h34l3 -3v-34l-3 -3h-34l-3 3v34zM80 157l3 3h34l3 -3v-34l-3 -3h-34l-3 3v34zM160 157l3 3h34l3 -3v-34l-3 -3h-34l-3 3v34zM240 157l3 3h34l3 -3v-34l-3 -3h-34l-3 3v34zM320 157l3 3h34l3 -3v-34l-3 -3h-34l-3 3v34z
M400 157l3 3h34l3 -3v-34l-3 -3h-34l-3 3v34zM480 157l3 3h34l3 -3v-34l-3 -3h-34l-3 3v34zM120 117l3 3h34l3 -3v-34l-3 -3h-34l-3 3v34zM200 117l3 3h34l3 -3v-34l-3 -3h-34l-3 3v34zM280 117l3 3h34l3 -3v-34l-3 -3h-34l-3 3v34zM360 117l3 3h34l3 -3v-34l-3 -3h-34l-3 3
v34zM440 117l3 3h34l3 -3v-34l-3 -3h-34l-3 3v34zM520 117l3 3h34l3 -3v-34l-3 -3h-34l-3 3v34zM80 77l3 3h34l3 -3v-34l-3 -3h-34l-3 3v34zM160 77l3 3h34l3 -3v-34l-3 -3h-34l-3 3v34zM240 77l3 3h34l3 -3v-34l-3 -3h-34l-3 3v34zM320 77l3 3h34l3 -3v-34l-3 -3h-34l-3 3
v34zM400 77l3 3h34l3 -3v-34l-3 -3h-34l-3 3v34zM480 77l3 3h34l3 -3v-34l-3 -3h-34l-3 3v34zM120 37l3 3h34l3 -3v-34l-3 -3h-34l-3 3v34zM200 37l3 3h34l3 -3v-34l-3 -3h-34l-3 3v34zM280 37l3 3h34l3 -3v-34l-3 -3h-34l-3 3v34zM360 37l3 3h34l3 -3v-34l-3 -3h-34l-3 3
v34zM440 37l3 3h34l3 -3v-34l-3 -3h-34l-3 3v34zM520 37l3 3h34l3 -3v-34l-3 -3h-34l-3 3v34z" />
    <glyph glyph-name="lozenge" unicode="&#x25ca;" horiz-adv-x="673" 
d="M46 352v16l248 352h85l248 -352v-16l-248 -352h-85zM145 360l187 -269h10l186 269l-186 269h-10z" />
    <glyph glyph-name="G.ss07" horiz-adv-x="771" 
d="M45 360q0 173 101.5 272.5t266.5 99.5q76 0 136 -22.5t96 -59t56 -76t24 -80.5v-15h-87q-3 31 -16 60.5t-38 57t-69 44.5t-101 17q-128 0 -203 -79.5t-75 -218.5t74.5 -218.5t199.5 -79.5q57 0 102 18.5t70.5 49t39 64t15.5 68.5h-276v71h368v-25q0 -141 -84 -230.5
t-235 -89.5q-163 0 -264 99.5t-101 272.5z" />
    <glyph glyph-name="Gbreve.ss07" horiz-adv-x="771" 
d="M404 768q-75 0 -116 34t-48 84v14h72q2 -31 25 -51t67 -20t67 20t25 51h72v-14q-7 -50 -48 -84t-116 -34zM361 333h368v-25q0 -141 -84 -230.5t-235 -89.5q-163 0 -264 99.5t-101 272.5t101.5 272.5t266.5 99.5q76 0 136 -22.5t96 -59t56 -76t24 -80.5v-15h-87
q-3 31 -16 60.5t-38 57t-69 44.5t-101 17q-128 0 -203 -79.5t-75 -218.5t74.5 -218.5t199.5 -79.5q57 0 102 18.5t70.5 49t39 64t15.5 68.5h-276v71z" />
    <glyph glyph-name="uni0122.ss07" horiz-adv-x="771" 
d="M361 333h368v-25q0 -141 -84 -230.5t-235 -89.5q-163 0 -264 99.5t-101 272.5t101.5 272.5t266.5 99.5q76 0 136 -22.5t96 -59t56 -76t24 -80.5v-15h-87q-3 31 -16 60.5t-38 57t-69 44.5t-101 17q-128 0 -203 -79.5t-75 -218.5t74.5 -218.5t199.5 -79.5q57 0 102 18.5
t70.5 49t39 64t15.5 68.5h-276v71zM347 -146v93h125v-101q0 -53 -29.5 -80.5t-80.5 -27.5h-27v53h25q53 0 53 55v8h-66z" />
    <glyph glyph-name="Gdotaccent.ss07" horiz-adv-x="771" 
d="M341 879h127v-98h-127v98zM45 360q0 173 101.5 272.5t266.5 99.5q76 0 136 -22.5t96 -59t56 -76t24 -80.5v-15h-87q-3 31 -16 60.5t-38 57t-69 44.5t-101 17q-128 0 -203 -79.5t-75 -218.5t74.5 -218.5t199.5 -79.5q57 0 102 18.5t70.5 49t39 64t15.5 68.5h-276v71h368
v-25q0 -141 -84 -230.5t-235 -89.5q-163 0 -264 99.5t-101 272.5z" />
    <glyph glyph-name="I.ss08" horiz-adv-x="406" 
d="M249 72h118v-72h-328v72h118v576h-117v72h326v-72h-117v-576z" />
    <glyph glyph-name="Iacute.ss08" horiz-adv-x="406" 
d="M320 885l-106 -111h-77v15l77 111h106v-15zM249 72h118v-72h-328v72h118v576h-117v72h326v-72h-117v-576z" />
    <glyph glyph-name="Icircumflex.ss08" horiz-adv-x="406" 
d="M258 900l129 -108v-18h-87l-97 76l-98 -76h-87v18l130 108h110zM249 648v-576h118v-72h-328v72h118v576h-117v72h326v-72h-117z" />
    <glyph glyph-name="Idieresis.ss08" horiz-adv-x="406" 
d="M155 879v-98h-120v98h120zM250 879h120v-98h-120v98zM249 648v-576h118v-72h-328v72h118v576h-117v72h326v-72h-117z" />
    <glyph glyph-name="Idotaccent.ss08" horiz-adv-x="406" 
d="M266 879v-98h-127v98h127zM249 72h118v-72h-328v72h118v576h-117v72h326v-72h-117v-576z" />
    <glyph glyph-name="uni1ECA.ss08" horiz-adv-x="406" 
d="M249 72h118v-72h-328v72h118v576h-117v72h326v-72h-117v-576zM142 -183v98h122v-98h-122z" />
    <glyph glyph-name="Igrave.ss08" horiz-adv-x="406" 
d="M266 774h-77l-106 111v15h106l77 -111v-15zM249 72h118v-72h-328v72h118v576h-117v72h326v-72h-117v-576z" />
    <glyph glyph-name="uni1EC8.ss08" horiz-adv-x="406" 
d="M213 880q-46 0 -96 -32h-15v55q50 30 120 30q44 0 72 -18t28 -48q0 -19 -11 -34.5t-20 -22t-30 -19.5l-28 -17h-68v15l55 35q30 21 30 34q0 22 -37 22zM249 72h118v-72h-328v72h118v576h-117v72h326v-72h-117v-576z" />
    <glyph glyph-name="Imacron.ss08" horiz-adv-x="406" 
d="M365 849v-64h-323v64h323zM249 72h118v-72h-328v72h118v576h-117v72h326v-72h-117v-576z" />
    <glyph glyph-name="Iogonek.ss08" horiz-adv-x="406" 
d="M249 72h118v-72h-80q-58 -7 -91 -34t-33 -63q0 -24 14.5 -38.5t37.5 -14.5q27 0 53 19h15v-62q-42 -19 -79 -19q-46 0 -76.5 26.5t-30.5 70.5q0 69 72 105v10h-130v72h118v576h-117v72h326v-72h-117v-576z" />
    <glyph glyph-name="Itilde.ss08" horiz-adv-x="406" 
d="M323 890h61v-15q-3 -43 -29 -71.5t-73 -28.5q-38 0 -85.5 30.5t-69.5 30.5q-47 0 -47 -53h-60v15q2 44 28 72.5t73 28.5q39 0 86.5 -30.5t69.5 -30.5q46 0 46 52zM202 836v2h-1v-2h1zM249 648v-576h118v-72h-328v72h118v576h-117v72h326v-72h-117z" />
    <glyph glyph-name="K.ss09" horiz-adv-x="690" 
d="M261 366l410 -351v-15h-114l-374 323h-10v-323h-92v720h92v-312h10l362 312h114v-15z" />
    <glyph glyph-name="uni0136.ss09" horiz-adv-x="690" 
d="M261 366l410 -351v-15h-114l-374 323h-10v-323h-92v720h92v-312h10l362 312h114v-15zM286 -146v93h125v-101q0 -53 -29.5 -80.5t-80.5 -27.5h-27v53h25q53 0 53 55v8h-66z" />
    <glyph glyph-name="R.ss10" horiz-adv-x="678" 
d="M415 305h-108l316 -290v-15h-114l-324 305h-12v-305h-92v720h334q96 0 160.5 -56t64.5 -151t-64.5 -151.5t-160.5 -56.5zM173 381h226q68 0 108.5 34.5t40.5 97.5q0 62 -40.5 96.5t-108.5 34.5h-226v-263z" />
    <glyph glyph-name="Racute.ss10" horiz-adv-x="678" 
d="M444 885l-106 -111h-77v15l77 111h106v-15zM415 305h-108l316 -290v-15h-114l-324 305h-12v-305h-92v720h334q96 0 160.5 -56t64.5 -151t-64.5 -151.5t-160.5 -56.5zM173 381h226q68 0 108.5 34.5t40.5 97.5q0 62 -40.5 96.5t-108.5 34.5h-226v-263z" />
    <glyph glyph-name="Rcaron.ss10" horiz-adv-x="678" 
d="M272 774l-130 108v18h87l98 -77l97 77h87v-18l-129 -108h-110zM415 305h-108l316 -290v-15h-114l-324 305h-12v-305h-92v720h334q96 0 160.5 -56t64.5 -151t-64.5 -151.5t-160.5 -56.5zM173 381h226q68 0 108.5 34.5t40.5 97.5q0 62 -40.5 96.5t-108.5 34.5h-226v-263z
" />
    <glyph glyph-name="uni0156.ss10" horiz-adv-x="678" 
d="M415 305h-108l316 -290v-15h-114l-324 305h-12v-305h-92v720h334q96 0 160.5 -56t64.5 -151t-64.5 -151.5t-160.5 -56.5zM173 381h226q68 0 108.5 34.5t40.5 97.5q0 62 -40.5 96.5t-108.5 34.5h-226v-263zM272 -146v93h125v-101q0 -53 -29.5 -80.5t-80.5 -27.5h-27v53h25
q53 0 53 55v8h-66z" />
    <glyph glyph-name="Y.ss11" horiz-adv-x="662" 
d="M16 720h97l217 -393h10l217 393h98v-15l-403 -705h-97v15l130 219l-269 471v15z" />
    <glyph glyph-name="Yacute.ss11" horiz-adv-x="662" 
d="M346 774h-77v15l77 111h106v-15zM16 720h97l217 -393h10l217 393h98v-15l-403 -705h-97v15l130 219l-269 471v15z" />
    <glyph glyph-name="Ycircumflex.ss11" horiz-adv-x="662" 
d="M335 850l-98 -76h-87v18l130 108h110l129 -108v-18h-87zM557 720h98v-15l-403 -705h-97v15l130 219l-269 471v15h97l217 -393h10z" />
    <glyph glyph-name="Ydieresis.ss11" horiz-adv-x="662" 
d="M168 879h120v-98h-120v98zM383 879h120v-98h-120v98zM16 720h97l217 -393h10l217 393h98v-15l-403 -705h-97v15l130 219l-269 471v15z" />
    <glyph glyph-name="uni1EF4.ss11" horiz-adv-x="662" 
d="M16 720h97l217 -393h10l217 393h98v-15l-403 -705h-97v15l130 219l-269 471v15zM140 -85h122v-98h-122v98z" />
    <glyph glyph-name="Ygrave.ss11" horiz-adv-x="662" 
d="M321 774l-106 111v15h106l77 -111v-15h-77zM16 720h97l217 -393h10l217 393h98v-15l-403 -705h-97v15l130 219l-269 471v15z" />
    <glyph glyph-name="uni1EF6.ss11" horiz-adv-x="662" 
d="M234 903q50 30 120 30q44 0 72 -18t28 -48q0 -19 -11 -34.5t-20 -22t-30 -19.5l-28 -17h-68v15l55 35q30 21 30 34q0 22 -37 22q-46 0 -96 -32h-15v55zM16 720h97l217 -393h10l217 393h98v-15l-403 -705h-97v15l130 219l-269 471v15z" />
    <glyph glyph-name="uni1EF8.ss11" horiz-adv-x="662" 
d="M259 836q-47 0 -47 -53h-60v15q2 44 28 72.5t73 28.5q39 0 86.5 -30.5t69.5 -30.5q46 0 46 52h61v-15q-3 -43 -29 -71.5t-73 -28.5q-38 0 -85.5 30.5t-69.5 30.5zM333 838v-2h1v2h-1zM557 720h98v-15l-403 -705h-97v15l130 219l-269 471v15h97l217 -393h10z" />
    <glyph glyph-name="i.loclTRK" horiz-adv-x="233" 
d="M56 703h122v-98h-122v98zM73 509h88v-509h-88v509z" />
    <glyph glyph-name="a.ss01" horiz-adv-x="594" 
d="M56 346v15q13 72 74 116t155 44q98 0 156.5 -49t58.5 -140v-258l8 -8h69v-66h-48q-96 0 -106 73h-10q-57 -84 -186 -84q-83 0 -134 39.5t-51 106.5q0 68 49 105t132 45l190 18v31q0 121 -130 121q-62 0 -98.5 -28t-43.5 -81h-85zM130 139q0 -38 30.5 -61t82.5 -23
q74 0 122 43.5t48 125.5v14l-178 -17q-105 -10 -105 -82z" />
    <glyph glyph-name="aacute.ss01" horiz-adv-x="594" 
d="M298 580h-72v15l81 125h96v-15zM56 346v15q13 72 74 116t155 44q98 0 156.5 -49t58.5 -140v-258l8 -8h69v-66h-48q-96 0 -106 73h-10q-57 -84 -186 -84q-83 0 -134 39.5t-51 106.5q0 68 49 105t132 45l190 18v31q0 121 -130 121q-62 0 -98.5 -28t-43.5 -81h-85zM130 139
q0 -38 30.5 -61t82.5 -23q74 0 122 43.5t48 125.5v14l-178 -17q-105 -10 -105 -82z" />
    <glyph glyph-name="abreve.ss01" horiz-adv-x="594" 
d="M283 574q-74 0 -116 38t-45 93v15h68q0 -37 25 -61.5t68 -24.5q42 0 67.5 24.5t25.5 61.5h67v-15q-3 -55 -44.5 -93t-115.5 -38zM508 66h69v-66h-48q-96 0 -106 73h-10q-57 -84 -186 -84q-83 0 -134 39.5t-51 106.5q0 68 49 105t132 45l190 18v31q0 121 -130 121
q-62 0 -98.5 -28t-43.5 -81h-85v15q13 72 74 116t155 44q98 0 156.5 -49t58.5 -140v-258zM413 224v14l-178 -17q-105 -10 -105 -82q0 -38 30.5 -61t82.5 -23q74 0 122 43.5t48 125.5z" />
    <glyph glyph-name="uni1EAF.ss01" horiz-adv-x="594" 
d="M409 854l-109 -106h-74v15l85 106h98v-15zM283 575q-71 0 -113 32.5t-49 78.5v15h68q4 -30 28 -49.5t66 -19.5q43 0 67 19.5t28 49.5h68v-15q-7 -46 -49.5 -78.5t-113.5 -32.5zM508 66h69v-66h-48q-96 0 -106 73h-10q-57 -84 -186 -84q-83 0 -134 39.5t-51 106.5
q0 68 49 105t132 45l190 18v31q0 121 -130 121q-62 0 -98.5 -28t-43.5 -81h-85v15q13 72 74 116t155 44q98 0 156.5 -49t58.5 -140v-258zM413 224v14l-178 -17q-105 -10 -105 -82q0 -38 30.5 -61t82.5 -23q74 0 122 43.5t48 125.5z" />
    <glyph glyph-name="uni1EB7.ss01" horiz-adv-x="594" 
d="M283 574q-74 0 -116 38t-45 93v15h68q0 -37 25 -61.5t68 -24.5q42 0 67.5 24.5t25.5 61.5h67v-15q-3 -55 -44.5 -93t-115.5 -38zM508 66h69v-66h-48q-96 0 -106 73h-10q-57 -84 -186 -84q-83 0 -134 39.5t-51 106.5q0 68 49 105t132 45l190 18v31q0 121 -130 121
q-62 0 -98.5 -28t-43.5 -81h-85v15q13 72 74 116t155 44q98 0 156.5 -49t58.5 -140v-258zM413 224v14l-178 -17q-105 -10 -105 -82q0 -38 30.5 -61t82.5 -23q74 0 122 43.5t48 125.5zM222 -183v98h122v-98h-122z" />
    <glyph glyph-name="uni1EB1.ss01" horiz-adv-x="594" 
d="M341 748h-74l-109 106v15h98l85 -106v-15zM283 575q-71 0 -113 32.5t-49 78.5v15h68q4 -30 28 -49.5t66 -19.5q43 0 67 19.5t28 49.5h68v-15q-7 -46 -49.5 -78.5t-113.5 -32.5zM508 66h69v-66h-48q-96 0 -106 73h-10q-57 -84 -186 -84q-83 0 -134 39.5t-51 106.5
q0 68 49 105t132 45l190 18v31q0 121 -130 121q-62 0 -98.5 -28t-43.5 -81h-85v15q13 72 74 116t155 44q98 0 156.5 -49t58.5 -140v-258zM413 224v14l-178 -17q-105 -10 -105 -82q0 -38 30.5 -61t82.5 -23q74 0 122 43.5t48 125.5z" />
    <glyph glyph-name="uni1EB3.ss01" horiz-adv-x="594" 
d="M295 834q-46 0 -96 -32h-15v55q52 31 120 31q44 0 72 -18.5t28 -48.5q0 -7 -1 -12.5t-3.5 -11t-4.5 -9.5t-7 -9l-7.5 -7.5t-9 -7.5t-8.5 -6.5t-10 -6.5t-10 -6l-28 -17h-68v15l55 35q17 11 23.5 18t6.5 17q0 21 -37 21zM283 575q-71 0 -113 32.5t-49 78.5v15h68
q4 -30 28 -49.5t66 -19.5q43 0 67 19.5t28 49.5h68v-15q-7 -46 -49.5 -78.5t-113.5 -32.5zM508 66h69v-66h-48q-96 0 -106 73h-10q-57 -84 -186 -84q-83 0 -134 39.5t-51 106.5q0 68 49 105t132 45l190 18v31q0 121 -130 121q-62 0 -98.5 -28t-43.5 -81h-85v15q13 72 74 116
t155 44q98 0 156.5 -49t58.5 -140v-258zM413 224v14l-178 -17q-105 -10 -105 -82q0 -38 30.5 -61t82.5 -23q74 0 122 43.5t48 125.5z" />
    <glyph glyph-name="uni1EB5.ss01" horiz-adv-x="594" 
d="M212 816q-42 0 -44 -54h-55v15q2 44 27 71t69 27q37 0 83 -30t64 -30q43 0 43 54h56v-15q-3 -44 -28 -71t-69 -27q-36 0 -82 30t-64 30zM283 632q43 0 67 19.5t28 49.5h68v-15q-7 -46 -49.5 -78.5t-113.5 -32.5t-113 32.5t-49 78.5v15h68q4 -30 28 -49.5t66 -19.5z
M508 66h69v-66h-48q-96 0 -106 73h-10q-57 -84 -186 -84q-83 0 -134 39.5t-51 106.5q0 68 49 105t132 45l190 18v31q0 121 -130 121q-62 0 -98.5 -28t-43.5 -81h-85v15q13 72 74 116t155 44q98 0 156.5 -49t58.5 -140v-258zM413 224v14l-178 -17q-105 -10 -105 -82
q0 -38 30.5 -61t82.5 -23q74 0 122 43.5t48 125.5z" />
    <glyph glyph-name="acircumflex.ss01" horiz-adv-x="594" 
d="M283 671l-85 -91h-74v15l107 125h102l108 -125v-15h-74zM508 66h69v-66h-48q-96 0 -106 73h-10q-57 -84 -186 -84q-83 0 -134 39.5t-51 106.5q0 68 49 105t132 45l190 18v31q0 121 -130 121q-62 0 -98.5 -28t-43.5 -81h-85v15q13 72 74 116t155 44q98 0 156.5 -49
t58.5 -140v-258zM413 224v14l-178 -17q-105 -10 -105 -82q0 -38 30.5 -61t82.5 -23q74 0 122 43.5t48 125.5z" />
    <glyph glyph-name="uni1EA5.ss01" horiz-adv-x="594" 
d="M550 825l-72 -124h-66v15l54 124h84v-15zM283 671l-85 -91h-74v15l107 125h102l108 -125v-15h-74zM508 66h69v-66h-48q-96 0 -106 73h-10q-57 -84 -186 -84q-83 0 -134 39.5t-51 106.5q0 68 49 105t132 45l190 18v31q0 121 -130 121q-62 0 -98.5 -28t-43.5 -81h-85v15
q13 72 74 116t155 44q98 0 156.5 -49t58.5 -140v-258zM413 224v14l-178 -17q-105 -10 -105 -82q0 -38 30.5 -61t82.5 -23q74 0 122 43.5t48 125.5z" />
    <glyph glyph-name="uni1EAD.ss01" horiz-adv-x="594" 
d="M283 671l-85 -91h-74v15l107 125h102l108 -125v-15h-74zM508 66h69v-66h-48q-96 0 -106 73h-10q-57 -84 -186 -84q-83 0 -134 39.5t-51 106.5q0 68 49 105t132 45l190 18v31q0 121 -130 121q-62 0 -98.5 -28t-43.5 -81h-85v15q13 72 74 116t155 44q98 0 156.5 -49
t58.5 -140v-258zM413 224v14l-178 -17q-105 -10 -105 -82q0 -38 30.5 -61t82.5 -23q74 0 122 43.5t48 125.5zM222 -183v98h122v-98h-122z" />
    <glyph glyph-name="uni1EA7.ss01" horiz-adv-x="594" 
d="M501 701h-67l-71 124v15h84l54 -124v-15zM283 671l-85 -91h-74v15l107 125h102l108 -125v-15h-74zM508 66h69v-66h-48q-96 0 -106 73h-10q-57 -84 -186 -84q-83 0 -134 39.5t-51 106.5q0 68 49 105t132 45l190 18v31q0 121 -130 121q-62 0 -98.5 -28t-43.5 -81h-85v15
q13 72 74 116t155 44q98 0 156.5 -49t58.5 -140v-258zM413 224v14l-178 -17q-105 -10 -105 -82q0 -38 30.5 -61t82.5 -23q74 0 122 43.5t48 125.5z" />
    <glyph glyph-name="uni1EA9.ss01" horiz-adv-x="594" 
d="M446 806q-46 0 -96 -32h-15v55q52 31 120 31q44 0 72 -18.5t28 -48.5q0 -7 -1 -12.5t-3.5 -11t-4.5 -9.5t-7 -9l-7.5 -7.5t-9 -7.5t-8.5 -6.5t-10 -6.5t-10 -6l-28 -17h-68v15l55 35q17 11 23.5 18t6.5 17q0 21 -37 21zM283 671l-85 -91h-74v15l107 125h102l108 -125v-15
h-74zM508 66h69v-66h-48q-96 0 -106 73h-10q-57 -84 -186 -84q-83 0 -134 39.5t-51 106.5q0 68 49 105t132 45l190 18v31q0 121 -130 121q-62 0 -98.5 -28t-43.5 -81h-85v15q13 72 74 116t155 44q98 0 156.5 -49t58.5 -140v-258zM413 224v14l-178 -17q-105 -10 -105 -82
q0 -38 30.5 -61t82.5 -23q74 0 122 43.5t48 125.5z" />
    <glyph glyph-name="uni1EAB.ss01" horiz-adv-x="594" 
d="M212 816q-42 0 -44 -54h-55v15q2 44 27 71t69 27q37 0 83 -30t64 -30q43 0 43 54h56v-15q-3 -44 -28 -71t-69 -27q-36 0 -82 30t-64 30zM283 654l-94 -74h-80v15l123 106h102l124 -106v-15h-81zM508 66h69v-66h-48q-96 0 -106 73h-10q-57 -84 -186 -84q-83 0 -134 39.5
t-51 106.5q0 68 49 105t132 45l190 18v31q0 121 -130 121q-62 0 -98.5 -28t-43.5 -81h-85v15q13 72 74 116t155 44q98 0 156.5 -49t58.5 -140v-258zM413 224v14l-178 -17q-105 -10 -105 -82q0 -38 30.5 -61t82.5 -23q74 0 122 43.5t48 125.5z" />
    <glyph glyph-name="adieresis.ss01" horiz-adv-x="594" 
d="M127 702h112v-98h-112v98zM328 702h113v-98h-113v98zM56 346v15q13 72 74 116t155 44q98 0 156.5 -49t58.5 -140v-258l8 -8h69v-66h-48q-96 0 -106 73h-10q-57 -84 -186 -84q-83 0 -134 39.5t-51 106.5q0 68 49 105t132 45l190 18v31q0 121 -130 121q-62 0 -98.5 -28
t-43.5 -81h-85zM130 139q0 -38 30.5 -61t82.5 -23q74 0 122 43.5t48 125.5v14l-178 -17q-105 -10 -105 -82z" />
    <glyph glyph-name="uni1EA1.ss01" horiz-adv-x="594" 
d="M56 346v15q13 72 74 116t155 44q98 0 156.5 -49t58.5 -140v-258l8 -8h69v-66h-48q-96 0 -106 73h-10q-57 -84 -186 -84q-83 0 -134 39.5t-51 106.5q0 68 49 105t132 45l190 18v31q0 121 -130 121q-62 0 -98.5 -28t-43.5 -81h-85zM130 139q0 -38 30.5 -61t82.5 -23
q74 0 122 43.5t48 125.5v14l-178 -17q-105 -10 -105 -82zM222 -85h122v-98h-122v98z" />
    <glyph glyph-name="agrave.ss01" horiz-adv-x="594" 
d="M266 580l-105 125v15h96l81 -125v-15h-72zM56 346v15q13 72 74 116t155 44q98 0 156.5 -49t58.5 -140v-258l8 -8h69v-66h-48q-96 0 -106 73h-10q-57 -84 -186 -84q-83 0 -134 39.5t-51 106.5q0 68 49 105t132 45l190 18v31q0 121 -130 121q-62 0 -98.5 -28t-43.5 -81h-85
zM130 139q0 -38 30.5 -61t82.5 -23q74 0 122 43.5t48 125.5v14l-178 -17q-105 -10 -105 -82z" />
    <glyph glyph-name="uni1EA3.ss01" horiz-adv-x="594" 
d="M182 709q52 31 120 31q44 0 72 -18.5t28 -48.5q0 -7 -1 -12.5t-3.5 -11t-4.5 -9.5t-7 -9l-7.5 -7.5t-9 -7.5t-8.5 -6.5t-10 -6.5t-10 -6l-28 -17h-68v15l55 35q17 11 23.5 18t6.5 17q0 21 -37 21q-46 0 -96 -32h-15v55zM56 346v15q13 72 74 116t155 44q98 0 156.5 -49
t58.5 -140v-258l8 -8h69v-66h-48q-96 0 -106 73h-10q-57 -84 -186 -84q-83 0 -134 39.5t-51 106.5q0 68 49 105t132 45l190 18v31q0 121 -130 121q-62 0 -98.5 -28t-43.5 -81h-85zM130 139q0 -38 30.5 -61t82.5 -23q74 0 122 43.5t48 125.5v14l-178 -17q-105 -10 -105 -82z
" />
    <glyph glyph-name="amacron.ss01" horiz-adv-x="594" 
d="M126 658h315v-64h-315v64zM56 346v15q13 72 74 116t155 44q98 0 156.5 -49t58.5 -140v-258l8 -8h69v-66h-48q-96 0 -106 73h-10q-57 -84 -186 -84q-83 0 -134 39.5t-51 106.5q0 68 49 105t132 45l190 18v31q0 121 -130 121q-62 0 -98.5 -28t-43.5 -81h-85zM130 139
q0 -38 30.5 -61t82.5 -23q74 0 122 43.5t48 125.5v14l-178 -17q-105 -10 -105 -82z" />
    <glyph glyph-name="aogonek.ss01" horiz-adv-x="594" 
d="M508 66h69v-66h-3q-119 -28 -119 -97q0 -24 14.5 -38.5t37.5 -14.5q28 0 52 19h15v-62q-40 -19 -78 -19q-46 0 -76.5 26.5t-30.5 70.5q0 71 87 113v10q-46 17 -53 65h-10q-57 -84 -186 -84q-83 0 -134 39.5t-51 106.5q0 68 49 105t132 45l190 18v31q0 121 -130 121
q-62 0 -98.5 -28t-43.5 -81h-85v15q13 72 74 116t155 44q98 0 156.5 -49t58.5 -140v-258zM413 224v14l-178 -17q-105 -10 -105 -82q0 -38 30.5 -61t82.5 -23q74 0 122 43.5t48 125.5z" />
    <glyph glyph-name="aring.ss01" horiz-adv-x="594" 
d="M284 566q-42 0 -68.5 24.5t-26.5 62.5t26.5 63t68.5 25q41 0 67.5 -25t26.5 -63t-26.5 -62.5t-67.5 -24.5zM284 614q18 0 29 11t11 28q0 18 -11 29t-29 11q-19 0 -30 -11t-11 -29q0 -17 11 -28t30 -11zM56 346v15q13 72 74 116t155 44q98 0 156.5 -49t58.5 -140v-258
l8 -8h69v-66h-48q-96 0 -106 73h-10q-57 -84 -186 -84q-83 0 -134 39.5t-51 106.5q0 68 49 105t132 45l190 18v31q0 121 -130 121q-62 0 -98.5 -28t-43.5 -81h-85zM130 139q0 -38 30.5 -61t82.5 -23q74 0 122 43.5t48 125.5v14l-178 -17q-105 -10 -105 -82z" />
    <glyph glyph-name="atilde.ss01" horiz-adv-x="594" 
d="M215 651q-44 0 -46 -57h-58v15q2 45 27 74t71 29q36 0 80 -31.5t63 -31.5q44 0 46 57h58v-15q-2 -45 -27 -74t-71 -29q-36 0 -80 31.5t-63 31.5zM508 66h69v-66h-48q-96 0 -106 73h-10q-57 -84 -186 -84q-83 0 -134 39.5t-51 106.5q0 68 49 105t132 45l190 18v31
q0 121 -130 121q-62 0 -98.5 -28t-43.5 -81h-85v15q13 72 74 116t155 44q98 0 156.5 -49t58.5 -140v-258zM413 224v14l-178 -17q-105 -10 -105 -82q0 -38 30.5 -61t82.5 -23q74 0 122 43.5t48 125.5z" />
    <glyph glyph-name="a.ss02" horiz-adv-x="614" 
d="M541 0h-86v72h-10q-55 -83 -170 -83q-102 0 -167.5 71.5t-65.5 194.5t65.5 194.5t167.5 71.5q116 0 174 -88h10l21 76h61v-509zM457 255q0 93 -45 145.5t-118 52.5t-118.5 -52.5t-45.5 -145.5t45.5 -145.5t118.5 -52.5t118 52.5t45 145.5z" />
    <glyph glyph-name="aacute.ss02" horiz-adv-x="614" 
d="M329 580h-72v15l81 125h96v-15zM541 0h-86v72h-10q-55 -83 -170 -83q-102 0 -167.5 71.5t-65.5 194.5t65.5 194.5t167.5 71.5q116 0 174 -88h10l21 76h61v-509zM457 255q0 93 -45 145.5t-118 52.5t-118.5 -52.5t-45.5 -145.5t45.5 -145.5t118.5 -52.5t118 52.5t45 145.5z
" />
    <glyph glyph-name="abreve.ss02" horiz-adv-x="614" 
d="M314 574q-74 0 -116 38t-45 93v15h68q0 -37 25 -61.5t68 -24.5q42 0 67.5 24.5t25.5 61.5h67v-15q-3 -55 -44.5 -93t-115.5 -38zM480 509h61v-509h-86v72h-10q-55 -83 -170 -83q-102 0 -167.5 71.5t-65.5 194.5t65.5 194.5t167.5 71.5q116 0 174 -88h10zM294 57
q73 0 118 52.5t45 145.5t-45 145.5t-118 52.5t-118.5 -52.5t-45.5 -145.5t45.5 -145.5t118.5 -52.5z" />
    <glyph glyph-name="uni1EAF.ss02" horiz-adv-x="614" 
d="M440 855l-109 -106h-74v15l85 106h98v-15zM314 575q-71 0 -113 32.5t-49 78.5v15h68q4 -30 28 -49.5t66 -19.5q43 0 67 19.5t28 49.5h68v-15q-7 -46 -49.5 -78.5t-113.5 -32.5zM480 509h61v-509h-86v72h-10q-55 -83 -170 -83q-102 0 -167.5 71.5t-65.5 194.5t65.5 194.5
t167.5 71.5q116 0 174 -88h10zM294 57q73 0 118 52.5t45 145.5t-45 145.5t-118 52.5t-118.5 -52.5t-45.5 -145.5t45.5 -145.5t118.5 -52.5z" />
    <glyph glyph-name="uni1EB7.ss02" horiz-adv-x="614" 
d="M314 574q-74 0 -116 38t-45 93v15h68q0 -37 25 -61.5t68 -24.5q42 0 67.5 24.5t25.5 61.5h67v-15q-3 -55 -44.5 -93t-115.5 -38zM480 509h61v-509h-86v72h-10q-55 -83 -170 -83q-102 0 -167.5 71.5t-65.5 194.5t65.5 194.5t167.5 71.5q116 0 174 -88h10zM294 57
q73 0 118 52.5t45 145.5t-45 145.5t-118 52.5t-118.5 -52.5t-45.5 -145.5t45.5 -145.5t118.5 -52.5zM253 -183v98h122v-98h-122z" />
    <glyph glyph-name="uni1EB1.ss02" horiz-adv-x="614" 
d="M372 749h-74l-109 106v15h98l85 -106v-15zM314 575q-71 0 -113 32.5t-49 78.5v15h68q4 -30 28 -49.5t66 -19.5q43 0 67 19.5t28 49.5h68v-15q-7 -46 -49.5 -78.5t-113.5 -32.5zM480 509h61v-509h-86v72h-10q-55 -83 -170 -83q-102 0 -167.5 71.5t-65.5 194.5t65.5 194.5
t167.5 71.5q116 0 174 -88h10zM294 57q73 0 118 52.5t45 145.5t-45 145.5t-118 52.5t-118.5 -52.5t-45.5 -145.5t45.5 -145.5t118.5 -52.5z" />
    <glyph glyph-name="uni1EB3.ss02" horiz-adv-x="614" 
d="M326 835q-46 0 -96 -32h-15v55q52 31 120 31q44 0 72 -18.5t28 -48.5q0 -7 -1 -12.5t-3.5 -11t-4.5 -9.5t-7 -9l-7.5 -7.5t-9 -7.5t-8.5 -6.5t-10 -6.5t-10 -6l-28 -17h-68v15l55 35q17 11 23.5 18t6.5 17q0 21 -37 21zM314 575q-71 0 -113 32.5t-49 78.5v15h68
q4 -30 28 -49.5t66 -19.5q43 0 67 19.5t28 49.5h68v-15q-7 -46 -49.5 -78.5t-113.5 -32.5zM480 509h61v-509h-86v72h-10q-55 -83 -170 -83q-102 0 -167.5 71.5t-65.5 194.5t65.5 194.5t167.5 71.5q116 0 174 -88h10zM294 57q73 0 118 52.5t45 145.5t-45 145.5t-118 52.5
t-118.5 -52.5t-45.5 -145.5t45.5 -145.5t118.5 -52.5z" />
    <glyph glyph-name="uni1EB5.ss02" horiz-adv-x="614" 
d="M243 817q-43 0 -44 -54h-55v15q2 44 27 71t69 27q37 0 83 -30t64 -30q43 0 43 54h56v-15q-3 -44 -28 -71t-69 -27q-36 0 -82 30t-64 30zM314 632q43 0 67 19.5t28 49.5h68v-15q-7 -46 -49.5 -78.5t-113.5 -32.5t-113 32.5t-49 78.5v15h68q4 -30 28 -49.5t66 -19.5z
M480 509h61v-509h-86v72h-10q-55 -83 -170 -83q-102 0 -167.5 71.5t-65.5 194.5t65.5 194.5t167.5 71.5q116 0 174 -88h10zM294 57q73 0 118 52.5t45 145.5t-45 145.5t-118 52.5t-118.5 -52.5t-45.5 -145.5t45.5 -145.5t118.5 -52.5z" />
    <glyph glyph-name="acircumflex.ss02" horiz-adv-x="614" 
d="M314 671l-85 -91h-74v15l107 125h102l108 -125v-15h-74zM480 509h61v-509h-86v72h-10q-55 -83 -170 -83q-102 0 -167.5 71.5t-65.5 194.5t65.5 194.5t167.5 71.5q116 0 174 -88h10zM294 57q73 0 118 52.5t45 145.5t-45 145.5t-118 52.5t-118.5 -52.5t-45.5 -145.5
t45.5 -145.5t118.5 -52.5z" />
    <glyph glyph-name="uni1EA5.ss02" horiz-adv-x="614" 
d="M497 840h84v-15l-72 -124h-66v15zM314 671l-85 -91h-74v15l107 125h102l108 -125v-15h-74zM459 433l21 76h61v-509h-86v72h-10q-55 -83 -170 -83q-102 0 -167.5 71.5t-65.5 194.5t65.5 194.5t167.5 71.5q116 0 174 -88h10zM294 57q73 0 118 52.5t45 145.5t-45 145.5
t-118 52.5t-118.5 -52.5t-45.5 -145.5t45.5 -145.5t118.5 -52.5z" />
    <glyph glyph-name="uni1EAD.ss02" horiz-adv-x="614" 
d="M314 671l-85 -91h-74v15l107 125h102l108 -125v-15h-74zM480 509h61v-509h-86v72h-10q-55 -83 -170 -83q-102 0 -167.5 71.5t-65.5 194.5t65.5 194.5t167.5 71.5q116 0 174 -88h10zM294 57q73 0 118 52.5t45 145.5t-45 145.5t-118 52.5t-118.5 -52.5t-45.5 -145.5
t45.5 -145.5t118.5 -52.5zM253 -183v98h122v-98h-122z" />
    <glyph glyph-name="uni1EA7.ss02" horiz-adv-x="614" 
d="M532 701h-67l-71 124v15h84l54 -124v-15zM314 671l-85 -91h-74v15l107 125h102l108 -125v-15h-74zM480 509h61v-509h-86v72h-10q-55 -83 -170 -83q-102 0 -167.5 71.5t-65.5 194.5t65.5 194.5t167.5 71.5q116 0 174 -88h10zM294 57q73 0 118 52.5t45 145.5t-45 145.5
t-118 52.5t-118.5 -52.5t-45.5 -145.5t45.5 -145.5t118.5 -52.5z" />
    <glyph glyph-name="uni1EA9.ss02" horiz-adv-x="614" 
d="M486 860q44 0 72 -18.5t28 -48.5q0 -7 -1 -12.5t-3.5 -11t-4.5 -9.5t-7 -9l-7.5 -7.5t-9 -7.5t-8.5 -6.5t-10 -6.5t-10 -6l-28 -17h-68v15l55 35q17 11 23.5 18t6.5 17q0 21 -37 21q-46 0 -96 -32h-15v55q52 31 120 31zM314 671l-85 -91h-74v15l107 125h102l108 -125v-15
h-74zM459 433l21 76h61v-509h-86v72h-10q-55 -83 -170 -83q-102 0 -167.5 71.5t-65.5 194.5t65.5 194.5t167.5 71.5q116 0 174 -88h10zM294 57q73 0 118 52.5t45 145.5t-45 145.5t-118 52.5t-118.5 -52.5t-45.5 -145.5t45.5 -145.5t118.5 -52.5z" />
    <glyph glyph-name="uni1EAB.ss02" horiz-adv-x="614" 
d="M243 817q-43 0 -44 -54h-55v15q2 44 27 71t69 27q37 0 83 -30t64 -30q43 0 43 54h56v-15q-3 -44 -28 -71t-69 -27q-36 0 -82 30t-64 30zM314 654l-94 -74h-80v15l123 106h102l124 -106v-15h-81zM480 509h61v-509h-86v72h-10q-55 -83 -170 -83q-102 0 -167.5 71.5
t-65.5 194.5t65.5 194.5t167.5 71.5q116 0 174 -88h10zM294 57q73 0 118 52.5t45 145.5t-45 145.5t-118 52.5t-118.5 -52.5t-45.5 -145.5t45.5 -145.5t118.5 -52.5z" />
    <glyph glyph-name="adieresis.ss02" horiz-adv-x="614" 
d="M158 703h112v-98h-112v98zM359 703h113v-98h-113v98zM541 0h-86v72h-10q-55 -83 -170 -83q-102 0 -167.5 71.5t-65.5 194.5t65.5 194.5t167.5 71.5q116 0 174 -88h10l21 76h61v-509zM457 255q0 93 -45 145.5t-118 52.5t-118.5 -52.5t-45.5 -145.5t45.5 -145.5
t118.5 -52.5t118 52.5t45 145.5z" />
    <glyph glyph-name="uni1EA1.ss02" horiz-adv-x="614" 
d="M541 0h-86v72h-10q-55 -83 -170 -83q-102 0 -167.5 71.5t-65.5 194.5t65.5 194.5t167.5 71.5q116 0 174 -88h10l21 76h61v-509zM457 255q0 93 -45 145.5t-118 52.5t-118.5 -52.5t-45.5 -145.5t45.5 -145.5t118.5 -52.5t118 52.5t45 145.5zM253 -85h122v-98h-122v98z" />
    <glyph glyph-name="agrave.ss02" horiz-adv-x="614" 
d="M297 580l-105 125v15h96l81 -125v-15h-72zM541 0h-86v72h-10q-55 -83 -170 -83q-102 0 -167.5 71.5t-65.5 194.5t65.5 194.5t167.5 71.5q116 0 174 -88h10l21 76h61v-509zM457 255q0 93 -45 145.5t-118 52.5t-118.5 -52.5t-45.5 -145.5t45.5 -145.5t118.5 -52.5t118 52.5
t45 145.5z" />
    <glyph glyph-name="uni1EA3.ss02" horiz-adv-x="614" 
d="M213 709q52 31 120 31q44 0 72 -18.5t28 -48.5q0 -7 -1 -12.5t-3.5 -11t-4.5 -9.5t-7 -9l-7.5 -7.5t-9 -7.5t-8.5 -6.5t-10 -6.5t-10 -6l-28 -17h-68v15l55 35q17 11 23.5 18t6.5 17q0 21 -37 21q-46 0 -96 -32h-15v55zM541 0h-86v72h-10q-55 -83 -170 -83
q-102 0 -167.5 71.5t-65.5 194.5t65.5 194.5t167.5 71.5q116 0 174 -88h10l21 76h61v-509zM457 255q0 93 -45 145.5t-118 52.5t-118.5 -52.5t-45.5 -145.5t45.5 -145.5t118.5 -52.5t118 52.5t45 145.5z" />
    <glyph glyph-name="amacron.ss02" horiz-adv-x="614" 
d="M157 658h315v-64h-315v64zM541 0h-86v72h-10q-55 -83 -170 -83q-102 0 -167.5 71.5t-65.5 194.5t65.5 194.5t167.5 71.5q116 0 174 -88h10l21 76h61v-509zM457 255q0 93 -45 145.5t-118 52.5t-118.5 -52.5t-45.5 -145.5t45.5 -145.5t118.5 -52.5t118 52.5t45 145.5z" />
    <glyph glyph-name="aogonek.ss02" horiz-adv-x="614" 
d="M480 509h61v-509h-1q-120 -29 -120 -97q0 -24 14.5 -38.5t37.5 -14.5q27 0 53 19h15v-62q-40 -19 -79 -19q-46 0 -76.5 26.5t-30.5 70.5q0 78 100 117v70h-9q-55 -83 -170 -83q-102 0 -167.5 71.5t-65.5 194.5t65.5 194.5t167.5 71.5q116 0 174 -88h10zM294 57
q73 0 118 52.5t45 145.5t-45 145.5t-118 52.5t-118.5 -52.5t-45.5 -145.5t45.5 -145.5t118.5 -52.5z" />
    <glyph glyph-name="aring.ss02" horiz-adv-x="614" 
d="M315 566q-42 0 -68.5 24.5t-26.5 62.5t26.5 63t68.5 25q41 0 67.5 -25t26.5 -63t-26.5 -62.5t-67.5 -24.5zM315 614q18 0 29 11t11 28q0 18 -11 29t-29 11q-19 0 -30 -11t-11 -29q0 -17 11 -28t30 -11zM541 0h-86v72h-10q-55 -83 -170 -83q-102 0 -167.5 71.5
t-65.5 194.5t65.5 194.5t167.5 71.5q116 0 174 -88h10l21 76h61v-509zM457 255q0 93 -45 145.5t-118 52.5t-118.5 -52.5t-45.5 -145.5t45.5 -145.5t118.5 -52.5t118 52.5t45 145.5z" />
    <glyph glyph-name="atilde.ss02" horiz-adv-x="614" 
d="M246 651q-44 0 -46 -57h-58v15q2 45 27 74t71 29q36 0 80 -31.5t63 -31.5q44 0 46 57h58v-15q-2 -45 -27 -74t-71 -29q-36 0 -80 31.5t-63 31.5zM480 509h61v-509h-86v72h-10q-55 -83 -170 -83q-102 0 -167.5 71.5t-65.5 194.5t65.5 194.5t167.5 71.5q116 0 174 -88h10z
M294 57q73 0 118 52.5t45 145.5t-45 145.5t-118 52.5t-118.5 -52.5t-45.5 -145.5t45.5 -145.5t118.5 -52.5z" />
    <glyph glyph-name="k.ss03" horiz-adv-x="551" 
d="M242 268l300 -253v-15h-106l-265 226h-10v-226h-88v720h88v-419h10l260 208h104v-15z" />
    <glyph glyph-name="uni0137.ss03" horiz-adv-x="551" 
d="M242 268l300 -253v-15h-106l-265 226h-10v-226h-88v720h88v-419h10l260 208h104v-15zM227 -146v93h125v-101q0 -53 -29.5 -80.5t-80.5 -27.5h-27v53h25q53 0 53 55v8h-66z" />
    <glyph glyph-name="l.ss04" horiz-adv-x="262" 
d="M169 65h69v-65h-38q-62 0 -94.5 31t-32.5 88v601h88v-647z" />
    <glyph glyph-name="lacute.ss04" horiz-adv-x="262" 
d="M233 885l-106 -111h-77v15l77 111h106v-15zM169 65h69v-65h-38q-62 0 -94.5 31t-32.5 88v601h88v-647z" />
    <glyph glyph-name="lcaron.ss04" horiz-adv-x="330" 
d="M161 74l8 -8h63v-66h-33q-60 0 -93 32t-33 87v601h88v-646zM248 720h85v-15l-38 -171h-61v15z" />
    <glyph glyph-name="uni013C.ss04" horiz-adv-x="262" 
d="M169 65h69v-65h-38q-62 0 -94.5 31t-32.5 88v601h88v-647zM84 -146v93h125v-101q0 -53 -29.5 -80.5t-80.5 -27.5h-27v53h25q53 0 53 55v8h-66z" />
    <glyph glyph-name="ldot.ss04" horiz-adv-x="385" 
d="M161 73l8 -8h63v-65h-33q-60 0 -93 32t-33 87v601h88v-647zM253 317h112v-105h-112v105z" />
    <glyph glyph-name="lslash.ss04" horiz-adv-x="376" 
d="M346 396l-121 -55v-268l8 -8h63v-65h-33q-60 0 -93 32t-33 87v182l-88 -40h-15v56l103 47v356h88v-316l106 48h15v-56z" />
    <glyph glyph-name="u.ss05" horiz-adv-x="595" 
d="M69 509h88v-319q0 -65 37.5 -99t102.5 -34q66 0 103.5 34t37.5 99v319h88v-319q0 -99 -62.5 -150.5t-166.5 -51.5q-105 0 -166.5 51t-61.5 151v319z" />
    <glyph glyph-name="uacute.ss05" horiz-adv-x="595" 
d="M311 580h-72v15l81 125h96v-15zM69 509h88v-319q0 -65 37.5 -99t102.5 -34q66 0 103.5 34t37.5 99v319h88v-319q0 -99 -62.5 -150.5t-166.5 -51.5q-105 0 -166.5 51t-61.5 151v319z" />
    <glyph glyph-name="ucircumflex.ss05" horiz-adv-x="595" 
d="M297 671l-85 -91h-74v15l107 125h102l108 -125v-15h-74zM438 509h88v-319q0 -99 -62.5 -150.5t-166.5 -51.5q-105 0 -166.5 51t-61.5 151v319h88v-319q0 -65 37.5 -99t102.5 -34q66 0 103.5 34t37.5 99v319z" />
    <glyph glyph-name="udieresis.ss05" horiz-adv-x="595" 
d="M140 703h112v-98h-112v98zM341 703h113v-98h-113v98zM69 509h88v-319q0 -65 37.5 -99t102.5 -34q66 0 103.5 34t37.5 99v319h88v-319q0 -99 -62.5 -150.5t-166.5 -51.5q-105 0 -166.5 51t-61.5 151v319z" />
    <glyph glyph-name="uni1EE5.ss05" horiz-adv-x="595" 
d="M69 509h88v-319q0 -65 37.5 -99t102.5 -34q66 0 103.5 34t37.5 99v319h88v-319q0 -99 -62.5 -150.5t-166.5 -51.5q-105 0 -166.5 51t-61.5 151v319zM237 -85h122v-98h-122v98z" />
    <glyph glyph-name="ugrave.ss05" horiz-adv-x="595" 
d="M279 580l-105 125v15h96l81 -125v-15h-72zM69 509h88v-319q0 -65 37.5 -99t102.5 -34q66 0 103.5 34t37.5 99v319h88v-319q0 -99 -62.5 -150.5t-166.5 -51.5q-105 0 -166.5 51t-61.5 151v319z" />
    <glyph glyph-name="uni1EE7.ss05" horiz-adv-x="595" 
d="M195 709q52 31 120 31q44 0 72 -18.5t28 -48.5q0 -7 -1 -12.5t-3.5 -11t-4.5 -9.5t-7 -9l-7.5 -7.5t-9 -7.5t-8.5 -6.5t-10 -6.5t-10 -6l-28 -17h-68v15l55 35q17 11 23.5 18t6.5 17q0 21 -37 21q-46 0 -96 -32h-15v55zM69 509h88v-319q0 -65 37.5 -99t102.5 -34
q66 0 103.5 34t37.5 99v319h88v-319q0 -99 -62.5 -150.5t-166.5 -51.5q-105 0 -166.5 51t-61.5 151v319z" />
    <glyph glyph-name="uhorn.ss05" horiz-adv-x="595" 
d="M663 693q28 -61 28 -115q0 -61 -37.5 -92.5t-103.5 -31.5h-24v-264q0 -99 -62.5 -150.5t-166.5 -51.5q-105 0 -166.5 51t-61.5 151v319h88v-319q0 -65 37.5 -99t102.5 -34q66 0 103.5 34t37.5 99v319h103q77 0 77 70q0 45 -28 99v15h73z" />
    <glyph glyph-name="uni1EE9.ss05" horiz-adv-x="595" 
d="M416 705l-105 -125h-72v15l81 125h96v-15zM663 693q28 -61 28 -115q0 -61 -37.5 -92.5t-103.5 -31.5h-24v-264q0 -99 -62.5 -150.5t-166.5 -51.5q-105 0 -166.5 51t-61.5 151v319h88v-319q0 -65 37.5 -99t102.5 -34q66 0 103.5 34t37.5 99v319h103q77 0 77 70
q0 45 -28 99v15h73z" />
    <glyph glyph-name="uni1EF1.ss05" horiz-adv-x="595" 
d="M663 693q28 -61 28 -115q0 -61 -37.5 -92.5t-103.5 -31.5h-24v-264q0 -99 -62.5 -150.5t-166.5 -51.5q-105 0 -166.5 51t-61.5 151v319h88v-319q0 -65 37.5 -99t102.5 -34q66 0 103.5 34t37.5 99v319h103q77 0 77 70q0 45 -28 99v15h73zM237 -183v98h122v-98h-122z" />
    <glyph glyph-name="uni1EEB.ss05" horiz-adv-x="595" 
d="M351 580h-72l-105 125v15h96l81 -125v-15zM663 693q28 -61 28 -115q0 -61 -37.5 -92.5t-103.5 -31.5h-24v-264q0 -99 -62.5 -150.5t-166.5 -51.5q-105 0 -166.5 51t-61.5 151v319h88v-319q0 -65 37.5 -99t102.5 -34q66 0 103.5 34t37.5 99v319h103q77 0 77 70
q0 45 -28 99v15h73z" />
    <glyph glyph-name="uni1EED.ss05" horiz-adv-x="595" 
d="M306 686q-46 0 -96 -32h-15v55q52 31 120 31q44 0 72 -18.5t28 -48.5q0 -7 -1 -12.5t-3.5 -11t-4.5 -9.5t-7 -9l-7.5 -7.5t-9 -7.5t-8.5 -6.5t-10 -6.5t-10 -6l-28 -17h-68v15l55 35q17 11 23.5 18t6.5 17q0 21 -37 21zM663 693q28 -61 28 -115q0 -61 -37.5 -92.5
t-103.5 -31.5h-24v-264q0 -99 -62.5 -150.5t-166.5 -51.5q-105 0 -166.5 51t-61.5 151v319h88v-319q0 -65 37.5 -99t102.5 -34q66 0 103.5 34t37.5 99v319h103q77 0 77 70q0 45 -28 99v15h73z" />
    <glyph glyph-name="uni1EEF.ss05" horiz-adv-x="595" 
d="M228 651q-44 0 -46 -57h-58v15q2 45 27 74t71 29q36 0 80 -31.5t63 -31.5q44 0 46 57h58v-15q-2 -45 -27 -74t-71 -29q-36 0 -80 31.5t-63 31.5zM663 693q28 -61 28 -115q0 -61 -37.5 -92.5t-103.5 -31.5h-24v-264q0 -99 -62.5 -150.5t-166.5 -51.5q-105 0 -166.5 51
t-61.5 151v319h88v-319q0 -65 37.5 -99t102.5 -34q66 0 103.5 34t37.5 99v319h103q77 0 77 70q0 45 -28 99v15h73z" />
    <glyph glyph-name="uhungarumlaut.ss05" horiz-adv-x="595" 
d="M227 580h-63v15l55 125h91v-15zM391 580h-67v15l75 125h93v-15zM69 509h88v-319q0 -65 37.5 -99t102.5 -34q66 0 103.5 34t37.5 99v319h88v-319q0 -99 -62.5 -150.5t-166.5 -51.5q-105 0 -166.5 51t-61.5 151v319z" />
    <glyph glyph-name="umacron.ss05" horiz-adv-x="595" 
d="M139 658h315v-64h-315v64zM69 509h88v-319q0 -65 37.5 -99t102.5 -34q66 0 103.5 34t37.5 99v319h88v-319q0 -99 -62.5 -150.5t-166.5 -51.5q-105 0 -166.5 51t-61.5 151v319z" />
    <glyph glyph-name="uogonek.ss05" horiz-adv-x="595" 
d="M438 509h88v-319q0 -124 -98 -174q-63 -34 -88 -58.5t-25 -54.5q0 -24 14.5 -38.5t37.5 -14.5q28 0 52 19h15v-62q-40 -19 -78 -19q-46 0 -76.5 26.5t-30.5 70.5q0 58 56 92v11h-8q-105 0 -166.5 51t-61.5 151v319h88v-319q0 -65 37.5 -99t102.5 -34q66 0 103.5 34
t37.5 99v319z" />
    <glyph glyph-name="uring.ss05" horiz-adv-x="595" 
d="M297 566q-42 0 -68.5 24.5t-26.5 62.5t26.5 63t68.5 25q41 0 67.5 -25t26.5 -63t-26.5 -62.5t-67.5 -24.5zM297 614q18 0 29 11t11 28q0 18 -11 29t-29 11q-19 0 -30 -11t-11 -29q0 -17 11 -28t30 -11zM69 509h88v-319q0 -65 37.5 -99t102.5 -34q66 0 103.5 34t37.5 99
v319h88v-319q0 -99 -62.5 -150.5t-166.5 -51.5q-105 0 -166.5 51t-61.5 151v319z" />
    <glyph glyph-name="utilde.ss05" horiz-adv-x="595" 
d="M228 651q-44 0 -46 -57h-58v15q2 45 27 74t71 29q36 0 80 -31.5t63 -31.5q44 0 46 57h58v-15q-2 -45 -27 -74t-71 -29q-36 0 -80 31.5t-63 31.5zM438 509h88v-319q0 -99 -62.5 -150.5t-166.5 -51.5q-105 0 -166.5 51t-61.5 151v319h88v-319q0 -65 37.5 -99t102.5 -34
q66 0 103.5 34t37.5 99v319z" />
    <glyph glyph-name="y.ss06" horiz-adv-x="549" 
d="M17 509h91l162 -425h10l161 425h91v-15l-245 -595q-23 -56 -57.5 -77.5t-99.5 -21.5h-105v68h150l10 8l43 104l-211 514v15z" />
    <glyph glyph-name="yacute.ss06" horiz-adv-x="549" 
d="M289 580h-72v15l81 125h96v-15zM17 509h91l162 -425h10l161 425h91v-15l-245 -595q-23 -56 -57.5 -77.5t-99.5 -21.5h-105v68h150l10 8l43 104l-211 514v15z" />
    <glyph glyph-name="ycircumflex.ss06" horiz-adv-x="549" 
d="M275 671l-85 -91h-74v15l107 125h102l108 -125v-15h-74zM441 509h91v-15l-245 -595q-23 -56 -57.5 -77.5t-99.5 -21.5h-105v68h150l10 8l43 104l-211 514v15h91l162 -425h10z" />
    <glyph glyph-name="ydieresis.ss06" horiz-adv-x="549" 
d="M118 703h112v-98h-112v98zM319 703h113v-98h-113v98zM17 509h91l162 -425h10l161 425h91v-15l-245 -595q-23 -56 -57.5 -77.5t-99.5 -21.5h-105v68h150l10 8l43 104l-211 514v15z" />
    <glyph glyph-name="uni1EF5.ss06" horiz-adv-x="549" 
d="M17 509h91l162 -425h10l161 425h91v-15l-245 -595q-23 -56 -57.5 -77.5t-99.5 -21.5h-105v68h150l10 8l43 104l-211 514v15zM372 -85h122v-98h-122v98z" />
    <glyph glyph-name="ygrave.ss06" horiz-adv-x="549" 
d="M258 580l-105 125v15h96l81 -125v-15h-72zM17 509h91l162 -425h10l161 425h91v-15l-245 -595q-23 -56 -57.5 -77.5t-99.5 -21.5h-105v68h150l10 8l43 104l-211 514v15z" />
    <glyph glyph-name="uni1EF7.ss06" horiz-adv-x="549" 
d="M174 709q52 31 120 31q44 0 72 -18.5t28 -48.5q0 -7 -1 -12.5t-3.5 -11t-4.5 -9.5t-7 -9l-7.5 -7.5t-9 -7.5t-8.5 -6.5t-10 -6.5t-10 -6l-28 -17h-68v15l55 35q17 11 23.5 18t6.5 17q0 21 -37 21q-46 0 -96 -32h-15v55zM17 509h91l162 -425h10l161 425h91v-15l-245 -595
q-23 -56 -57.5 -77.5t-99.5 -21.5h-105v68h150l10 8l43 104l-211 514v15z" />
    <glyph glyph-name="uni1EF9.ss06" horiz-adv-x="549" 
d="M206 651q-44 0 -46 -57h-58v15q2 45 27 74t71 29q36 0 80 -31.5t63 -31.5q44 0 46 57h58v-15q-2 -45 -27 -74t-71 -29q-36 0 -80 31.5t-63 31.5zM441 509h91v-15l-245 -595q-23 -56 -57.5 -77.5t-99.5 -21.5h-105v68h150l10 8l43 104l-211 514v15h91l162 -425h10z" />
    <glyph glyph-name="fl.ss04" horiz-adv-x="624" 
d="M538 65h62v-65h-31q-62 0 -94.5 31t-32.5 88v535h-212l-8 -8v-137h130v-66h-130v-443h-88v443h-119v66h119v87q0 61 34 92.5t97 31.5h265v-647z" />
    <glyph glyph-name="f_f_l.liga.ss04" horiz-adv-x="932" 
d="M846 65h62v-65h-31q-62 0 -94.5 31t-32.5 88v535h-212l-8 -8v-137h130v-66h-130v-443h-88v443h-220v-443h-88v443h-119v66h119v87q0 61 34 92.5t97 31.5h102v-66h-137l-8 -8v-137h220v87q0 61 34 92.5t97 31.5h265v-647z" />
    <glyph glyph-name="f_lcaron.liga.ss04" horiz-adv-x="699" 
d="M530 74l8 -8h63v-66h-33q-60 0 -93 32t-33 87v535h-212l-8 -8v-137h130v-66h-130v-443h-88v443h-119v66h119v87q0 61 34 92.5t97 31.5h265v-646zM617 720h85v-15l-38 -171h-61v15z" />
    <glyph glyph-name="zero.zero" horiz-adv-x="683" 
d="M342 732q135 0 212.5 -99.5t77.5 -272.5q0 -172 -77.5 -272t-212.5 -100q-136 0 -213.5 100t-77.5 272q0 173 77.5 272.5t213.5 99.5zM342 659q-94 0 -146.5 -80.5t-52.5 -218.5q0 -93 25 -162l326 370q-53 91 -152 91zM342 62q93 0 145.5 80t52.5 218q0 95 -26 165
l-326 -371q53 -92 154 -92z" />
    <glyph glyph-name="zero.lf" horiz-adv-x="683" 
d="M51 360q0 173 77.5 272.5t213.5 99.5q135 0 212.5 -99.5t77.5 -272.5q0 -172 -77.5 -272t-212.5 -100q-136 0 -213.5 100t-77.5 272zM143 360q0 -138 52.5 -218t146.5 -80q93 0 145.5 80t52.5 218t-52.5 218.5t-145.5 80.5q-94 0 -146.5 -80.5t-52.5 -218.5z" />
    <glyph glyph-name="one.lf" horiz-adv-x="396" 
d="M26 524v67h86q59 0 85.5 24t26.5 73v32h90v-720h-91v524h-197z" />
    <glyph glyph-name="two.lf" horiz-adv-x="630" 
d="M52 504v15q8 95 80 153.5t187 58.5t185.5 -58.5t70.5 -151.5q0 -45 -11.5 -80.5t-41 -70.5t-54.5 -57.5t-77 -65.5l-205 -174h397v-73h-528v62l295 254q73 63 103 105.5t30 100.5q0 63 -44 100.5t-121 37.5q-78 0 -125.5 -40.5t-52.5 -115.5h-88z" />
    <glyph glyph-name="three.lf" horiz-adv-x="626" 
d="M45 198v15h87q4 -73 53 -113.5t128 -40.5q78 0 125.5 38t47.5 102q0 63 -47 99t-127 36h-78v72h78q72 0 116.5 35t44.5 93q0 60 -44.5 93.5t-116.5 33.5q-71 0 -116.5 -34.5t-50.5 -98.5h-87v15q10 86 78 137.5t178 51.5q112 0 181 -52.5t69 -139.5q0 -74 -41.5 -114
t-93.5 -48v-10q57 -9 103 -50.5t46 -122.5q0 -95 -73 -151t-191 -56q-117 0 -189 56t-80 154z" />
    <glyph glyph-name="four.lf" horiz-adv-x="627" 
d="M23 205v63l411 452h111v-720h-92v205h-430zM125 276h328v350h-10z" />
    <glyph glyph-name="five.lf" horiz-adv-x="625" 
d="M98 720h467v-73h-381l-18 -248h10q66 72 167 72q102 0 168.5 -64.5t66.5 -169.5q0 -110 -72.5 -179.5t-196.5 -69.5q-118 0 -186.5 61.5t-77.5 148.5v15h88q6 -66 50.5 -110t124.5 -44q82 0 130 48t48 125q0 74 -47 120.5t-126 46.5q-112 0 -154 -99h-91z" />
    <glyph glyph-name="six.lf" horiz-adv-x="651" 
d="M602 227q0 -107 -73.5 -173t-191.5 -66q-127 0 -206.5 84.5t-79.5 254.5q0 204 82.5 304.5t223.5 100.5q62 0 109.5 -17.5t75 -47t42.5 -61.5t20 -67v-15h-87q-3 25 -12 47.5t-26.5 43.5t-49 33.5t-73.5 12.5q-101 0 -157 -79t-56 -233h10q59 109 205 109
q105 0 174.5 -63.5t69.5 -167.5zM510 222q0 73 -47.5 118.5t-126.5 45.5q-78 0 -125 -45.5t-47 -118.5t47 -118t126 -45q78 0 125.5 45t47.5 118z" />
    <glyph glyph-name="seven.lf" horiz-adv-x="583" 
d="M19 720h542v-64l-315 -656h-95v15l308 632h-440v73z" />
    <glyph glyph-name="eight.lf" horiz-adv-x="644" 
d="M61 539q0 87 71.5 140t189.5 53q117 0 188.5 -53t71.5 -140q0 -71 -40 -109.5t-93 -53.5v-10q24 -6 47 -17t46.5 -31t38 -52.5t14.5 -73.5q0 -93 -74.5 -148.5t-198.5 -55.5t-198.5 55.5t-74.5 148.5q0 41 14.5 73.5t37.5 52.5t45.5 31t46.5 17v10q-53 15 -92.5 53
t-39.5 110zM153 533q0 -60 45 -94t124 -34t124 34t45 94t-45 94t-124 34t-124 -34t-45 -94zM141 196q0 -64 49 -100.5t132 -36.5t132 36.5t49 100.5t-48.5 101t-132.5 37t-132.5 -37t-48.5 -101z" />
    <glyph glyph-name="nine.lf" horiz-adv-x="649" 
d="M48 495q0 105 73 171t190 66q128 0 207.5 -84.5t79.5 -254.5q0 -205 -76 -305t-213 -100q-60 0 -107.5 18t-76 48t-44 59t-22.5 59v15h88q10 -49 48.5 -88.5t113.5 -39.5q198 0 198 311h-10q-61 -107 -201 -107q-107 0 -177.5 64.5t-70.5 167.5zM140 498q0 -73 47 -118.5
t126 -45.5q78 0 125.5 45.5t47.5 118.5t-47.5 118t-126.5 45q-78 0 -125 -45t-47 -118z" />
    <glyph glyph-name="one.lf.ss12" horiz-adv-x="635" 
d="M405 73h204v-73h-575v73h279v451h-217v67h106q59 0 85.5 24t26.5 73v32h91v-647z" />
    <glyph glyph-name="three.lf.ss13" horiz-adv-x="605" 
d="M48 719h517v-65l-253 -216v-10q30 3 38 3q91 0 154.5 -58t63.5 -153q0 -101 -71.5 -166.5t-193.5 -65.5q-118 0 -187.5 59.5t-80.5 145.5v15h87q7 -65 52.5 -107t127.5 -42q83 0 128.5 44.5t45.5 114.5q0 69 -47.5 111.5t-129.5 42.5q-58 0 -104 -23h-15v73l262 224h-394
v73z" />
    <glyph glyph-name="four.lf.ss14" horiz-adv-x="653" 
d="M23 209v63l376 448h116v-440h113v-71h-113v-209h-92v209h-400zM121 280h302v347h-10z" />
    <glyph glyph-name="zero.lf.zero" horiz-adv-x="683" 
d="M342 732q135 0 212.5 -99.5t77.5 -272.5q0 -172 -77.5 -272t-212.5 -100q-136 0 -213.5 100t-77.5 272q0 173 77.5 272.5t213.5 99.5zM342 659q-94 0 -146.5 -80.5t-52.5 -218.5q0 -93 25 -162l326 370q-53 91 -152 91zM342 62q93 0 145.5 80t52.5 218q0 95 -26 165
l-326 -371q53 -92 154 -92z" />
    <glyph glyph-name="zero.osf" horiz-adv-x="625" 
d="M40 255q0 120 75 193t198 73t197.5 -73.5t74.5 -192.5q0 -120 -74.5 -193.5t-197.5 -73.5t-198 73.5t-75 193.5zM132 255q0 -90 49.5 -141.5t131.5 -51.5q81 0 131 51.5t50 141.5t-50.5 142t-130.5 51q-82 -1 -131.5 -52t-49.5 -141z" />
    <glyph glyph-name="one.osf" horiz-adv-x="373" 
d="M21 317v66h73q112 0 112 97v29h91v-509h-92v317h-184z" />
    <glyph glyph-name="two.osf" horiz-adv-x="557" 
d="M46 329v15q9 82 74 129.5t165 47.5t162.5 -47t62.5 -128q0 -75 -44.5 -119t-141.5 -91l-132 -65h327v-71h-475v62l236 129q75 42 107.5 73.5t32.5 78.5q0 49 -37.5 78t-99.5 29q-63 0 -103 -31.5t-44 -89.5h-90z" />
    <glyph glyph-name="three.osf" horiz-adv-x="595" 
d="M26 -9v15h88q4 -69 53 -108t126 -39t123.5 37.5t46.5 98.5q0 62 -46 97t-124 35h-76v72h75q70 0 114 34.5t44 90.5q0 58 -43.5 92t-113.5 34t-114.5 -34.5t-48.5 -94.5h-88v15q8 82 76 133.5t176 51.5q110 0 178.5 -53t68.5 -138q0 -72 -41 -111t-94 -48v-10
q25 -4 49 -14t47.5 -28.5t38 -51.5t14.5 -75q0 -94 -72 -149t-189 -55q-114 0 -186 55t-82 148z" />
    <glyph glyph-name="four.osf" horiz-adv-x="627" 
d="M23 0v63l412 446h110v-709h-92v200h-430zM126 71h327v345h-10z" />
    <glyph glyph-name="five.osf" horiz-adv-x="604" 
d="M89 509h469v-72h-383l-16 -241h10q64 69 168 69q101 0 167.5 -63.5t66.5 -167.5q0 -109 -72.5 -177.5t-196.5 -68.5q-118 0 -186 60.5t-77 142.5v15h87q7 -62 51 -104.5t124 -42.5q82 0 130 47t48 123q0 73 -47 119t-126 46q-110 0 -154 -96h-91z" />
    <glyph glyph-name="six.osf" horiz-adv-x="641" 
d="M603 227q0 -107 -73 -173t-191 -66q-127 0 -206.5 84.5t-79.5 254.5q0 204 82 304.5t223 100.5q62 0 109.5 -17.5t75.5 -47t43 -61.5t20 -67v-15h-88q-6 56 -43 96.5t-118 40.5q-101 0 -157 -79t-56 -233h10q61 109 205 109q105 0 174.5 -63.5t69.5 -167.5zM511 222
q0 73 -47 118.5t-127 45.5q-78 0 -125 -45.5t-47 -118.5t47.5 -118t126.5 -45q78 0 125 45t47 118z" />
    <glyph glyph-name="seven.osf" horiz-adv-x="563" 
d="M16 509h528v-63l-315 -646h-95v15l307 622h-425v72z" />
    <glyph glyph-name="eight.osf" horiz-adv-x="638" 
d="M61 539q0 87 71.5 140t189.5 53q117 0 188.5 -53t71.5 -140q0 -71 -40 -109.5t-93 -53.5v-10q24 -6 47 -17t46.5 -31t38 -52.5t14.5 -73.5q0 -93 -74.5 -148.5t-198.5 -55.5t-198.5 55.5t-74.5 148.5q0 41 14.5 73.5t37.5 52.5t45.5 31t46.5 17v10q-53 15 -92.5 53
t-39.5 110zM153 533q0 -60 45 -94t124 -34t124 34t45 94t-45 94t-124 34t-124 -34t-45 -94zM141 196q0 -64 49 -100.5t132 -36.5t132 36.5t49 100.5t-48.5 101t-132.5 37t-132.5 -37t-48.5 -101z" />
    <glyph glyph-name="nine.osf" horiz-adv-x="643" 
d="M42 284q0 105 73 171t191 66q127 0 207 -84.5t80 -254.5q0 -197 -76.5 -295.5t-212.5 -98.5q-60 0 -107.5 18.5t-75.5 48t-44 58.5t-23 59v15h88q10 -49 49 -88.5t114 -39.5q95 0 145.5 76t50.5 223h-10q-59 -107 -201 -107q-107 0 -177.5 65t-70.5 168zM134 286
q0 -73 47.5 -118.5t126.5 -45.5q78 0 125 45.5t47 118.5t-47 118.5t-126 45.5q-78 0 -125.5 -45.5t-47.5 -118.5z" />
    <glyph glyph-name="one.osf.ss12" horiz-adv-x="602" 
d="M400 73h190v-73h-561v73h279v250h-200v67h89q60 0 86.5 24t26.5 73v22h90v-436z" />
    <glyph glyph-name="three.osf.ss13" horiz-adv-x="601" 
d="M45 509h514v-65l-254 -216v-10q11 2 38 2q92 0 155 -57t63 -149q0 -99 -73 -162.5t-195 -63.5q-118 0 -188.5 58.5t-80.5 144.5v15h87q7 -64 53 -105.5t128 -41.5q83 0 130 43t47 110q0 66 -47.5 108.5t-129.5 42.5q-60 0 -103 -23h-15v72l261 225h-390v72z" />
    <glyph glyph-name="four.osf.ss14" horiz-adv-x="654" 
d="M26 0v63l373 446h116v-438h116v-71h-116v-200h-92v200h-397zM124 71h299v345h-10z" />
    <glyph glyph-name="zero.osf.zero" horiz-adv-x="625" 
d="M313 521q123 0 197.5 -73.5t74.5 -192.5q0 -120 -74.5 -193.5t-197.5 -73.5t-198 73.5t-75 193.5t75 193t198 73zM313 448q-82 -1 -131.5 -52t-49.5 -141q0 -64 27 -112l278 260q-48 45 -124 45zM313 62q81 0 131 51.5t50 141.5q0 66 -29 114l-278 -261q48 -46 126 -46z
" />
    <glyph glyph-name="one.ss12" horiz-adv-x="635" 
d="M405 73h204v-73h-575v73h279v451h-217v67h106q59 0 85.5 24t26.5 73v32h91v-647z" />
    <glyph glyph-name="three.ss13" horiz-adv-x="605" 
d="M48 719h517v-65l-253 -216v-10q30 3 38 3q91 0 154.5 -58t63.5 -153q0 -101 -71.5 -166.5t-193.5 -65.5q-118 0 -187.5 59.5t-80.5 145.5v15h87q7 -65 52.5 -107t127.5 -42q83 0 128.5 44.5t45.5 114.5q0 69 -47.5 111.5t-129.5 42.5q-58 0 -104 -23h-15v73l262 224h-394
v73z" />
    <glyph glyph-name="four.ss14" horiz-adv-x="653" 
d="M23 209v63l376 448h116v-440h113v-71h-113v-209h-92v209h-400zM121 280h302v347h-10z" />
    <glyph glyph-name="zero.tf" horiz-adv-x="680" 
d="M45 360q0 174 77.5 273t217.5 99t217.5 -99t77.5 -273t-77.5 -273t-217.5 -99t-217.5 99t-77.5 273zM137 360q0 -138 53.5 -218t149.5 -80t149.5 80t53.5 218t-53.5 218.5t-149.5 80.5t-149.5 -80.5t-53.5 -218.5z" />
    <glyph glyph-name="one.tf" horiz-adv-x="680" 
d="M432 73h218v-73h-616v73h306v451h-244v67h133q59 0 85.5 24t26.5 73v32h91v-647z" />
    <glyph glyph-name="two.tf" horiz-adv-x="680" 
d="M58 500v15q9 97 86 156.5t200 59.5q124 0 199.5 -59.5t75.5 -154.5q0 -87 -46.5 -145.5t-147.5 -129.5l-237 -169h440v-73h-571v63l327 249q77 58 110.5 101.5t33.5 104.5q0 65 -50 103.5t-135 38.5q-87 0 -139 -41t-58 -119h-88z" />
    <glyph glyph-name="three.tf" horiz-adv-x="680" 
d="M53 198v15h88q4 -73 58 -113.5t142 -40.5q87 0 139.5 38t52.5 102q0 63 -52.5 99t-140.5 36h-92v72h92q80 0 130 35t50 93q0 60 -49.5 93.5t-130.5 33.5q-80 0 -130.5 -34.5t-55.5 -98.5h-87v15q10 86 83.5 137.5t191.5 51.5q121 0 195 -53t74 -140q0 -72 -42 -110
t-98 -51v-10q25 -4 49 -14.5t49 -30t40.5 -53t15.5 -75.5q0 -95 -78 -151t-205 -56q-125 0 -202.5 56t-86.5 154z" />
    <glyph glyph-name="four.tf" horiz-adv-x="680" 
d="M45 205v63l435 452h112v-720h-92v205h-455zM150 276h350v352h-10z" />
    <glyph glyph-name="five.tf" horiz-adv-x="680" 
d="M106 720h502v-73h-416l-18 -248h10q69 72 186 72q109 0 179.5 -64t70.5 -169q0 -110 -77 -180t-209 -70q-125 0 -198 62t-83 148v15h88q6 -66 55.5 -110t136.5 -44q90 0 142.5 48.5t52.5 125.5q0 74 -51 120t-138 46q-70 0 -111.5 -29.5t-60.5 -65.5h-90z" />
    <glyph glyph-name="six.tf" horiz-adv-x="680" 
d="M627 227q0 -107 -76 -173t-200 -66q-135 0 -216 83.5t-81 255.5q0 204 84.5 304.5t231.5 100.5q65 0 115 -17.5t79 -47t45 -61.5t21 -67v-15h-87q-6 56 -46.5 96.5t-127.5 40.5q-105 0 -164.5 -79t-59.5 -233h10q26 46 80 77.5t136 31.5q111 0 183.5 -63t72.5 -168z
M536 222q0 73 -51 118.5t-135 45.5q-83 0 -133.5 -45.5t-50.5 -118.5t50.5 -118t134.5 -45q83 0 134 45.5t51 117.5z" />
    <glyph glyph-name="seven.tf" horiz-adv-x="680" 
d="M31 720h614v-64l-356 -656h-96v15l348 632h-510v73z" />
    <glyph glyph-name="eight.tf" horiz-adv-x="680" 
d="M66 539q0 87 74.5 140t199.5 53t199.5 -53t74.5 -140q0 -71 -42 -109.5t-98 -53.5v-10q25 -6 48.5 -17t48.5 -31t40.5 -52.5t15.5 -73.5q0 -93 -78 -148.5t-209 -55.5t-209 55.5t-78 148.5q0 41 15 73.5t40 52.5t48.5 31t48.5 17v10q-56 15 -97.5 53.5t-41.5 109.5z
M158 533q0 -60 48 -94t134 -34t134 34t48 94t-48 94t-134 34t-134 -34t-48 -94zM145 196q0 -64 52.5 -100.5t142.5 -36.5q91 0 143 36.5t52 100.5t-52 101t-143 37q-90 0 -142.5 -37t-52.5 -101z" />
    <glyph glyph-name="nine.tf" horiz-adv-x="680" 
d="M51 495q0 105 76.5 171t199.5 66q135 0 216.5 -84t81.5 -255q0 -205 -79 -305t-221 -100q-63 0 -113 18t-79.5 47.5t-46 58.5t-23.5 59v15h87q11 -48 53 -87.5t122 -39.5q209 0 209 311h-10q-61 -107 -213 -107q-113 0 -186.5 64.5t-73.5 167.5zM143 498
q0 -73 50.5 -118.5t135.5 -45.5q83 0 133.5 45.5t50.5 118.5t-50.5 118t-135.5 45q-83 0 -133.5 -45t-50.5 -118z" />
    <glyph glyph-name="three.tf.ss13" horiz-adv-x="680" 
d="M68 720h554v-65l-272 -217v-10q30 3 39 3q100 0 168 -56.5t68 -153.5q0 -103 -76 -168t-207 -65q-126 0 -201.5 59t-87.5 146v15h88q7 -65 58 -107t142 -42q92 0 142 44.5t50 116.5q0 70 -52 111t-143 41q-58 0 -104 -23h-15v73l281 225h-432v73z" />
    <glyph glyph-name="zero.tf.zero" horiz-adv-x="680" 
d="M340 732q140 0 217.5 -99t77.5 -273t-77.5 -273t-217.5 -99t-217.5 99t-77.5 273t77.5 273t217.5 99zM340 659q-96 0 -149.5 -80.5t-53.5 -218.5q0 -96 26 -166l332 377q-55 88 -155 88zM340 62q97 0 150 80t53 218q0 98 -27 169l-332 -377q54 -90 156 -90z" />
    <glyph glyph-name="zero.tosf" horiz-adv-x="680" 
d="M52 255q0 118 79 192t209 74q129 0 208.5 -74t79.5 -192t-79.5 -192.5t-208.5 -74.5t-208.5 74.5t-79.5 192.5zM144 255q0 -87 54 -140t142 -53t142 53t54 140t-55 140.5t-141 52.5q-88 -1 -142 -53.5t-54 -139.5z" />
    <glyph glyph-name="one.tosf" horiz-adv-x="680" 
d="M433 73h217v-73h-616v73h307v250h-228v67h117q60 0 86.5 24t26.5 73v22h90v-436z" />
    <glyph glyph-name="two.tosf" horiz-adv-x="680" 
d="M75 329v15q12 82 85 129.5t185 47.5q113 0 183 -48t70 -131q0 -78 -51.5 -124.5t-153.5 -84.5l-164 -62h376v-71h-533v62l280 127q82 37 118.5 68.5t36.5 81.5q0 52 -44 81.5t-120 29.5t-124.5 -31t-54.5 -90h-89z" />
    <glyph glyph-name="three.tosf" horiz-adv-x="680" 
d="M51 -2v15h87q4 -75 58 -114.5t142 -39.5q87 0 139.5 37t52.5 100t-52 97.5t-140 34.5h-92v73h91q81 0 130.5 33.5t49.5 91.5q0 60 -49 92t-130 32t-131 -33t-56 -97h-87v15q10 86 83 136t192 50q121 0 195 -51t74 -139q0 -127 -140 -158v-10q26 -5 49.5 -15t49 -28.5
t40.5 -51.5t15 -76q0 -95 -78 -149.5t-205 -54.5q-126 0 -202.5 55t-85.5 155z" />
    <glyph glyph-name="four.tosf" horiz-adv-x="680" 
d="M45 0v63l433 446h114v-709h-92v200h-455zM150 71h350v350h-10z" />
    <glyph glyph-name="five.tosf" horiz-adv-x="680" 
d="M111 509h502v-72h-416l-18 -241h10q68 71 186 71q108 0 178.5 -62t70.5 -168q0 -111 -76.5 -180t-208.5 -69q-126 0 -198.5 60.5t-82.5 146.5v15h88q6 -66 55.5 -108.5t136.5 -42.5q90 0 142.5 47.5t52.5 124.5q0 75 -51 119.5t-138 44.5q-122 0 -172 -94h-90z" />
    <glyph glyph-name="six.tosf" horiz-adv-x="680" 
d="M627 227q0 -107 -76 -173t-200 -66q-135 0 -216 83.5t-81 255.5q0 204 84.5 304.5t231.5 100.5q65 0 115 -17.5t79 -47t45 -61.5t21 -67v-15h-87q-6 56 -46.5 96.5t-127.5 40.5q-105 0 -164.5 -79t-59.5 -233h10q26 46 80 77.5t136 31.5q111 0 183.5 -63t72.5 -168z
M536 222q0 73 -51 118.5t-135 45.5q-83 0 -133.5 -45.5t-50.5 -118.5t50.5 -118t134.5 -45q83 0 134 45.5t51 117.5z" />
    <glyph glyph-name="seven.tosf" horiz-adv-x="680" 
d="M34 509h608v-63l-351 -646h-96v15l344 622h-505v72z" />
    <glyph glyph-name="eight.tosf" horiz-adv-x="680" 
d="M66 539q0 87 74.5 140t199.5 53t199.5 -53t74.5 -140q0 -71 -42 -109.5t-98 -53.5v-10q25 -6 48.5 -17t48.5 -31t40.5 -52.5t15.5 -73.5q0 -93 -78 -148.5t-209 -55.5t-209 55.5t-78 148.5q0 41 15 73.5t40 52.5t48.5 31t48.5 17v10q-56 15 -97.5 53.5t-41.5 109.5z
M158 533q0 -60 48 -94t134 -34t134 34t48 94t-48 94t-134 34t-134 -34t-48 -94zM145 196q0 -64 52.5 -100.5t142.5 -36.5q91 0 143 36.5t52 100.5t-52 101t-143 37q-90 0 -142.5 -37t-52.5 -101z" />
    <glyph glyph-name="nine.tosf" horiz-adv-x="680" 
d="M51 284q0 106 76 171.5t200 65.5q135 0 216.5 -83.5t81.5 -255.5q0 -394 -300 -394q-58 0 -106 16.5t-78 44t-48.5 57t-25.5 60.5v15h87q10 -46 51.5 -84t119.5 -38q103 0 156 71.5t53 228.5h-10q-61 -107 -213 -107q-113 0 -186.5 65t-73.5 167zM143 287
q0 -73 50.5 -118t135.5 -45q83 0 133.5 45t50.5 118t-50.5 118t-135.5 45q-83 0 -133.5 -45t-50.5 -118z" />
    <glyph glyph-name="three.tosf.ss13" horiz-adv-x="680" 
d="M66 509h554v-65l-272 -211v-10q30 3 39 3q101 0 168.5 -55t67.5 -152q0 -104 -76 -167.5t-207 -63.5q-127 0 -202 58t-87 145v15h87q8 -65 59 -106t142 -41q92 0 142 43t50 115q0 70 -51.5 110t-143.5 40q-58 0 -104 -23h-15v75l279 218h-430v72z" />
    <glyph glyph-name="zero.tosf.zero" horiz-adv-x="680" 
d="M340 521q129 0 208.5 -74t79.5 -192t-79.5 -192.5t-208.5 -74.5t-208.5 74.5t-79.5 192.5t79 192t209 74zM340 448q-88 -1 -142 -53.5t-54 -139.5q0 -70 36 -119l288 271q-52 41 -128 41zM340 62q88 0 142 53t54 140q0 70 -38 121l-288 -272q53 -42 130 -42z" />
    <glyph glyph-name="exclamdown.case" horiz-adv-x="253" 
d="M67 613v107h119v-107h-119zM81 0v211l17 317h57l17 -317v-211h-91z" />
    <glyph glyph-name="questiondown.case" horiz-adv-x="564" 
d="M347 613h-119v107h119v-107zM443 199h88v-15q-4 -88 -74 -142t-178 -54q-107 0 -173.5 52t-65.5 134q0 39 11 70t35.5 54.5t44 37t54.5 33.5l14 7q25 15 34.5 31t9.5 43v16l14 62h60l14 -62v-18q0 -47 -19 -75.5t-63 -53.5l-14 -8q-54 -30 -80 -59.5t-26 -77.5
q0 -53 42 -85t110 -32q70 0 115.5 36.5t46.5 105.5z" />
    <glyph glyph-name="periodcentered.case" horiz-adv-x="226" 
d="M54 417h119v-107h-119v107z" />
    <glyph glyph-name="bullet.case" horiz-adv-x="833" 
d="M417 -12q-160 0 -266 105.5t-106 266.5t106 266.5t266 105.5t266 -105.5t106 -266.5t-106 -266.5t-266 -105.5z" />
    <glyph glyph-name="bullet.ss15" horiz-adv-x="829" 
d="M415 -12q-161 0 -265.5 105t-104.5 267t104.5 267t265.5 105t265.5 -105t104.5 -267t-104.5 -267t-265.5 -105zM415 32q138 0 230 93.5t92 234.5t-92 234.5t-230 93.5t-230 -93.5t-92 -234.5t92 -234.5t230 -93.5z" />
    <glyph glyph-name="asterisk.ss15" horiz-adv-x="506" 
d="M452 537h15v-46h-15l-109 5l-57 4l43 -37l83 -75l11 -11l-33 -33l-11 11l-75 83l-37 43l4 -57l5 -109v-15h-46v15l5 109l4 57l-37 -43l-75 -83l-11 -11l-33 33l11 11l83 75l43 37l-57 -4l-109 -5h-15v46h15l109 -5l57 -4l-43 37l-83 75l-11 11l33 33l11 -11l75 -83
l37 -43l-4 57l-5 109v15h46v-15l-5 -109l-4 -57l37 43l75 83l11 11l33 -33l-11 -11l-83 -75l-43 -37l57 4z" />
    <glyph glyph-name="asterisk.case.ss15" horiz-adv-x="825" 
d="M766 384h15v-48h-15l-173 5l-130 6l281 -150l-24 -42l-161 99l-109 69l69 -109l99 -161l-42 -24l-89 166l-61 116l6 -131l5 -173v-15h-48v15l5 173l6 131l-61 -116l-89 -166l-42 24l99 161l69 109l-109 -69l-161 -99l-24 42l166 89l116 61l-131 -6l-173 -5h-15v48h15
l173 -5l131 -6l-116 61l-166 89l24 42l161 -99l109 -69l-69 109l-99 161l42 24l89 -166l61 -115l-6 130l-5 173v15h48v-15l-5 -173l-6 -130l61 115l89 166l42 -24l-99 -161l-70 -110l110 70l161 99l24 -42l-281 -150l130 6z" />
    <glyph glyph-name="numbersign.ss15" horiz-adv-x="804" 
d="M762 456h-168l-76 -192h244v-44h-261l-87 -220h-44v15l81 205h-208l-87 -220h-44v15l81 205h-151v44h168l76 192h-244v44h261l87 220h44v-15l-81 -205h208l87 220h44v-15l-81 -205h151v-44zM468 264l76 192h-208l-76 -192h208z" />
    <glyph glyph-name="slash.ss15" horiz-adv-x="798" 
d="M708 720h50v-15l-668 -705h-50v15z" />
    <glyph glyph-name="backslash.ss15" horiz-adv-x="798" 
d="M90 720l668 -705v-15h-50l-668 705v15h50z" />
    <glyph glyph-name="parenleft.case" horiz-adv-x="329" 
d="M314 810v-13q-77 -93 -119 -195.5t-42 -246.5t42 -246.5t119 -195.5v-13h-82q-78 88 -122.5 193.5t-44.5 261.5t44.5 261.5t122.5 193.5h82z" />
    <glyph glyph-name="parenright.case" horiz-adv-x="329" 
d="M97 810q78 -88 122.5 -193.5t44.5 -261.5t-44.5 -261.5t-122.5 -193.5h-82v13q77 93 119 195.5t42 246.5t-42 246.5t-119 195.5v13h82z" />
    <glyph glyph-name="braceleft.case" horiz-adv-x="393" 
d="M28 321h-6v68h6q66 0 94.5 24t28.5 84v184q0 129 135 129h71v-66h-110l-8 -8v-246q0 -113 -110 -130v-10q110 -17 110 -130v-246l8 -8h110v-66h-71q-135 0 -135 129v184q0 60 -28.5 84t-94.5 24z" />
    <glyph glyph-name="braceright.case" horiz-adv-x="393" 
d="M364 321q-66 0 -94 -24t-28 -84v-184q0 -129 -135 -129h-72v66h111l8 8v246q0 113 109 130v10q-109 17 -109 130v246l-8 8h-111v66h72q135 0 135 -129v-184q0 -60 28 -84t94 -24h6v-68h-6z" />
    <glyph glyph-name="bracketleft.case" horiz-adv-x="320" 
d="M81 810h204v-66h-116v-778h116v-66h-204v910z" />
    <glyph glyph-name="bracketright.case" horiz-adv-x="320" 
d="M239 810v-910h-204v66h116v778h-116v66h204z" />
    <glyph glyph-name="parenleft.ss15" horiz-adv-x="318" 
d="M301 770v-15q-86 -95 -134 -205t-48 -265t48 -265t134 -205v-15h-47q-83 91 -133 205.5t-50 279.5t50 279.5t133 205.5h47z" />
    <glyph glyph-name="parenright.ss15" horiz-adv-x="318" 
d="M64 770q83 -91 133 -205.5t50 -279.5t-50 -279.5t-133 -205.5h-47v15q86 95 134 205t48 265t-48 265t-134 205v15h47z" />
    <glyph glyph-name="braceleft.ss15" horiz-adv-x="364" 
d="M32 262h-9v46h9q67 0 94.5 22t27.5 82v240q0 61 30 89.5t92 28.5h47v-44h-113l-8 -8v-312q0 -53 -24 -80.5t-74 -35.5v-10q50 -8 74 -35.5t24 -80.5v-312l8 -8h113v-44h-47q-62 0 -92 28.5t-30 89.5v240q0 60 -27.5 82t-94.5 22z" />
    <glyph glyph-name="braceright.ss15" horiz-adv-x="364" 
d="M332 262q-67 0 -94.5 -22t-27.5 -82v-240q0 -61 -30 -89.5t-92 -28.5h-47v44h113l8 8v312q0 53 24 80.5t74 35.5v10q-50 8 -74 35.5t-24 80.5v312l-8 8h-113v44h47q62 0 92 -28.5t30 -89.5v-240q0 -60 27.5 -82t94.5 -22h9v-46h-9z" />
    <glyph glyph-name="bracketleft.ss15" horiz-adv-x="291" 
d="M81 770h170v-44h-122v-882h122v-44h-170v970z" />
    <glyph glyph-name="bracketright.ss15" horiz-adv-x="289" 
d="M207 770v-970h-166v44h118v882h-118v44h166z" />
    <glyph glyph-name="parenleft.case.ss15" horiz-adv-x="308" 
d="M291 810v-15q-82 -91 -127 -191.5t-45 -248.5t45 -248.5t127 -191.5v-15h-47q-52 56 -86 110t-60.5 145t-26.5 200t26.5 200t60.5 145t86 110h47z" />
    <glyph glyph-name="parenright.case.ss15" horiz-adv-x="308" 
d="M64 810q52 -56 86 -110t60.5 -145t26.5 -200t-26.5 -200t-60.5 -145t-86 -110h-47v15q82 91 127 191.5t45 248.5t-45 248.5t-127 191.5v15h47z" />
    <glyph glyph-name="braceleft.case.ss15" horiz-adv-x="364" 
d="M32 332h-9v46h9q67 0 94.5 22t27.5 82v210q0 61 30 89.5t92 28.5h47v-44h-113l-8 -8v-282q0 -53 -24 -80.5t-74 -35.5v-10q50 -8 74 -35.5t24 -80.5v-282l8 -8h113v-44h-47q-62 0 -92 28.5t-30 89.5v210q0 60 -27.5 82t-94.5 22z" />
    <glyph glyph-name="braceright.case.ss15" horiz-adv-x="364" 
d="M332 332q-67 0 -94.5 -22t-27.5 -82v-210q0 -61 -30 -89.5t-92 -28.5h-47v44h113l8 8v282q0 53 24 80.5t74 35.5v10q-50 8 -74 35.5t-24 80.5v282l-8 8h-113v44h47q62 0 92 -28.5t30 -89.5v-210q0 -60 27.5 -82t94.5 -22h9v-46h-9z" />
    <glyph glyph-name="bracketleft.case.ss15" horiz-adv-x="291" 
d="M81 810h170v-44h-122v-822h122v-44h-170v910z" />
    <glyph glyph-name="bracketright.case.ss15" horiz-adv-x="291" 
d="M210 810v-910h-169v44h121v822h-121v44h169z" />
    <glyph glyph-name="hyphen.case" horiz-adv-x="402" 
d="M60 399h282v-70h-282v70z" />
    <glyph glyph-name="endash.case" horiz-adv-x="636" 
d="M60 399h516v-70h-516v70z" />
    <glyph glyph-name="emdash.case" horiz-adv-x="894" 
d="M60 399h774v-70h-774v70z" />
    <glyph glyph-name="hyphen.ss15" horiz-adv-x="390" 
d="M60 281h270v-44h-270v44z" />
    <glyph glyph-name="endash.ss15" horiz-adv-x="660" 
d="M60 281h540v-44h-540v44z" />
    <glyph glyph-name="emdash.ss15" horiz-adv-x="874" 
d="M60 281h754v-44h-754v44z" />
    <glyph glyph-name="hyphen.case.ss15" horiz-adv-x="390" 
d="M60 386h270v-44h-270v44z" />
    <glyph glyph-name="endash.case.ss15" horiz-adv-x="660" 
d="M60 386h540v-44h-540v44z" />
    <glyph glyph-name="emdash.case.ss15" horiz-adv-x="874" 
d="M60 386h754v-44h-754v44z" />
    <glyph glyph-name="guillemotleft.case" horiz-adv-x="515" 
d="M167 175l-123 182v14l123 182h84v-15l-119 -174l119 -174v-15h-84zM372 175l-123 182v14l123 182h83v-15l-119 -174l119 -174v-15h-83z" />
    <glyph glyph-name="guillemotright.case" horiz-adv-x="515" 
d="M143 175h-83v15l118 174l-118 174v15h83l123 -182v-14zM348 175h-84v15l119 174l-119 174v15h84l122 -182v-14z" />
    <glyph glyph-name="guilsinglleft.case" horiz-adv-x="310" 
d="M167 175l-123 182v14l123 182h84v-15l-119 -174l119 -174v-15h-84z" />
    <glyph glyph-name="guilsinglright.case" horiz-adv-x="310" 
d="M143 175h-83v15l118 174l-118 174v15h83l123 -182v-14z" />
    <glyph glyph-name="guillemotleft.case.ss15" horiz-adv-x="464" 
d="M171 184l-127 173v14l127 173h48v-15l-122 -165l122 -165v-15h-48zM356 184l-127 173v14l127 173h48v-15l-122 -165l122 -165v-15h-48z" />
    <glyph glyph-name="guillemotright.case.ss15" horiz-adv-x="464" 
d="M108 184h-48v15l122 165l-122 165v15h48l127 -173v-14zM293 184h-48v15l122 165l-122 165v15h48l127 -173v-14z" />
    <glyph glyph-name="guilsinglleft.case.ss15" horiz-adv-x="279" 
d="M171 184l-127 173v14l127 173h48v-15l-122 -165l122 -165v-15h-48z" />
    <glyph glyph-name="guilsinglright.case.ss15" horiz-adv-x="279" 
d="M108 184h-48v15l122 165l-122 165v15h48l127 -173v-14z" />
    <glyph glyph-name="guillemotleft.ss15" horiz-adv-x="464" 
d="M171 80l-127 173v14l127 173h48v-15l-122 -165l122 -165v-15h-48zM356 80l-127 173v14l127 173h48v-15l-122 -165l122 -165v-15h-48z" />
    <glyph glyph-name="guillemotright.ss15" horiz-adv-x="464" 
d="M108 80h-48v15l122 165l-122 165v15h48l127 -173v-14zM293 80h-48v15l122 165l-122 165v15h48l127 -173v-14z" />
    <glyph glyph-name="guilsinglleft.ss15" horiz-adv-x="279" 
d="M171 80l-127 173v14l127 173h48v-15l-122 -165l122 -165v-15h-48z" />
    <glyph glyph-name="guilsinglright.ss15" horiz-adv-x="279" 
d="M108 80h-48v15l122 165l-122 165v15h48l127 -173v-14z" />
    <glyph glyph-name="uni2197.case" horiz-adv-x="648" 
d="M154 720h399l23 -23v-398h-68v300l-407 -407l-54 54l407 406h-300v68z" />
    <glyph glyph-name="arrowright.case" horiz-adv-x="847" 
d="M517 662l282 -282v-31l-282 -282l-48 48l214 213h-616v73h616l-214 213z" />
    <glyph glyph-name="arrowleft.case" horiz-adv-x="847" 
d="M330 662l48 -48l-213 -213h616v-73h-616l213 -213l-48 -48l-281 282v31z" />
    <glyph glyph-name="uni2196.case" horiz-adv-x="648" 
d="M494 720v-68h-300l407 -406l-53 -54l-408 407v-300h-67v398l23 23h398z" />
    <glyph glyph-name="arrowboth.case" horiz-adv-x="841" 
d="M534 639l259 -259v-31l-259 -259l-48 48l191 190h-512l190 -190l-48 -48l-258 259v31l258 259l48 -48l-190 -190h512l-191 190z" />
    <glyph glyph-name="arrowup.ss15" horiz-adv-x="688" 
d="M56 452l280 280h16l280 -280l-31 -31l-233 233v-654h-48v654l-233 -233z" />
    <glyph glyph-name="uni2197.ss15" horiz-adv-x="651" 
d="M161 500h396l12 -12v-396h-44v330l-435 -434l-34 34l435 434h-330v44z" />
    <glyph glyph-name="arrowright.ss15" horiz-adv-x="864" 
d="M528 542l280 -280v-16l-280 -280l-31 31l235 235h-656v44h656l-235 235z" />
    <glyph glyph-name="uni2198.ss15" horiz-adv-x="651" 
d="M161 0v44h330l-435 434l34 34l435 -434v330h44v-396l-12 -12h-396z" />
    <glyph glyph-name="arrowdown.ss15" horiz-adv-x="688" 
d="M56 268l31 31l233 -233v654h48v-654l233 233l31 -31l-280 -280h-16z" />
    <glyph glyph-name="uni2199.ss15" horiz-adv-x="651" 
d="M490 0h-396l-12 12v396h44v-330l435 434l34 -34l-435 -434h330v-44z" />
    <glyph glyph-name="arrowleft.ss15" horiz-adv-x="864" 
d="M336 542l31 -31l-235 -235h656v-44h-656l235 -235l-31 -31l-280 280v16z" />
    <glyph glyph-name="uni2196.ss15" horiz-adv-x="651" 
d="M490 500v-44h-330l435 -434l-34 -34l-435 434v-330h-44v396l12 12h396z" />
    <glyph glyph-name="arrowboth.ss15" horiz-adv-x="856" 
d="M540 522l260 -260v-16l-260 -260l-31 31l215 215h-592l215 -215l-31 -31l-260 260v16l260 260l31 -31l-215 -215h592l-215 215z" />
    <glyph glyph-name="arrowupdn.ss15" horiz-adv-x="648" 
d="M348 66l213 213l31 -31l-260 -260h-16l-260 260l31 31l213 -213v588l-213 -213l-31 31l260 260h16l260 -260l-31 -31l-213 213v-588z" />
    <glyph glyph-name="uni2197.case.ss15" horiz-adv-x="651" 
d="M161 720h396l12 -12v-396h-44v330l-435 -434l-34 34l435 434h-330v44z" />
    <glyph glyph-name="arrowright.case.ss15" horiz-adv-x="864" 
d="M528 652l280 -280v-16l-280 -280l-31 31l235 235h-656v44h656l-235 235z" />
    <glyph glyph-name="arrowleft.case.ss15" horiz-adv-x="864" 
d="M336 652l31 -31l-235 -235h656v-44h-656l235 -235l-31 -31l-280 280v16z" />
    <glyph glyph-name="uni2196.case.ss15" horiz-adv-x="651" 
d="M490 720v-44h-330l435 -434l-34 -34l-435 434v-330h-44v396l12 12h396z" />
    <glyph glyph-name="arrowboth.case.ss15" horiz-adv-x="856" 
d="M540 632l260 -260v-16l-260 -260l-31 31l215 215h-592l215 -215l-31 -31l-260 260v16l260 260l31 -31l-215 -215h592l-215 215z" />
    <glyph glyph-name="at.case" horiz-adv-x="1072" 
d="M492 397l186 18v18q0 114 -129 114q-122 0 -136 -100h-83v15q12 68 71.5 109.5t150.5 41.5q96 0 152.5 -46t56.5 -135v-240l8 -8h15q63 0 107 55t44 177q0 148 -105.5 248t-277.5 100q-179 0 -295.5 -111t-116.5 -295q0 -185 118 -295.5t304 -110.5q158 0 270 80l37 -59
q-130 -87 -307 -87q-218 0 -357.5 128.5t-139.5 343.5q0 214 138.5 343t348.5 129q203 0 330.5 -118t127.5 -294q0 -150 -67.5 -224t-161.5 -74q-42 0 -65.5 20.5t-26.5 55.5h-10q-18 -22 -34.5 -36.5t-56.5 -30t-91 -15.5q-79 0 -129 39t-49 103t48 99t125 42zM678 337v13
l-173 -17q-103 -10 -103 -76q0 -36 29 -56.5t81 -20.5q72 0 119 41t47 116z" />
    <glyph glyph-name="bar.case" horiz-adv-x="270" 
d="M91 893h88v-1093h-88v1093z" />
    <glyph glyph-name="brokenbar.case" horiz-adv-x="270" 
d="M91 509v384h88v-384h-88zM91 -200v384h88v-384h-88z" />
    <glyph glyph-name="registered.ss10" horiz-adv-x="848" 
d="M424 732q160 0 268 -107t108 -265t-108 -265t-268 -107t-268 107t-108 265t108 265t268 107zM424 32q141 0 234.5 94t93.5 234t-93.5 234t-234.5 94t-234.5 -93.5t-93.5 -234.5t93.5 -234.5t234.5 -93.5zM598 444q0 -52 -35 -82t-89 -30h-58l168 -151v-15h-54l-180 166
h-10v-166h-48v390h182q54 0 89 -30t35 -82zM340 376h133q77 0 77 68t-77 68h-133v-136z" />
    <glyph glyph-name="bar.ss15" horiz-adv-x="236" 
d="M94 720h48v-920h-48v920z" />
    <glyph glyph-name="brokenbar.ss15" horiz-adv-x="236" 
d="M94 384v336h48v-336h-48zM94 -200v336h48v-336h-48z" />
    <glyph glyph-name="dagger.ss15" horiz-adv-x="528" 
d="M488 500v-44h-200v-456h-48v456h-200v44h200v220h48v-220h200z" />
    <glyph glyph-name="daggerdbl.ss15" horiz-adv-x="528" 
d="M488 456h-200v-392h200v-44h-200v-220h-48v220h-200v44h200v392h-200v44h200v220h48v-220h200v-44z" />
    <glyph glyph-name="uni2116.ss15" horiz-adv-x="1304" 
d="M756 473q0 114 69.5 184t183.5 70t184 -70t70 -184q0 -113 -70 -183t-184 -70t-183.5 70t-69.5 183zM81 720h117l351 -586h10v586h90v-720h-116l-351 586h-10v-586h-91v720zM844 473q0 -87 45 -137t120 -50t120 50t45 137t-45 137t-120 50t-120 -50t-45 -137zM780 44h458
v-44h-458v44z" />
    <glyph glyph-name="bar.case.ss15" horiz-adv-x="236" 
d="M94 890h48v-1090h-48v1090z" />
    <glyph glyph-name="brokenbar.case.ss15" horiz-adv-x="236" 
d="M94 504v386h48v-386h-48zM94 -200v386h48v-386h-48z" />
    <glyph glyph-name="uni0308.case" 
d="M-389 879h120v-98h-120v98zM-174 879h120v-98h-120v98z" />
    <glyph glyph-name="uni0307.case" 
d="M-181 879h127v-98h-127v98z" />
    <glyph glyph-name="gravecomb.case" 
d="M-131 774l-106 111v15h106l77 -111v-15h-77z" />
    <glyph glyph-name="acutecomb.case" 
d="M-160 774h-77v15l77 111h106v-15z" />
    <glyph glyph-name="uni030B.case" 
d="M-325 774h-64v15l55 111h91v-15zM-150 774h-70v15l69 111h98v-15z" />
    <glyph glyph-name="uni0302.case" 
d="M-169 900l129 -108v-18h-87l-97 76l-98 -76h-87v18l130 108h110z" />
    <glyph glyph-name="uni030C.case" 
d="M-127 900h87v-18l-129 -108h-110l-130 108v18h87l98 -77z" />
    <glyph glyph-name="uni0306.case" 
d="M-126 900h72v-14q-7 -50 -48 -84t-116 -34t-116 34t-48 84v14h72q2 -31 25 -51t67 -20t67 20t25 51z" />
    <glyph glyph-name="uni030A.case" 
d="M-153 750q-43 0 -71 25.5t-28 65.5t28 65.5t71 25.5q44 0 72 -25.5t28 -65.5t-28 -65.5t-72 -25.5zM-153 799q19 0 31 12t12 30t-12 30t-31 12t-31 -12t-12 -30t12 -30t31 -12z" />
    <glyph glyph-name="tildecomb.case" 
d="M-115 890h61v-15q-3 -43 -29 -71.5t-73 -28.5q-38 0 -85.5 30.5t-69.5 30.5q-47 0 -47 -53h-60v15q2 44 28 72.5t73 28.5q39 0 86.5 -30.5t69.5 -30.5q46 0 46 52zM-236 836v2h-1v-2h1z" />
    <glyph glyph-name="uni0304.case" 
d="M-376 849h323v-64h-323v64z" />
    <glyph glyph-name="hookabovecomb.case" 
d="M-274 903q50 30 120 30q44 0 72 -18t28 -48q0 -19 -11 -34.5t-20 -22t-30 -19.5l-28 -17h-68v15l55 35q30 21 30 34q0 22 -37 22q-46 0 -96 -32h-15v55z" />
    </font>
</defs>
</svg>
